SplineFontDB: 3.0
FontName: RisingSun-Italic
FullName: Rising Sun Italic
FamilyName: Rising Sun
Weight: Book
Copyright: Copyright (c) 2010 - 2013, Matt McInerney (matt@pixelspread.com), Pablo Impallari (impallari@gmail.com), Rodrigo Fuenzalida (hello@rfuenzalida.com) with Reserved Font Name RALEWAY.\nCopyright (c) 2016, Cristiano Sobral (cssobral2013@gmail.com), with Reserved Font Name RISING SUN.
Version: 1.000
ItalicAngle: -12
UnderlinePosition: -100
UnderlineWidth: 50
Ascent: 800
Descent: 200
InvalidEm: 0
sfntRevision: 0x00010000
LayerCount: 2
Layer: 0 1 "Back" 1
Layer: 1 1 "Fore" 0
XUID: [1021 368 144034212 7362]
StyleMap: 0x0001
FSType: 4
OS2Version: 3
OS2_WeightWidthSlopeOnly: 0
OS2_UseTypoMetrics: 0
CreationTime: 1372299720
ModificationTime: 1466167238
PfmFamily: 17
TTFWeight: 400
TTFWidth: 5
LineGap: 0
VLineGap: 0
Panose: 2 11 5 3 3 1 1 6 0 3
OS2TypoAscent: 800
OS2TypoAOffset: 0
OS2TypoDescent: -200
OS2TypoDOffset: 0
OS2TypoLinegap: 0
OS2WinAscent: 933
OS2WinAOffset: 0
OS2WinDescent: 244
OS2WinDOffset: 0
HheadAscent: 933
HheadAOffset: 0
HheadDescent: -244
HheadDOffset: 0
OS2SubXSize: 700
OS2SubYSize: 650
OS2SubXOff: 0
OS2SubYOff: 140
OS2SupXSize: 700
OS2SupYSize: 650
OS2SupXOff: 0
OS2SupYOff: 477
OS2StrikeYSize: 50
OS2StrikeYPos: 250
OS2CapHeight: 710
OS2XHeight: 521
OS2Vendor: 'pyrs'
OS2CodePages: 20000093.00000000
OS2UnicodeRanges: a00000ff.5000205b.00000000.00000000
Lookup: 1 0 0 "'aalt' Access All Alternates in Latin lookup 0" { "'aalt' Access All Alternates in Latin lookup 0 subtable"  } ['aalt' ('latn' <'dflt' > ) ]
Lookup: 3 0 0 "'aalt' Access All Alternates in Latin lookup 1" { "'aalt' Access All Alternates in Latin lookup 1 subtable"  } ['aalt' ('latn' <'dflt' > ) ]
Lookup: 1 0 0 "'smcp' Lowercase to Small Capitals in Latin lookup 2" { "'smcp' Lowercase to Small Capitals in Latin lookup 2 subtable"  } ['smcp' ('latn' <'dflt' > ) ]

StartChar: exclam
Encoding: 33 33 5
Width: 248
GlyphClass: 2
Flags: W
LayerCount: 2
Fore
SplineSet
75 228 m 1,0,-1
 178 717 l 1,1,-1
 246 717 l 1,2,-1
 143 228 l 1,3,-1
 75 228 l 1,0,-1
26 0 m 1,4,-1
 50 112 l 1,5,-1
 119 112 l 1,6,-1
 94 0 l 1,7,-1
 26 0 l 1,4,-1
EndSplineSet
EndChar

StartChar: quotedbl
Encoding: 34 34 6
Width: 287
GlyphClass: 2
Flags: W
LayerCount: 2
Fore
SplineSet
112 522 m 1,0,-1
 153 716 l 1,1,-1
 213 716 l 1,2,-1
 172 522 l 1,3,-1
 112 522 l 1,0,-1
205 522 m 1,4,-1
 247 716 l 1,5,-1
 306 716 l 1,6,-1
 265 522 l 1,7,-1
 205 522 l 1,4,-1
EndSplineSet
EndChar

StartChar: numbersign
Encoding: 35 35 7
Width: 652
GlyphClass: 2
Flags: W
LayerCount: 2
Fore
SplineSet
648 457 m 1,0,-1
 524 457 l 1,1,-1
 438 261 l 1,2,-1
 565 261 l 1,3,-1
 554 207 l 1,4,-1
 414 207 l 1,5,-1
 323 0 l 1,6,-1
 265 0 l 1,7,-1
 358 207 l 1,8,-1
 181 207 l 1,9,-1
 90 0 l 1,10,-1
 32 0 l 1,11,-1
 125 207 l 1,12,-1
 18 207 l 1,13,-1
 29 261 l 1,14,-1
 150 261 l 1,15,-1
 235 457 l 1,16,-1
 111 457 l 1,17,-1
 123 508 l 1,18,-1
 259 508 l 1,19,-1
 348 710 l 1,20,-1
 405 710 l 1,21,-1
 315 508 l 1,22,-1
 492 508 l 1,23,-1
 580 710 l 1,24,-1
 638 710 l 1,25,-1
 548 508 l 1,26,-1
 659 508 l 1,27,-1
 648 457 l 1,0,-1
381 261 m 1,28,-1
 468 457 l 1,29,-1
 292 457 l 1,30,-1
 206 261 l 1,31,-1
 381 261 l 1,28,-1
EndSplineSet
EndChar

StartChar: dollar
Encoding: 36 36 8
Width: 594
GlyphClass: 2
Flags: W
LayerCount: 2
Fore
SplineSet
546 577 m 1,0,1
 526 609 526 609 485.5 630 c 128,-1,2
 445 651 445 651 388 653 c 1,3,-1
 332 386 l 1,4,5
 377 376 377 376 414.5 363.5 c 128,-1,6
 452 351 452 351 478.5 332 c 128,-1,7
 505 313 505 313 519.5 286.5 c 128,-1,8
 534 260 534 260 534 223 c 0,9,10
 534 167 534 167 512.5 124.5 c 128,-1,11
 491 82 491 82 453 53.5 c 128,-1,12
 415 25 415 25 363.5 10 c 128,-1,13
 312 -5 312 -5 253 -6 c 1,14,-1
 232 -103 l 1,15,-1
 196 -103 l 1,16,-1
 217 -5 l 1,17,18
 77 4 77 4 -5 97 c 1,19,-1
 42 154 l 1,20,21
 66 117 66 117 116 89.5 c 128,-1,22
 166 62 166 62 233 57 c 1,23,-1
 290 324 l 1,24,25
 245 336 245 336 210 349 c 128,-1,26
 175 362 175 362 151 379 c 128,-1,27
 127 396 127 396 115 419.5 c 128,-1,28
 103 443 103 443 103 475 c 0,29,30
 103 528 103 528 123.5 571 c 128,-1,31
 144 614 144 614 180 644.5 c 128,-1,32
 216 675 216 675 264.5 693 c 128,-1,33
 313 711 313 711 369 714 c 1,34,-1
 391 815 l 1,35,-1
 427 815 l 1,36,-1
 406 715 l 1,37,38
 468 713 468 713 513.5 691.5 c 128,-1,39
 559 670 559 670 591 633 c 1,40,-1
 546 577 l 1,0,1
457 202 m 0,41,42
 457 248 457 248 421 272.5 c 128,-1,43
 385 297 385 297 317 317 c 1,44,-1
 261 56 l 1,45,46
 352 56 352 56 404.5 93.5 c 128,-1,47
 457 131 457 131 457 202 c 0,41,42
179 497 m 0,48,49
 179 454 179 454 210 432 c 128,-1,50
 241 410 241 410 304 393 c 1,51,-1
 359 652 l 1,52,53
 264 647 264 647 221.5 604 c 128,-1,54
 179 561 179 561 179 497 c 0,48,49
EndSplineSet
EndChar

StartChar: percent
Encoding: 37 37 9
Width: 688
GlyphClass: 2
Flags: W
LayerCount: 2
Fore
SplineSet
211 433 m 0,0,1
 185 433 185 433 164 442 c 128,-1,2
 143 451 143 451 128 467 c 128,-1,3
 113 483 113 483 104.5 504.5 c 128,-1,4
 96 526 96 526 96 551 c 0,5,6
 96 585 96 585 111 615.5 c 128,-1,7
 126 646 126 646 150.5 669.5 c 128,-1,8
 175 693 175 693 207 706.5 c 128,-1,9
 239 720 239 720 273 720 c 0,10,11
 299 720 299 720 320 711 c 128,-1,12
 341 702 341 702 356 686 c 128,-1,13
 371 670 371 670 379.5 648 c 128,-1,14
 388 626 388 626 388 601 c 0,15,16
 388 567 388 567 373 536.5 c 128,-1,17
 358 506 358 506 333 483 c 128,-1,18
 308 460 308 460 276.5 446.5 c 128,-1,19
 245 433 245 433 211 433 c 0,0,1
220 472 m 0,20,21
 242 472 242 472 262.5 482.5 c 128,-1,22
 283 493 283 493 299.5 510.5 c 128,-1,23
 316 528 316 528 326 550 c 128,-1,24
 336 572 336 572 336 596 c 0,25,26
 336 631 336 631 316 655.5 c 128,-1,27
 296 680 296 680 264 680 c 0,28,29
 242 680 242 680 221.5 669.5 c 128,-1,30
 201 659 201 659 184.5 642 c 128,-1,31
 168 625 168 625 158 603 c 128,-1,32
 148 581 148 581 148 557 c 0,33,34
 148 522 148 522 168 497 c 128,-1,35
 188 472 188 472 220 472 c 0,20,21
439 -10 m 0,36,37
 413 -10 413 -10 392 -1 c 128,-1,38
 371 8 371 8 355.5 24 c 128,-1,39
 340 40 340 40 331.5 62 c 128,-1,40
 323 84 323 84 323 109 c 0,41,42
 323 143 323 143 338 173.5 c 128,-1,43
 353 204 353 204 378 227 c 128,-1,44
 403 250 403 250 435 263.5 c 128,-1,45
 467 277 467 277 500 277 c 0,46,47
 526 277 526 277 547 268 c 128,-1,48
 568 259 568 259 583 243 c 128,-1,49
 598 227 598 227 606.5 205.5 c 128,-1,50
 615 184 615 184 615 159 c 0,51,52
 615 125 615 125 600 94.5 c 128,-1,53
 585 64 585 64 560.5 40.5 c 128,-1,54
 536 17 536 17 504.5 3.5 c 128,-1,55
 473 -10 473 -10 439 -10 c 0,36,37
447 30 m 0,56,57
 469 30 469 30 490 40 c 128,-1,58
 511 50 511 50 527.5 67.5 c 128,-1,59
 544 85 544 85 554 107 c 128,-1,60
 564 129 564 129 564 153 c 0,61,62
 564 188 564 188 543.5 213 c 128,-1,63
 523 238 523 238 491 238 c 0,64,65
 469 238 469 238 448 227.5 c 128,-1,66
 427 217 427 217 410.5 199.5 c 128,-1,67
 394 182 394 182 384 160 c 128,-1,68
 374 138 374 138 374 114 c 0,69,70
 374 79 374 79 394.5 54.5 c 128,-1,71
 415 30 415 30 447 30 c 0,56,57
7 27 m 1,72,-1
 676 714 l 1,73,-1
 704 684 l 1,74,-1
 35 -4 l 1,75,-1
 7 27 l 1,72,-1
EndSplineSet
EndChar

StartChar: ampersand
Encoding: 38 38 10
Width: 671
GlyphClass: 2
Flags: W
LayerCount: 2
Fore
SplineSet
408 104 m 1,0,1
 359 50 359 50 302 20 c 128,-1,2
 245 -10 245 -10 185 -10 c 0,3,4
 148 -10 148 -10 117.5 2.5 c 128,-1,5
 87 15 87 15 65 36.5 c 128,-1,6
 43 58 43 58 30.5 88.5 c 128,-1,7
 18 119 18 119 18 155 c 0,8,9
 18 195 18 195 32.5 229.5 c 128,-1,10
 47 264 47 264 72 293.5 c 128,-1,11
 97 323 97 323 131.5 349 c 128,-1,12
 166 375 166 375 207 400 c 1,13,14
 177 446 177 446 164 478.5 c 128,-1,15
 151 511 151 511 151 540 c 0,16,17
 151 577 151 577 168 609.5 c 128,-1,18
 185 642 185 642 213.5 666.5 c 128,-1,19
 242 691 242 691 279.5 705 c 128,-1,20
 317 719 317 719 358 719 c 0,21,22
 412 719 412 719 454 691 c 128,-1,23
 496 663 496 663 517 614 c 1,24,-1
 470 572 l 1,25,26
 454 614 454 614 421.5 640 c 128,-1,27
 389 666 389 666 347 666 c 0,28,29
 321 666 321 666 297 656.5 c 128,-1,30
 273 647 273 647 255 631 c 128,-1,31
 237 615 237 615 226 594 c 128,-1,32
 215 573 215 573 215 550 c 256,33,34
 215 527 215 527 228 496.5 c 128,-1,35
 241 466 241 466 276 415 c 2,36,-1
 420 209 l 1,37,38
 446 253 446 253 464.5 305 c 128,-1,39
 483 357 483 357 494 416 c 1,40,-1
 654 416 l 1,41,-1
 642 361 l 1,42,-1
 543 361 l 1,43,44
 527 304 527 304 504.5 253.5 c 128,-1,45
 482 203 482 203 453 161 c 1,46,-1
 566 0 l 1,47,-1
 480 0 l 1,48,-1
 408 104 l 1,0,1
199 46 m 0,49,50
 247 46 247 46 292.5 73.5 c 128,-1,51
 338 101 338 101 378 149 c 1,52,-1
 236 356 l 1,53,54
 166 312 166 312 125.5 266.5 c 128,-1,55
 85 221 85 221 85 163 c 0,56,57
 85 108 85 108 117.5 77 c 128,-1,58
 150 46 150 46 199 46 c 0,49,50
EndSplineSet
EndChar

StartChar: quotesingle
Encoding: 39 39 11
Width: 193
GlyphClass: 2
Flags: W
LayerCount: 2
Fore
SplineSet
112 521 m 1,0,-1
 153 716 l 1,1,-1
 213 716 l 1,2,-1
 172 521 l 1,3,-1
 112 521 l 1,0,-1
EndSplineSet
EndChar

StartChar: parenleft
Encoding: 40 40 12
Width: 263
GlyphClass: 2
Flags: W
LayerCount: 2
Fore
SplineSet
44 260 m 0,0,1
 44 326 44 326 62 386.5 c 128,-1,2
 80 447 80 447 111 505.5 c 128,-1,3
 142 564 142 564 183.5 621.5 c 128,-1,4
 225 679 225 679 272 739 c 1,5,-1
 318 714 l 1,6,7
 288 679 288 679 252 627.5 c 128,-1,8
 216 576 216 576 184 516.5 c 128,-1,9
 152 457 152 457 130.5 392.5 c 128,-1,10
 109 328 109 328 109 267 c 0,11,12
 109 205 109 205 123 130 c 128,-1,13
 137 55 137 55 163 -10 c 1,14,-1
 107 -37 l 1,15,16
 78 32 78 32 61 110 c 128,-1,17
 44 188 44 188 44 260 c 0,0,1
EndSplineSet
EndChar

StartChar: parenright
Encoding: 41 41 13
Width: 263
GlyphClass: 2
Flags: W
LayerCount: 2
Fore
SplineSet
239 432 m 0,0,1
 239 370 239 370 222 310.5 c 128,-1,2
 205 251 205 251 175 193.5 c 128,-1,3
 145 136 145 136 103.5 78.5 c 128,-1,4
 62 21 62 21 13 -37 c 1,5,-1
 -32 -10 l 1,6,7
 13 44 13 44 51 98.5 c 128,-1,8
 89 153 89 153 116 207 c 128,-1,9
 143 261 143 261 158 315.5 c 128,-1,10
 173 370 173 370 173 424 c 0,11,12
 173 463 173 463 168.5 504.5 c 128,-1,13
 164 546 164 546 156.5 585 c 128,-1,14
 149 624 149 624 139.5 657.5 c 128,-1,15
 130 691 130 691 120 714 c 1,16,-1
 178 739 l 1,17,18
 204 667 204 667 221.5 587.5 c 128,-1,19
 239 508 239 508 239 432 c 0,0,1
EndSplineSet
EndChar

StartChar: asterisk
Encoding: 42 42 14
Width: 313
GlyphClass: 2
Flags: W
LayerCount: 2
Fore
SplineSet
135 546 m 1,0,-1
 189 608 l 1,1,-1
 129 630 l 1,2,-1
 147 666 l 1,3,-1
 208 640 l 1,4,-1
 221 713 l 1,5,-1
 262 713 l 1,6,-1
 244 640 l 1,7,-1
 317 666 l 1,8,-1
 319 630 l 1,9,-1
 249 608 l 1,10,-1
 278 546 l 1,11,-1
 242 524 l 1,12,-1
 216 589 l 1,13,-1
 161 524 l 1,14,-1
 135 546 l 1,0,-1
EndSplineSet
EndChar

StartChar: plus
Encoding: 43 43 15
Width: 414
GlyphClass: 2
Flags: W
LayerCount: 2
Fore
SplineSet
372 383 m 1,0,-1
 372 327 l 1,1,-1
 248 327 l 1,2,-1
 248 192 l 1,3,-1
 185 192 l 1,4,-1
 185 327 l 1,5,-1
 61 327 l 1,6,-1
 61 383 l 1,7,-1
 185 383 l 1,8,-1
 185 518 l 1,9,-1
 248 518 l 1,10,-1
 248 383 l 1,11,-1
 372 383 l 1,0,-1
EndSplineSet
EndChar

StartChar: comma
Encoding: 44 44 16
Width: 222
GlyphClass: 2
Flags: W
LayerCount: 2
Fore
SplineSet
4 -81 m 1,0,-1
 39 3 l 1,1,-1
 16 3 l 1,2,-1
 36 98 l 1,3,-1
 101 98 l 1,4,-1
 81 3 l 1,5,-1
 39 -81 l 1,6,-1
 4 -81 l 1,0,-1
EndSplineSet
EndChar

StartChar: hyphen
Encoding: 45 45 17
Width: 405
GlyphClass: 2
Flags: W
LayerCount: 2
Fore
SplineSet
51 241 m 1,0,-1
 64 304 l 1,1,-1
 342 304 l 1,2,-1
 329 241 l 1,3,-1
 51 241 l 1,0,-1
EndSplineSet
EndChar

StartChar: period
Encoding: 46 46 18
Width: 188
GlyphClass: 2
Flags: W
LayerCount: 2
Fore
SplineSet
2 0 m 1,0,-1
 23 98 l 1,1,-1
 81 98 l 1,2,-1
 60 0 l 1,3,-1
 2 0 l 1,0,-1
EndSplineSet
EndChar

StartChar: slash
Encoding: 47 47 19
Width: 599
GlyphClass: 2
Flags: W
LayerCount: 2
Fore
SplineSet
651 710 m 1,0,-1
 51 0 l 1,1,-1
 -26 0 l 1,2,-1
 575 710 l 1,3,-1
 651 710 l 1,0,-1
EndSplineSet
EndChar

StartChar: zero
Encoding: 48 48 20
Width: 658
GlyphClass: 2
Flags: W
LayerCount: 2
Fore
SplineSet
263 -10 m 0,0,1
 207 -10 207 -10 167 15.5 c 128,-1,2
 127 41 127 41 101 82 c 128,-1,3
 75 123 75 123 62.5 173.5 c 128,-1,4
 50 224 50 224 50 275 c 0,5,6
 50 349 50 349 79 426.5 c 128,-1,7
 108 504 108 504 158 567 c 128,-1,8
 208 630 208 630 274.5 670 c 128,-1,9
 341 710 341 710 416 710 c 0,10,11
 473 710 473 710 513 684 c 128,-1,12
 553 658 553 658 578.5 617 c 128,-1,13
 604 576 604 576 616 525 c 128,-1,14
 628 474 628 474 628 423 c 0,15,16
 628 374 628 374 615 322.5 c 128,-1,17
 602 271 602 271 578 223 c 128,-1,18
 554 175 554 175 520.5 132.5 c 128,-1,19
 487 90 487 90 446.5 58.5 c 128,-1,20
 406 27 406 27 359.5 8.5 c 128,-1,21
 313 -10 313 -10 263 -10 c 0,0,1
276 53 m 0,22,23
 338 53 338 53 389.5 89.5 c 128,-1,24
 441 126 441 126 478.5 180.5 c 128,-1,25
 516 235 516 235 536.5 299 c 128,-1,26
 557 363 557 363 557 418 c 0,27,28
 557 461 557 461 548 502 c 128,-1,29
 539 543 539 543 520 575 c 128,-1,30
 501 607 501 607 472 627 c 128,-1,31
 443 647 443 647 403 647 c 0,32,33
 361 647 361 647 324 629.5 c 128,-1,34
 287 612 287 612 255.5 582.5 c 128,-1,35
 224 553 224 553 199.5 514.5 c 128,-1,36
 175 476 175 476 157.5 434 c 128,-1,37
 140 392 140 392 131 349 c 128,-1,38
 122 306 122 306 122 268 c 0,39,40
 122 226 122 226 130.5 187 c 128,-1,41
 139 148 139 148 157.5 118.5 c 128,-1,42
 176 89 176 89 205.5 71 c 128,-1,43
 235 53 235 53 276 53 c 0,22,23
EndSplineSet
Substitution2: "'lnum' Lining Figures in Latin lookup 3 subtable" zero.lnum
Substitution2: "'aalt' Access All Alternates in Latin lookup 0 subtable" zero.lnum
EndChar

StartChar: one
Encoding: 49 49 21
Width: 398
GlyphClass: 2
Flags: W
LayerCount: 2
Fore
SplineSet
13 62 m 1,0,-1
 141 62 l 1,1,-1
 264 643 l 1,2,3
 254 631 254 631 233.5 616.5 c 128,-1,4
 213 602 213 602 189 588.5 c 128,-1,5
 165 575 165 575 140.5 566 c 128,-1,6
 116 557 116 557 97 557 c 1,7,-1
 110 621 l 1,8,9
 135 621 135 621 164.5 635.5 c 128,-1,10
 194 650 194 650 219.5 668 c 128,-1,11
 245 686 245 686 262.5 701.5 c 128,-1,12
 280 717 280 717 281 719 c 2,13,-1
 350 719 l 1,14,-1
 211 62 l 1,15,-1
 331 62 l 1,16,-1
 318 0 l 1,17,-1
 0 0 l 1,18,-1
 13 62 l 1,0,-1
EndSplineSet
Substitution2: "'lnum' Lining Figures in Latin lookup 3 subtable" one.lnum
Substitution2: "'aalt' Access All Alternates in Latin lookup 0 subtable" one.lnum
EndChar

StartChar: two
Encoding: 50 50 22
Width: 556
GlyphClass: 2
Flags: W
LayerCount: 2
Fore
SplineSet
-16 0 m 1,0,1
 -3 69 -3 69 19.5 120.5 c 128,-1,2
 42 172 42 172 73.5 210 c 128,-1,3
 105 248 105 248 145.5 275.5 c 128,-1,4
 186 303 186 303 236 325 c 0,5,6
 276 343 276 343 319 359.5 c 128,-1,7
 362 376 362 376 397.5 399 c 128,-1,8
 433 422 433 422 455.5 456 c 128,-1,9
 478 490 478 490 478 543 c 0,10,11
 478 566 478 566 471 586.5 c 128,-1,12
 464 607 464 607 450 622 c 128,-1,13
 436 637 436 637 413.5 646 c 128,-1,14
 391 655 391 655 361 655 c 0,15,16
 325 655 325 655 293 644 c 128,-1,17
 261 633 261 633 234 616.5 c 128,-1,18
 207 600 207 600 186 581.5 c 128,-1,19
 165 563 165 563 151 548 c 1,20,-1
 117 597 l 1,21,22
 124 604 124 604 146 624 c 128,-1,23
 168 644 168 644 202.5 665 c 128,-1,24
 237 686 237 686 282.5 702.5 c 128,-1,25
 328 719 328 719 382 719 c 0,26,27
 426 719 426 719 458.5 706 c 128,-1,28
 491 693 491 693 512 670.5 c 128,-1,29
 533 648 533 648 543.5 618 c 128,-1,30
 554 588 554 588 554 555 c 0,31,32
 554 494 554 494 530.5 451.5 c 128,-1,33
 507 409 507 409 470.5 379 c 128,-1,34
 434 349 434 349 388.5 327.5 c 128,-1,35
 343 306 343 306 300 288 c 0,36,37
 243 264 243 264 204.5 238 c 128,-1,38
 166 212 166 212 141 184 c 128,-1,39
 116 156 116 156 103 125.5 c 128,-1,40
 90 95 90 95 83 62 c 1,41,-1
 454 62 l 1,42,-1
 441 0 l 1,43,-1
 -16 0 l 1,44,-1
 -16 0 l 1,0,1
EndSplineSet
Substitution2: "'lnum' Lining Figures in Latin lookup 3 subtable" two.lnum
Substitution2: "'aalt' Access All Alternates in Latin lookup 0 subtable" two.lnum
EndChar

StartChar: three
Encoding: 51 51 23
Width: 558
GlyphClass: 2
Flags: W
LayerCount: 2
Fore
SplineSet
206 -9 m 0,0,1
 162 -9 162 -9 127 2.5 c 128,-1,2
 92 14 92 14 66.5 35.5 c 128,-1,3
 41 57 41 57 27.5 87.5 c 128,-1,4
 14 118 14 118 14 156 c 1,5,-1
 63 194 l 1,6,7
 63 133 63 133 102 94 c 128,-1,8
 141 55 141 55 216 55 c 0,9,10
 255 55 255 55 291.5 67 c 128,-1,11
 328 79 328 79 355.5 100 c 128,-1,12
 383 121 383 121 399.5 149.5 c 128,-1,13
 416 178 416 178 416 211 c 0,14,15
 416 270 416 270 366.5 301.5 c 128,-1,16
 317 333 317 333 227 333 c 2,17,-1
 195 333 l 1,18,-1
 207 392 l 1,19,-1
 240 392 l 2,20,21
 344 392 344 392 405.5 430.5 c 128,-1,22
 467 469 467 469 467 541 c 0,23,24
 467 596 467 596 431.5 627 c 128,-1,25
 396 658 396 658 338 658 c 0,26,27
 309 658 309 658 281 650 c 128,-1,28
 253 642 253 642 228.5 628.5 c 128,-1,29
 204 615 204 615 184 596.5 c 128,-1,30
 164 578 164 578 151 557 c 1,31,-1
 114 603 l 1,32,33
 133 630 133 630 160 651.5 c 128,-1,34
 187 673 187 673 218.5 688 c 128,-1,35
 250 703 250 703 284.5 711 c 128,-1,36
 319 719 319 719 353 719 c 0,37,38
 396 719 396 719 430.5 706.5 c 128,-1,39
 465 694 465 694 489.5 672 c 128,-1,40
 514 650 514 650 527 619 c 128,-1,41
 540 588 540 588 540 551 c 0,42,43
 540 484 540 484 497 434.5 c 128,-1,44
 454 385 454 385 370 365 c 1,45,46
 425 354 425 354 455.5 313 c 128,-1,47
 486 272 486 272 486 216 c 0,48,49
 486 165 486 165 461.5 123.5 c 128,-1,50
 437 82 437 82 397.5 52.5 c 128,-1,51
 358 23 358 23 308 7 c 128,-1,52
 258 -9 258 -9 206 -9 c 0,0,1
EndSplineSet
Substitution2: "'lnum' Lining Figures in Latin lookup 3 subtable" three.lnum
Substitution2: "'aalt' Access All Alternates in Latin lookup 0 subtable" three.lnum
EndChar

StartChar: four
Encoding: 52 52 24
Width: 546
GlyphClass: 2
Flags: W
LayerCount: 2
Fore
SplineSet
292 0 m 1,0,-1
 332 190 l 1,1,-1
 3 190 l 1,2,-1
 17 251 l 1,3,-1
 464 710 l 1,4,-1
 511 710 l 1,5,-1
 414 252 l 1,6,-1
 498 252 l 1,7,-1
 484 190 l 1,8,-1
 400 190 l 1,9,-1
 360 0 l 1,10,-1
 292 0 l 1,0,-1
352 252 m 1,11,-1
 427 604 l 1,12,-1
 90 252 l 1,13,-1
 352 252 l 1,11,-1
EndSplineSet
Substitution2: "'lnum' Lining Figures in Latin lookup 3 subtable" four.lnum
Substitution2: "'aalt' Access All Alternates in Latin lookup 0 subtable" four.lnum
EndChar

StartChar: five
Encoding: 53 53 25
Width: 537
GlyphClass: 2
Flags: W
LayerCount: 2
Fore
SplineSet
192 -10 m 0,0,1
 120 -10 120 -10 70.5 27 c 128,-1,2
 21 64 21 64 4 127 c 1,3,-1
 56 161 l 1,4,5
 72 111 72 111 111.5 81.5 c 128,-1,6
 151 52 151 52 205 52 c 0,7,8
 245 52 245 52 282.5 67.5 c 128,-1,9
 320 83 320 83 348.5 110.5 c 128,-1,10
 377 138 377 138 394 175.5 c 128,-1,11
 411 213 411 213 411 256 c 0,12,13
 411 316 411 316 376 353.5 c 128,-1,14
 341 391 341 391 284 391 c 0,15,16
 240 391 240 391 196.5 370 c 128,-1,17
 153 349 153 349 121 311 c 1,18,-1
 58 311 l 1,19,20
 62 319 62 319 75 352 c 128,-1,21
 88 385 88 385 106 429.5 c 128,-1,22
 124 474 124 474 143.5 523.5 c 128,-1,23
 163 573 163 573 179.5 614.5 c 128,-1,24
 196 656 196 656 207 683 c 128,-1,25
 218 710 218 710 218 710 c 1,26,-1
 545 710 l 1,27,-1
 531 647 l 1,28,-1
 256 647 l 1,29,-1
 155 392 l 1,30,31
 186 421 186 421 224 436 c 128,-1,32
 262 451 262 451 304 451 c 0,33,34
 344 451 344 451 376.5 437.5 c 128,-1,35
 409 424 409 424 432.5 400 c 128,-1,36
 456 376 456 376 469 342.5 c 128,-1,37
 482 309 482 309 482 269 c 0,38,39
 482 209 482 209 457.5 157.5 c 128,-1,40
 433 106 433 106 392.5 69 c 128,-1,41
 352 32 352 32 300 11 c 128,-1,42
 248 -10 248 -10 192 -10 c 0,0,1
EndSplineSet
Substitution2: "'lnum' Lining Figures in Latin lookup 3 subtable" five.lnum
Substitution2: "'aalt' Access All Alternates in Latin lookup 0 subtable" five.lnum
EndChar

StartChar: six
Encoding: 54 54 26
Width: 588
GlyphClass: 2
Flags: W
LayerCount: 2
Fore
SplineSet
238 -10 m 0,0,1
 149 -10 149 -10 98.5 49.5 c 128,-1,2
 48 109 48 109 48 212 c 0,3,4
 48 311 48 311 73.5 402 c 128,-1,5
 99 493 99 493 145 562.5 c 128,-1,6
 191 632 191 632 256 673.5 c 128,-1,7
 321 715 321 715 399 715 c 0,8,9
 465 715 465 715 511 680 c 128,-1,10
 557 645 557 645 572 583 c 1,11,-1
 520 543 l 1,12,13
 510 594 510 594 474 624.5 c 128,-1,14
 438 655 438 655 385 655 c 0,15,16
 344 655 344 655 305.5 634 c 128,-1,17
 267 613 267 613 234.5 573.5 c 128,-1,18
 202 534 202 534 176.5 476 c 128,-1,19
 151 418 151 418 135 345 c 1,20,21
 152 374 152 374 175.5 398 c 128,-1,22
 199 422 199 422 227 439 c 128,-1,23
 255 456 255 456 285.5 465 c 128,-1,24
 316 474 316 474 348 474 c 0,25,26
 390 474 390 474 424.5 459 c 128,-1,27
 459 444 459 444 483 417.5 c 128,-1,28
 507 391 507 391 520.5 355 c 128,-1,29
 534 319 534 319 534 277 c 0,30,31
 534 219 534 219 509 167 c 128,-1,32
 484 115 484 115 443 75.5 c 128,-1,33
 402 36 402 36 348.5 13 c 128,-1,34
 295 -10 295 -10 238 -10 c 0,0,1
251 50 m 0,35,36
 291 50 291 50 330 67.5 c 128,-1,37
 369 85 369 85 399.5 115 c 128,-1,38
 430 145 430 145 448.5 184 c 128,-1,39
 467 223 467 223 467 266 c 0,40,41
 467 298 467 298 457 325.5 c 128,-1,42
 447 353 447 353 429 373.5 c 128,-1,43
 411 394 411 394 385.5 406 c 128,-1,44
 360 418 360 418 329 418 c 0,45,46
 288 418 288 418 249.5 400.5 c 128,-1,47
 211 383 211 383 180.5 353 c 128,-1,48
 150 323 150 323 131.5 284 c 128,-1,49
 113 245 113 245 113 202 c 0,50,51
 113 170 113 170 123 142.5 c 128,-1,52
 133 115 133 115 151.5 94.5 c 128,-1,53
 170 74 170 74 195.5 62 c 128,-1,54
 221 50 221 50 251 50 c 0,35,36
EndSplineSet
Substitution2: "'lnum' Lining Figures in Latin lookup 3 subtable" six.lnum
Substitution2: "'aalt' Access All Alternates in Latin lookup 0 subtable" six.lnum
EndChar

StartChar: seven
Encoding: 55 55 27
Width: 499
GlyphClass: 2
Flags: W
LayerCount: 2
Fore
SplineSet
459 647 m 1,0,-1
 99 647 l 1,1,-1
 112 710 l 1,2,-1
 581 710 l 1,3,-1
 88 0 l 1,4,-1
 12 0 l 1,5,-1
 459 647 l 1,0,-1
EndSplineSet
Substitution2: "'lnum' Lining Figures in Latin lookup 3 subtable" seven.lnum
Substitution2: "'aalt' Access All Alternates in Latin lookup 0 subtable" seven.lnum
EndChar

StartChar: eight
Encoding: 56 56 28
Width: 570
GlyphClass: 2
Flags: W
LayerCount: 2
Fore
SplineSet
502 229 m 0,0,1
 502 176 502 176 477.5 132.5 c 128,-1,2
 453 89 453 89 413 58 c 128,-1,3
 373 27 373 27 322 9.5 c 128,-1,4
 271 -8 271 -8 217 -8 c 0,5,6
 173 -8 173 -8 137 5.5 c 128,-1,7
 101 19 101 19 76 42.5 c 128,-1,8
 51 66 51 66 37.5 98 c 128,-1,9
 24 130 24 130 24 167 c 0,10,11
 24 209 24 209 40.5 243.5 c 128,-1,12
 57 278 57 278 82.5 305 c 128,-1,13
 108 332 108 332 139 350.5 c 128,-1,14
 170 369 170 369 200 380 c 1,15,16
 165 397 165 397 142 429 c 128,-1,17
 119 461 119 461 119 504 c 0,18,19
 119 553 119 553 143 591 c 128,-1,20
 167 629 167 629 203.5 655.5 c 128,-1,21
 240 682 240 682 285 696 c 128,-1,22
 330 710 330 710 372 710 c 0,23,24
 406 710 406 710 438 700 c 128,-1,25
 470 690 470 690 495 671 c 128,-1,26
 520 652 520 652 535 623.5 c 128,-1,27
 550 595 550 595 550 559 c 0,28,29
 550 526 550 526 537.5 498.5 c 128,-1,30
 525 471 525 471 504 448.5 c 128,-1,31
 483 426 483 426 456.5 408.5 c 128,-1,32
 430 391 430 391 402 380 c 1,33,34
 445 363 445 363 473.5 323 c 128,-1,35
 502 283 502 283 502 229 c 0,0,1
433 227 m 0,36,37
 433 256 433 256 421 279 c 128,-1,38
 409 302 409 302 389.5 318 c 128,-1,39
 370 334 370 334 345 342.5 c 128,-1,40
 320 351 320 351 294 351 c 0,41,42
 260 351 260 351 224.5 338.5 c 128,-1,43
 189 326 189 326 160.5 303 c 128,-1,44
 132 280 132 280 113.5 248 c 128,-1,45
 95 216 95 216 95 177 c 0,46,47
 95 148 95 148 106.5 125 c 128,-1,48
 118 102 118 102 137.5 86 c 128,-1,49
 157 70 157 70 182 61.5 c 128,-1,50
 207 53 207 53 233 53 c 0,51,52
 267 53 267 53 302.5 65.5 c 128,-1,53
 338 78 338 78 367 101 c 128,-1,54
 396 124 396 124 414.5 156 c 128,-1,55
 433 188 433 188 433 227 c 0,36,37
187 507 m 0,56,57
 187 483 187 483 197.5 464 c 128,-1,58
 208 445 208 445 225 432 c 128,-1,59
 242 419 242 419 263.5 412 c 128,-1,60
 285 405 285 405 307 405 c 0,61,62
 334 405 334 405 364.5 414.5 c 128,-1,63
 395 424 395 424 420.5 442.5 c 128,-1,64
 446 461 446 461 462.5 487.5 c 128,-1,65
 479 514 479 514 479 548 c 0,66,67
 479 572 479 572 469.5 590.5 c 128,-1,68
 460 609 460 609 443.5 621.5 c 128,-1,69
 427 634 427 634 405 641 c 128,-1,70
 383 648 383 648 358 648 c 0,71,72
 327 648 327 648 296.5 638 c 128,-1,73
 266 628 266 628 241.5 609.5 c 128,-1,74
 217 591 217 591 202 565 c 128,-1,75
 187 539 187 539 187 507 c 0,56,57
EndSplineSet
Substitution2: "'lnum' Lining Figures in Latin lookup 3 subtable" eight.lnum
Substitution2: "'aalt' Access All Alternates in Latin lookup 0 subtable" eight.lnum
EndChar

StartChar: nine
Encoding: 57 57 29
Width: 588
GlyphClass: 2
Flags: W
LayerCount: 2
Fore
SplineSet
76 428 m 0,0,1
 76 486 76 486 101 538 c 128,-1,2
 126 590 126 590 167 629.5 c 128,-1,3
 208 669 208 669 262 692 c 128,-1,4
 316 715 316 715 373 715 c 0,5,6
 461 715 461 715 512 656 c 128,-1,7
 563 597 563 597 563 493 c 0,8,9
 563 394 563 394 537.5 303.5 c 128,-1,10
 512 213 512 213 465.5 143 c 128,-1,11
 419 73 419 73 354.5 31.5 c 128,-1,12
 290 -10 290 -10 212 -10 c 0,13,14
 146 -10 146 -10 100 25 c 128,-1,15
 54 60 54 60 39 123 c 1,16,-1
 90 162 l 1,17,18
 99 111 99 111 135.5 81 c 128,-1,19
 172 51 172 51 225 51 c 0,20,21
 267 51 267 51 305 71.5 c 128,-1,22
 343 92 343 92 375.5 132 c 128,-1,23
 408 172 408 172 433.5 229 c 128,-1,24
 459 286 459 286 475 360 c 1,25,26
 458 331 458 331 434.5 307 c 128,-1,27
 411 283 411 283 383.5 266 c 128,-1,28
 356 249 356 249 325 240 c 128,-1,29
 294 231 294 231 263 231 c 0,30,31
 221 231 221 231 186.5 246 c 128,-1,32
 152 261 152 261 127.5 287.5 c 128,-1,33
 103 314 103 314 89.5 350 c 128,-1,34
 76 386 76 386 76 428 c 0,0,1
359 656 m 0,35,36
 319 656 319 656 280 638.5 c 128,-1,37
 241 621 241 621 210.5 591 c 128,-1,38
 180 561 180 561 161.5 521.5 c 128,-1,39
 143 482 143 482 143 439 c 0,40,41
 143 407 143 407 153 379.5 c 128,-1,42
 163 352 163 352 181.5 331.5 c 128,-1,43
 200 311 200 311 225.5 299 c 128,-1,44
 251 287 251 287 282 287 c 0,45,46
 322 287 322 287 361 304.5 c 128,-1,47
 400 322 400 322 430.5 352 c 128,-1,48
 461 382 461 382 480 421 c 128,-1,49
 499 460 499 460 499 503 c 0,50,51
 499 535 499 535 488.5 563 c 128,-1,52
 478 591 478 591 459.5 611.5 c 128,-1,53
 441 632 441 632 415.5 644 c 128,-1,54
 390 656 390 656 359 656 c 0,35,36
EndSplineSet
Substitution2: "'lnum' Lining Figures in Latin lookup 3 subtable" nine.lnum
Substitution2: "'aalt' Access All Alternates in Latin lookup 0 subtable" nine.lnum
EndChar

StartChar: colon
Encoding: 58 58 30
Width: 185
GlyphClass: 2
Flags: W
LayerCount: 2
Fore
SplineSet
88 420 m 1,0,-1
 109 518 l 1,1,-1
 167 518 l 1,2,-1
 146 420 l 1,3,-1
 88 420 l 1,0,-1
-1 0 m 1,4,-1
 21 98 l 1,5,-1
 78 98 l 1,6,-1
 57 0 l 1,7,-1
 -1 0 l 1,4,-1
EndSplineSet
EndChar

StartChar: semicolon
Encoding: 59 59 31
Width: 190
GlyphClass: 2
Flags: W
LayerCount: 2
Fore
SplineSet
90 420 m 1,0,-1
 110 518 l 1,1,-1
 168 518 l 1,2,-1
 147 420 l 1,3,-1
 90 420 l 1,0,-1
-10 -81 m 1,4,-1
 24 3 l 1,5,-1
 1 3 l 1,6,-1
 21 98 l 1,7,-1
 86 98 l 1,8,-1
 66 3 l 1,9,-1
 24 -81 l 1,10,-1
 -10 -81 l 1,4,-1
EndSplineSet
EndChar

StartChar: less
Encoding: 60 60 32
Width: 545
GlyphClass: 2
Flags: W
LayerCount: 2
Fore
SplineSet
30 276 m 1,0,-1
 449 528 l 1,1,-1
 449 455 l 1,2,-1
 129 259 l 1,3,-1
 449 64 l 1,4,-1
 449 -11 l 1,5,-1
 30 239 l 1,6,-1
 30 276 l 1,0,-1
EndSplineSet
EndChar

StartChar: equal
Encoding: 61 61 33
Width: 471
GlyphClass: 2
Flags: W
LayerCount: 2
Fore
SplineSet
79 194 m 1,0,-1
 79 243 l 1,1,-1
 380 243 l 1,2,-1
 380 194 l 1,3,-1
 79 194 l 1,0,-1
79 309 m 1,4,-1
 79 358 l 1,5,-1
 380 358 l 1,6,-1
 380 309 l 1,7,-1
 79 309 l 1,4,-1
EndSplineSet
EndChar

StartChar: greater
Encoding: 62 62 34
Width: 545
GlyphClass: 2
Flags: W
LayerCount: 2
Fore
SplineSet
496 239 m 1,0,-1
 77 -11 l 1,1,-1
 77 64 l 1,2,-1
 397 259 l 1,3,-1
 77 455 l 1,4,-1
 77 528 l 1,5,-1
 496 276 l 1,6,-1
 496 239 l 1,0,-1
EndSplineSet
EndChar

StartChar: question
Encoding: 63 63 35
Width: 458
GlyphClass: 2
Flags: W
LayerCount: 2
Fore
SplineSet
124 202 m 1,0,1
 138 268 138 268 165.5 307 c 128,-1,2
 193 346 193 346 240 372 c 0,3,4
 264 386 264 386 294 400 c 128,-1,5
 324 414 324 414 349.5 434.5 c 128,-1,6
 375 455 375 455 392.5 484.5 c 128,-1,7
 410 514 410 514 410 559 c 0,8,9
 410 610 410 610 379.5 636 c 128,-1,10
 349 662 349 662 307 662 c 0,11,12
 282 662 282 662 257.5 654 c 128,-1,13
 233 646 233 646 210.5 632.5 c 128,-1,14
 188 619 188 619 169 600 c 128,-1,15
 150 581 150 581 135 560 c 1,16,-1
 95 590 l 1,17,18
 114 621 114 621 140.5 645 c 128,-1,19
 167 669 167 669 196.5 685.5 c 128,-1,20
 226 702 226 702 257.5 710.5 c 128,-1,21
 289 719 289 719 320 719 c 256,22,23
 351 719 351 719 378.5 709.5 c 128,-1,24
 406 700 406 700 427 681.5 c 128,-1,25
 448 663 448 663 460 634.5 c 128,-1,26
 472 606 472 606 472 568 c 0,27,28
 472 518 472 518 458 484 c 128,-1,29
 444 450 444 450 420 426 c 128,-1,30
 396 402 396 402 365 384.5 c 128,-1,31
 334 367 334 367 301 350 c 0,32,33
 282 340 282 340 264 329.5 c 128,-1,34
 246 319 246 319 230.5 302.5 c 128,-1,35
 215 286 215 286 202.5 262 c 128,-1,36
 190 238 190 238 182 202 c 1,37,-1
 124 202 l 1,0,1
83 0 m 1,38,-1
 106 107 l 1,39,-1
 163 107 l 1,40,-1
 141 0 l 1,41,-1
 83 0 l 1,38,-1
EndSplineSet
EndChar

StartChar: at
Encoding: 64 64 36
Width: 803
GlyphClass: 2
Flags: W
LayerCount: 2
Fore
SplineSet
560 21 m 0,0,1
 592 21 592 21 619 49 c 128,-1,2
 646 77 646 77 665.5 119 c 128,-1,3
 685 161 685 161 695.5 210 c 128,-1,4
 706 259 706 259 706 301 c 0,5,6
 706 354 706 354 689 402.5 c 128,-1,7
 672 451 672 451 639.5 488 c 128,-1,8
 607 525 607 525 559.5 547 c 128,-1,9
 512 569 512 569 451 569 c 0,10,11
 377 569 377 569 307 537 c 128,-1,12
 237 505 237 505 182 449.5 c 128,-1,13
 127 394 127 394 93.5 320 c 128,-1,14
 60 246 60 246 60 162 c 0,15,16
 60 103 60 103 77.5 53 c 128,-1,17
 95 3 95 3 127 -33.5 c 128,-1,18
 159 -70 159 -70 205.5 -91 c 128,-1,19
 252 -112 252 -112 309 -112 c 0,20,21
 349 -112 349 -112 385.5 -102 c 128,-1,22
 422 -92 422 -92 461 -74 c 1,23,-1
 466 -106 l 1,24,25
 424 -126 424 -126 381.5 -136 c 128,-1,26
 339 -146 339 -146 299 -146 c 0,27,28
 239 -146 239 -146 188.5 -123.5 c 128,-1,29
 138 -101 138 -101 101.5 -60.5 c 128,-1,30
 65 -20 65 -20 45 36 c 128,-1,31
 25 92 25 92 25 159 c 0,32,33
 25 222 25 222 43 279.5 c 128,-1,34
 61 337 61 337 91.5 386.5 c 128,-1,35
 122 436 122 436 164 476 c 128,-1,36
 206 516 206 516 254.5 544 c 128,-1,37
 303 572 303 572 355 587.5 c 128,-1,38
 407 603 407 603 459 603 c 0,39,40
 525 603 525 603 577 579.5 c 128,-1,41
 629 556 629 556 665.5 515.5 c 128,-1,42
 702 475 702 475 721.5 422 c 128,-1,43
 741 369 741 369 741 311 c 0,44,45
 741 268 741 268 730 211.5 c 128,-1,46
 719 155 719 155 695.5 104.5 c 128,-1,47
 672 54 672 54 635.5 19 c 128,-1,48
 599 -16 599 -16 548 -16 c 0,49,50
 519 -16 519 -16 502 -1.5 c 128,-1,51
 485 13 485 13 485 48 c 0,52,53
 485 54 485 54 485 61 c 128,-1,54
 485 68 485 68 487 76 c 1,55,56
 454 44 454 44 410 23.5 c 128,-1,57
 366 3 366 3 321 3 c 0,58,59
 286 3 286 3 257.5 17 c 128,-1,60
 229 31 229 31 209 55.5 c 128,-1,61
 189 80 189 80 178.5 112.5 c 128,-1,62
 168 145 168 145 168 183 c 0,63,64
 168 236 168 236 188 285.5 c 128,-1,65
 208 335 208 335 241.5 372.5 c 128,-1,66
 275 410 275 410 318.5 432.5 c 128,-1,67
 362 455 362 455 409 455 c 0,68,69
 460 455 460 455 494 429.5 c 128,-1,70
 528 404 528 404 543 362 c 1,71,-1
 561 450 l 1,72,-1
 606 450 l 1,73,-1
 531 99 l 2,74,75
 528 85 528 85 527 75.5 c 128,-1,76
 526 66 526 66 526 60 c 0,77,78
 526 21 526 21 560 21 c 0,0,1
341 44 m 0,79,80
 365 44 365 44 389.5 53 c 128,-1,81
 414 62 414 62 436 77.5 c 128,-1,82
 458 93 458 93 474.5 113 c 128,-1,83
 491 133 491 133 500 156 c 1,84,-1
 529 310 l 1,85,86
 514 363 514 363 481.5 388 c 128,-1,87
 449 413 449 413 407 413 c 0,88,89
 372 413 372 413 338 395.5 c 128,-1,90
 304 378 304 378 277 348.5 c 128,-1,91
 250 319 250 319 233 279.5 c 128,-1,92
 216 240 216 240 216 195 c 0,93,94
 216 162 216 162 225.5 134.5 c 128,-1,95
 235 107 235 107 252 86.5 c 128,-1,96
 269 66 269 66 291.5 55 c 128,-1,97
 314 44 314 44 341 44 c 0,79,80
EndSplineSet
EndChar

StartChar: A
Encoding: 65 65 37
Width: 651
GlyphClass: 2
Flags: W
LayerCount: 2
Fore
SplineSet
386 710 m 1,0,-1
 446 710 l 1,1,-1
 574 0 l 1,2,-1
 500 0 l 1,3,-1
 461 222 l 1,4,-1
 162 222 l 1,5,-1
 30 0 l 1,6,-1
 -45 0 l 1,7,-1
 386 710 l 1,0,-1
457 277 m 1,8,-1
 399 628 l 1,9,-1
 188 277 l 1,10,-1
 457 277 l 1,8,-1
EndSplineSet
EndChar

StartChar: B
Encoding: 66 66 38
Width: 641
GlyphClass: 2
Flags: W
LayerCount: 2
Fore
SplineSet
175 710 m 1,0,-1
 501 710 l 2,1,2
 531 710 531 710 553.5 697.5 c 128,-1,3
 576 685 576 685 591 665 c 128,-1,4
 606 645 606 645 613.5 619 c 128,-1,5
 621 593 621 593 621 565 c 0,6,7
 621 533 621 533 611 502.5 c 128,-1,8
 601 472 601 472 583 445.5 c 128,-1,9
 565 419 565 419 539.5 398 c 128,-1,10
 514 377 514 377 484 364 c 1,11,12
 529 349 529 349 552.5 310 c 128,-1,13
 576 271 576 271 576 220 c 0,14,15
 576 172 576 172 556 132 c 128,-1,16
 536 92 536 92 503.5 62.5 c 128,-1,17
 471 33 471 33 429 16.5 c 128,-1,18
 387 0 387 0 342 0 c 2,19,-1
 24 0 l 1,20,-1
 175 710 l 1,0,-1
355 61 m 2,21,22
 384 61 384 61 411.5 74.5 c 128,-1,23
 439 88 439 88 460 110.5 c 128,-1,24
 481 133 481 133 494 161.5 c 128,-1,25
 507 190 507 190 507 221 c 0,26,27
 507 243 507 243 501 263 c 128,-1,28
 495 283 495 283 483.5 298 c 128,-1,29
 472 313 472 313 456 321.5 c 128,-1,30
 440 330 440 330 419 330 c 2,31,-1
 163 330 l 1,32,-1
 106 61 l 1,33,-1
 355 61 l 2,21,22
405 387 m 2,34,35
 433 387 433 387 459 400.5 c 128,-1,36
 485 414 485 414 505 436 c 128,-1,37
 525 458 525 458 537 486.5 c 128,-1,38
 549 515 549 515 549 546 c 0,39,40
 549 589 549 589 527 619 c 128,-1,41
 505 649 505 649 466 649 c 2,42,-1
 231 649 l 1,43,-1
 175 387 l 1,44,-1
 405 387 l 2,34,35
EndSplineSet
EndChar

StartChar: C
Encoding: 67 67 39
Width: 656
GlyphClass: 2
Flags: W
LayerCount: 2
Fore
SplineSet
294 -6 m 0,0,1
 235 -6 235 -6 189 19.5 c 128,-1,2
 143 45 143 45 111.5 87 c 128,-1,3
 80 129 80 129 63.5 183 c 128,-1,4
 47 237 47 237 47 294 c 0,5,6
 47 367 47 367 77.5 441.5 c 128,-1,7
 108 516 108 516 162 576.5 c 128,-1,8
 216 637 216 637 290 675.5 c 128,-1,9
 364 714 364 714 452 714 c 0,10,11
 543 714 543 714 597.5 671 c 128,-1,12
 652 628 652 628 669 559 c 1,13,-1
 606 525 l 1,14,15
 597 560 597 560 579.5 584 c 128,-1,16
 562 608 562 608 539 623 c 128,-1,17
 516 638 516 638 489 644.5 c 128,-1,18
 462 651 462 651 435 651 c 0,19,20
 365 651 365 651 306.5 618.5 c 128,-1,21
 248 586 248 586 206 534.5 c 128,-1,22
 164 483 164 483 140.5 420 c 128,-1,23
 117 357 117 357 117 297 c 0,24,25
 117 248 117 248 130.5 204.5 c 128,-1,26
 144 161 144 161 169 128 c 128,-1,27
 194 95 194 95 230 76 c 128,-1,28
 266 57 266 57 311 57 c 0,29,30
 339 57 339 57 370.5 64.5 c 128,-1,31
 402 72 402 72 433 88.5 c 128,-1,32
 464 105 464 105 493 129.5 c 128,-1,33
 522 154 522 154 545 189 c 1,34,-1
 597 159 l 1,35,36
 572 119 572 119 536.5 88.5 c 128,-1,37
 501 58 501 58 460 37 c 128,-1,38
 419 16 419 16 376 5 c 128,-1,39
 333 -6 333 -6 294 -6 c 0,0,1
EndSplineSet
EndChar

StartChar: D
Encoding: 68 68 40
Width: 690
GlyphClass: 2
Flags: W
LayerCount: 2
Fore
SplineSet
175 710 m 1,0,-1
 405 710 l 2,1,2
 471 710 471 710 520 689 c 128,-1,3
 569 668 569 668 601 631 c 128,-1,4
 633 594 633 594 648.5 544.5 c 128,-1,5
 664 495 664 495 664 438 c 0,6,7
 664 344 664 344 633 263.5 c 128,-1,8
 602 183 602 183 547 124.5 c 128,-1,9
 492 66 492 66 417 33 c 128,-1,10
 342 0 342 0 254 0 c 2,11,-1
 24 0 l 1,12,-1
 175 710 l 1,0,-1
267 62 m 2,13,14
 342 62 342 62 402.5 92 c 128,-1,15
 463 122 463 122 505 172.5 c 128,-1,16
 547 223 547 223 569.5 289 c 128,-1,17
 592 355 592 355 592 427 c 0,18,19
 592 475 592 475 579.5 516 c 128,-1,20
 567 557 567 557 541.5 586 c 128,-1,21
 516 615 516 615 478.5 631.5 c 128,-1,22
 441 648 441 648 391 648 c 2,23,-1
 231 648 l 1,24,-1
 106 62 l 1,25,-1
 267 62 l 2,13,14
EndSplineSet
EndChar

StartChar: E
Encoding: 69 69 41
Width: 582
GlyphClass: 2
Flags: W
LayerCount: 2
Fore
SplineSet
175 710 m 1,0,-1
 620 710 l 1,1,-1
 607 648 l 1,2,-1
 231 648 l 1,3,-1
 176 392 l 1,4,-1
 504 392 l 1,5,-1
 492 333 l 1,6,-1
 164 333 l 1,7,-1
 106 62 l 1,8,-1
 491 62 l 1,9,-1
 478 0 l 1,10,-1
 24 0 l 1,11,-1
 175 710 l 1,0,-1
EndSplineSet
EndChar

StartChar: F
Encoding: 70 70 42
Width: 572
GlyphClass: 2
Flags: W
LayerCount: 2
Fore
SplineSet
175 710 m 1,0,-1
 617 710 l 1,1,-1
 604 648 l 1,2,-1
 231 648 l 1,3,-1
 176 387 l 1,4,-1
 491 387 l 1,5,-1
 478 329 l 1,6,-1
 163 329 l 1,7,-1
 93 0 l 1,8,-1
 24 0 l 1,9,-1
 175 710 l 1,0,-1
EndSplineSet
EndChar

StartChar: G
Encoding: 71 71 43
Width: 687
GlyphClass: 2
Flags: W
LayerCount: 2
Fore
SplineSet
532 103 m 1,0,1
 417 -5 417 -5 295 -5 c 0,2,3
 237 -5 237 -5 191 19.5 c 128,-1,4
 145 44 145 44 113 85.5 c 128,-1,5
 81 127 81 127 64 180.5 c 128,-1,6
 47 234 47 234 47 292 c 0,7,8
 47 372 47 372 80 448 c 128,-1,9
 113 524 113 524 168.5 583.5 c 128,-1,10
 224 643 224 643 295.5 679 c 128,-1,11
 367 715 367 715 445 715 c 0,12,13
 494 715 494 715 532 703.5 c 128,-1,14
 570 692 570 692 598 671.5 c 128,-1,15
 626 651 626 651 643.5 622.5 c 128,-1,16
 661 594 661 594 670 560 c 1,17,-1
 608 524 l 1,18,19
 590 590 590 590 543.5 621 c 128,-1,20
 497 652 497 652 430 652 c 0,21,22
 366 652 366 652 309 620.5 c 128,-1,23
 252 589 252 589 209.5 538 c 128,-1,24
 167 487 167 487 142 423.5 c 128,-1,25
 117 360 117 360 117 296 c 0,26,27
 117 247 117 247 131 204 c 128,-1,28
 145 161 145 161 170.5 128.5 c 128,-1,29
 196 96 196 96 232 77 c 128,-1,30
 268 58 268 58 313 58 c 0,31,32
 370 58 370 58 428 86.5 c 128,-1,33
 486 115 486 115 547 176 c 1,34,-1
 573 295 l 1,35,-1
 425 295 l 1,36,-1
 436 349 l 1,37,-1
 644 349 l 1,38,-1
 570 0 l 1,39,-1
 510 0 l 1,40,-1
 532 103 l 1,0,1
EndSplineSet
Substitution2: "'ss01' Style Set 1 in Latin lookup 8 subtable" G.alt
Substitution2: "'salt' Stylistic Alternatives in Latin lookup 5 subtable" G.alt
Substitution2: "'aalt' Access All Alternates in Latin lookup 0 subtable" G.alt
EndChar

StartChar: H
Encoding: 72 72 44
Width: 709
GlyphClass: 2
Flags: W
LayerCount: 2
Fore
SplineSet
175 710 m 1,0,-1
 244 710 l 1,1,-1
 177 394 l 1,2,-1
 572 394 l 1,3,-1
 639 710 l 1,4,-1
 709 710 l 1,5,-1
 558 0 l 1,6,-1
 488 0 l 1,7,-1
 559 332 l 1,8,-1
 164 332 l 1,9,-1
 93 0 l 1,10,-1
 24 0 l 1,11,-1
 175 710 l 1,0,-1
EndSplineSet
EndChar

StartChar: I
Encoding: 73 73 45
Width: 245
GlyphClass: 2
Flags: W
LayerCount: 2
Fore
SplineSet
175 709 m 1,0,-1
 244 709 l 1,1,-1
 93 0 l 1,2,-1
 24 0 l 1,3,-1
 175 709 l 1,0,-1
EndSplineSet
EndChar

StartChar: J
Encoding: 74 74 46
Width: 468
GlyphClass: 2
Flags: W
LayerCount: 2
Fore
SplineSet
100 -11 m 0,0,1
 15 -11 15 -11 -37 33 c 1,2,-1
 -6 89 l 1,3,4
 11 74 11 74 41.5 63 c 128,-1,5
 72 52 72 52 113 52 c 0,6,7
 164 52 164 52 198.5 71.5 c 128,-1,8
 233 91 233 91 257 129 c 128,-1,9
 281 167 281 167 297.5 222.5 c 128,-1,10
 314 278 314 278 329 349 c 2,11,-1
 406 709 l 1,12,-1
 476 709 l 1,13,-1
 399 349 l 2,14,15
 382 268 382 268 361 201.5 c 128,-1,16
 340 135 340 135 306.5 88 c 128,-1,17
 273 41 273 41 223.5 15 c 128,-1,18
 174 -11 174 -11 100 -11 c 0,0,1
EndSplineSet
EndChar

StartChar: K
Encoding: 75 75 47
Width: 615
GlyphClass: 2
Flags: W
LayerCount: 2
Fore
SplineSet
175 709 m 1,0,-1
 244 709 l 1,1,-1
 156 297 l 1,2,-1
 611 710 l 1,3,-1
 689 710 l 1,4,-1
 347 398 l 1,5,-1
 552 0 l 1,6,-1
 474 0 l 1,7,-1
 295 357 l 1,8,-1
 140 218 l 1,9,-1
 93 0 l 1,10,-1
 24 0 l 1,11,-1
 175 709 l 1,0,-1
EndSplineSet
EndChar

StartChar: L
Encoding: 76 76 48
Width: 557
GlyphClass: 2
Flags: W
LayerCount: 2
Fore
SplineSet
175 710 m 1,0,-1
 244 710 l 1,1,-1
 106 62 l 1,2,-1
 494 62 l 1,3,-1
 481 0 l 1,4,-1
 24 0 l 1,5,-1
 175 710 l 1,0,-1
EndSplineSet
EndChar

StartChar: M
Encoding: 77 77 49
Width: 840
GlyphClass: 2
Flags: W
LayerCount: 2
Fore
SplineSet
175 710 m 1,0,-1
 247 710 l 1,1,-1
 404 224 l 1,2,-1
 768 710 l 1,3,-1
 840 710 l 1,4,-1
 689 0 l 1,5,-1
 619 0 l 1,6,-1
 743 583 l 1,7,-1
 405 132 l 1,8,-1
 364 132 l 1,9,-1
 218 583 l 1,10,-1
 93 0 l 1,11,-1
 24 0 l 1,12,-1
 175 710 l 1,0,-1
EndSplineSet
EndChar

StartChar: N
Encoding: 78 78 50
Width: 740
GlyphClass: 2
Flags: W
LayerCount: 2
Fore
SplineSet
175 710 m 1,0,-1
 229 710 l 1,1,-1
 545 119 l 1,2,-1
 670 709 l 1,3,-1
 739 709 l 1,4,-1
 588 0 l 1,5,-1
 529 0 l 1,6,-1
 216 580 l 1,7,-1
 93 0 l 1,8,-1
 24 0 l 1,9,-1
 175 710 l 1,0,-1
EndSplineSet
EndChar

StartChar: O
Encoding: 79 79 51
Width: 722
GlyphClass: 2
Flags: W
LayerCount: 2
Fore
SplineSet
296 -5 m 0,0,1
 236 -5 236 -5 189.5 19.5 c 128,-1,2
 143 44 143 44 111 84.5 c 128,-1,3
 79 125 79 125 62.5 178 c 128,-1,4
 46 231 46 231 46 288 c 0,5,6
 46 369 46 369 80 446 c 128,-1,7
 114 523 114 523 170.5 583 c 128,-1,8
 227 643 227 643 299.5 679 c 128,-1,9
 372 715 372 715 450 715 c 0,10,11
 510 715 510 715 556 690 c 128,-1,12
 602 665 602 665 633.5 624 c 128,-1,13
 665 583 665 583 681.5 530 c 128,-1,14
 698 477 698 477 698 420 c 0,15,16
 698 339 698 339 664.5 262.5 c 128,-1,17
 631 186 631 186 575 126.5 c 128,-1,18
 519 67 519 67 446.5 31 c 128,-1,19
 374 -5 374 -5 296 -5 c 0,0,1
310 58 m 0,20,21
 376 58 376 58 433.5 90 c 128,-1,22
 491 122 491 122 534.5 173.5 c 128,-1,23
 578 225 578 225 603 288.5 c 128,-1,24
 628 352 628 352 628 415 c 0,25,26
 628 462 628 462 615 505 c 128,-1,27
 602 548 602 548 577.5 580.5 c 128,-1,28
 553 613 553 613 517 632 c 128,-1,29
 481 651 481 651 436 651 c 0,30,31
 370 651 370 651 312 619 c 128,-1,32
 254 587 254 587 210.5 536 c 128,-1,33
 167 485 167 485 142 421.5 c 128,-1,34
 117 358 117 358 117 294 c 0,35,36
 117 247 117 247 129.5 204 c 128,-1,37
 142 161 142 161 167 128.5 c 128,-1,38
 192 96 192 96 227.5 77 c 128,-1,39
 263 58 263 58 310 58 c 0,20,21
EndSplineSet
EndChar

StartChar: P
Encoding: 80 80 52
Width: 599
GlyphClass: 2
Flags: W
LayerCount: 2
Fore
SplineSet
175 710 m 1,0,-1
 455 710 l 2,1,2
 492 710 492 710 521.5 694.5 c 128,-1,3
 551 679 551 679 571 653 c 128,-1,4
 591 627 591 627 602 593.5 c 128,-1,5
 613 560 613 560 613 525 c 0,6,7
 613 477 613 477 593 430 c 128,-1,8
 573 383 573 383 539 345.5 c 128,-1,9
 505 308 505 308 460 285 c 128,-1,10
 415 262 415 262 365 262 c 2,11,-1
 149 262 l 1,12,-1
 93 0 l 1,13,-1
 24 0 l 1,14,-1
 175 710 l 1,0,-1
374 324 m 2,15,16
 408 324 408 324 439 341 c 128,-1,17
 470 358 470 358 492.5 385.5 c 128,-1,18
 515 413 515 413 528.5 448 c 128,-1,19
 542 483 542 483 542 519 c 0,20,21
 542 546 542 546 534.5 569.5 c 128,-1,22
 527 593 527 593 513 610.5 c 128,-1,23
 499 628 499 628 479.5 638 c 128,-1,24
 460 648 460 648 437 648 c 2,25,-1
 231 648 l 1,26,-1
 162 324 l 1,27,-1
 374 324 l 2,15,16
EndSplineSet
EndChar

StartChar: Q
Encoding: 81 81 53
Width: 721
GlyphClass: 2
Flags: W
LayerCount: 2
Fore
SplineSet
495 59 m 1,0,1
 449 29 449 29 399 12 c 128,-1,2
 349 -5 349 -5 296 -5 c 0,3,4
 236 -5 236 -5 189.5 19.5 c 128,-1,5
 143 44 143 44 111 84.5 c 128,-1,6
 79 125 79 125 62.5 178 c 128,-1,7
 46 231 46 231 46 288 c 0,8,9
 46 369 46 369 80 446 c 128,-1,10
 114 523 114 523 170.5 583 c 128,-1,11
 227 643 227 643 300 679 c 128,-1,12
 373 715 373 715 451 715 c 0,13,14
 511 715 511 715 557 690 c 128,-1,15
 603 665 603 665 634.5 624 c 128,-1,16
 666 583 666 583 682 530 c 128,-1,17
 698 477 698 477 698 420 c 0,18,19
 698 374 698 374 686.5 329 c 128,-1,20
 675 284 675 284 654.5 242.5 c 128,-1,21
 634 201 634 201 605.5 163.5 c 128,-1,22
 577 126 577 126 542 96 c 1,23,-1
 601 0 l 1,24,-1
 531 0 l 1,25,-1
 495 59 l 1,0,1
310 58 m 0,26,27
 352 58 352 58 391 71.5 c 128,-1,28
 430 85 430 85 465 109 c 1,29,-1
 400 218 l 1,30,-1
 469 218 l 1,31,-1
 511 148 l 1,32,33
 565 201 565 201 596.5 272 c 128,-1,34
 628 343 628 343 628 415 c 0,35,36
 628 462 628 462 615 505 c 128,-1,37
 602 548 602 548 577.5 580.5 c 128,-1,38
 553 613 553 613 517 632.5 c 128,-1,39
 481 652 481 652 436 652 c 0,40,41
 370 652 370 652 312 620 c 128,-1,42
 254 588 254 588 210.5 537 c 128,-1,43
 167 486 167 486 142 422 c 128,-1,44
 117 358 117 358 117 294 c 0,45,46
 117 247 117 247 129.5 204 c 128,-1,47
 142 161 142 161 167 128.5 c 128,-1,48
 192 96 192 96 227.5 77 c 128,-1,49
 263 58 263 58 310 58 c 0,26,27
EndSplineSet
EndChar

StartChar: R
Encoding: 82 82 54
Width: 628
GlyphClass: 2
Flags: W
LayerCount: 2
Fore
SplineSet
24 0 m 1,0,-1
 175 710 l 1,1,-1
 460 710 l 2,2,3
 497 710 497 710 527 694.5 c 128,-1,4
 557 679 557 679 577 653 c 128,-1,5
 597 627 597 627 608 593.5 c 128,-1,6
 619 560 619 560 619 525 c 0,7,8
 619 482 619 482 603 440.5 c 128,-1,9
 587 399 587 399 560 365 c 128,-1,10
 533 331 533 331 496.5 306.5 c 128,-1,11
 460 282 460 282 419 274 c 1,12,-1
 526 0 l 1,13,-1
 447 0 l 1,14,-1
 345 262 l 1,15,-1
 149 262 l 1,16,-1
 93 0 l 1,17,-1
 24 0 l 1,0,-1
381 324 m 2,18,19
 415 324 415 324 445.5 341 c 128,-1,20
 476 358 476 358 498.5 385.5 c 128,-1,21
 521 413 521 413 534 447.5 c 128,-1,22
 547 482 547 482 547 517 c 0,23,24
 547 544 547 544 539.5 567.5 c 128,-1,25
 532 591 532 591 518.5 609 c 128,-1,26
 505 627 505 627 485.5 637.5 c 128,-1,27
 466 648 466 648 443 648 c 2,28,-1
 231 648 l 1,29,-1
 162 324 l 1,30,-1
 381 324 l 2,18,19
EndSplineSet
EndChar

StartChar: S
Encoding: 83 83 55
Width: 585
GlyphClass: 2
Flags: W
LayerCount: 2
Fore
SplineSet
241 -6 m 0,0,1
 82 -6 82 -6 -9 97 c 1,2,-1
 38 154 l 1,3,4
 65 113 65 113 121.5 84.5 c 128,-1,5
 178 56 178 56 256 56 c 0,6,7
 347 56 347 56 400 93.5 c 128,-1,8
 453 131 453 131 453 202 c 0,9,10
 453 228 453 228 441.5 246.5 c 128,-1,11
 430 265 430 265 407.5 279.5 c 128,-1,12
 385 294 385 294 353 304.5 c 128,-1,13
 321 315 321 315 279 326 c 0,14,15
 236 337 236 337 202.5 349.5 c 128,-1,16
 169 362 169 362 146 379 c 128,-1,17
 123 396 123 396 111 419.5 c 128,-1,18
 99 443 99 443 99 475 c 0,19,20
 99 531 99 531 121.5 575.5 c 128,-1,21
 144 620 144 620 183 651 c 128,-1,22
 222 682 222 682 274.5 698.5 c 128,-1,23
 327 715 327 715 388 715 c 0,24,25
 455 715 455 715 504.5 693.5 c 128,-1,26
 554 672 554 672 587 633 c 1,27,-1
 542 577 l 1,28,29
 522 611 522 611 478 632 c 128,-1,30
 434 653 434 653 374 653 c 0,31,32
 322 653 322 653 284.5 641 c 128,-1,33
 247 629 247 629 222.5 608 c 128,-1,34
 198 587 198 587 186.5 558.5 c 128,-1,35
 175 530 175 530 175 497 c 0,36,37
 175 473 175 473 185 456 c 128,-1,38
 195 439 195 439 215 426.5 c 128,-1,39
 235 414 235 414 265 404.5 c 128,-1,40
 295 395 295 395 335 385 c 0,41,42
 379 374 379 374 415 361.5 c 128,-1,43
 451 349 451 349 476.5 330.5 c 128,-1,44
 502 312 502 312 516 286 c 128,-1,45
 530 260 530 260 530 223 c 0,46,47
 530 166 530 166 507.5 123 c 128,-1,48
 485 80 485 80 446 51.5 c 128,-1,49
 407 23 407 23 354.5 8.5 c 128,-1,50
 302 -6 302 -6 241 -6 c 0,0,1
EndSplineSet
EndChar

StartChar: T
Encoding: 84 84 56
Width: 582
GlyphClass: 2
Flags: W
LayerCount: 2
Fore
SplineSet
328 648 m 1,0,-1
 90 648 l 1,1,-1
 103 710 l 1,2,-1
 650 710 l 1,3,-1
 637 648 l 1,4,-1
 398 648 l 1,5,-1
 260 0 l 1,6,-1
 191 0 l 1,7,-1
 328 648 l 1,0,-1
EndSplineSet
EndChar

StartChar: U
Encoding: 85 85 57
Width: 724
GlyphClass: 2
Flags: W
LayerCount: 2
Fore
SplineSet
298 -5 m 0,0,1
 236 -5 236 -5 193 13.5 c 128,-1,2
 150 32 150 32 124 64 c 128,-1,3
 98 96 98 96 86.5 138.5 c 128,-1,4
 75 181 75 181 75 230 c 0,5,6
 75 287 75 287 89 352 c 2,7,-1
 165 710 l 1,8,-1
 234 710 l 1,9,-1
 158 352 l 2,10,11
 152 323 152 323 148.5 295.5 c 128,-1,12
 145 268 145 268 145 242 c 0,13,14
 145 203 145 203 153.5 169.5 c 128,-1,15
 162 136 162 136 181.5 111.5 c 128,-1,16
 201 87 201 87 232.5 72.5 c 128,-1,17
 264 58 264 58 310 58 c 0,18,19
 373 58 373 58 420.5 83.5 c 128,-1,20
 468 109 468 109 501.5 150.5 c 128,-1,21
 535 192 535 192 556 245 c 128,-1,22
 577 298 577 298 588 352 c 2,23,-1
 664 710 l 1,24,-1
 733 710 l 1,25,-1
 658 352 l 2,26,27
 643 280 643 280 614 215 c 128,-1,28
 585 150 585 150 540.5 101.5 c 128,-1,29
 496 53 496 53 436 24 c 128,-1,30
 376 -5 376 -5 298 -5 c 0,0,1
EndSplineSet
EndChar

StartChar: V
Encoding: 86 86 58
Width: 648
GlyphClass: 2
Flags: W
LayerCount: 2
Fore
SplineSet
97 710 m 1,0,-1
 170 710 l 1,1,-1
 276 87 l 1,2,-1
 645 710 l 1,3,-1
 718 710 l 1,4,-1
 288 0 l 1,5,-1
 226 0 l 1,6,-1
 97 710 l 1,0,-1
EndSplineSet
EndChar

StartChar: W
Encoding: 87 87 59
Width: 997
GlyphClass: 2
Flags: W
LayerCount: 2
Fore
SplineSet
95 710 m 1,0,-1
 170 710 l 1,1,-1
 278 81 l 1,2,-1
 473 402 l 1,3,-1
 420 705 l 1,4,-1
 486 705 l 1,5,-1
 526 453 l 1,6,-1
 675 705 l 1,7,-1
 741 705 l 1,8,-1
 559 402 l 1,9,-1
 618 81 l 1,10,-1
 992 710 l 1,11,-1
 1069 710 l 1,12,-1
 632 0 l 1,13,-1
 572 0 l 1,14,-1
 506 351 l 1,15,-1
 290 0 l 1,16,-1
 229 0 l 1,17,-1
 95 710 l 1,0,-1
EndSplineSet
Substitution2: "'ss01' Style Set 1 in Latin lookup 8 subtable" W.alt
Substitution2: "'salt' Stylistic Alternatives in Latin lookup 5 subtable" W.alt
Substitution2: "'aalt' Access All Alternates in Latin lookup 0 subtable" W.alt
EndChar

StartChar: X
Encoding: 88 88 60
Width: 604
GlyphClass: 2
Flags: W
LayerCount: 2
Fore
SplineSet
274 350 m 1,0,-1
 92 710 l 1,1,-1
 171 710 l 1,2,-1
 324 400 l 1,3,-1
 608 710 l 1,4,-1
 685 710 l 1,5,-1
 350 350 l 1,6,-1
 526 0 l 1,7,-1
 449 0 l 1,8,-1
 302 300 l 1,9,-1
 28 0 l 1,10,-1
 -51 0 l 1,11,-1
 274 350 l 1,0,-1
EndSplineSet
EndChar

StartChar: Y
Encoding: 89 89 61
Width: 607
GlyphClass: 2
Flags: W
LayerCount: 2
Fore
SplineSet
257 266 m 1,0,-1
 91 710 l 1,1,-1
 168 710 l 1,2,-1
 305 328 l 1,3,-1
 605 710 l 1,4,-1
 681 710 l 1,5,-1
 325 264 l 1,6,-1
 269 0 l 1,7,-1
 200 0 l 1,8,-1
 257 266 l 1,0,-1
EndSplineSet
EndChar

StartChar: Z
Encoding: 90 90 62
Width: 596
GlyphClass: 2
Flags: W
LayerCount: 2
Fore
SplineSet
-24 55 m 1,0,-1
 556 648 l 1,1,-1
 110 648 l 1,2,-1
 123 710 l 1,3,-1
 651 710 l 1,4,-1
 639 655 l 1,5,-1
 65 62 l 1,6,-1
 512 62 l 1,7,-1
 499 0 l 1,8,-1
 -36 0 l 1,9,-1
 -24 55 l 1,0,-1
EndSplineSet
EndChar

StartChar: bracketleft
Encoding: 91 91 63
Width: 251
GlyphClass: 2
Flags: W
LayerCount: 2
Fore
SplineSet
14 -40 m 1,0,-1
 180 740 l 1,1,-1
 296 740 l 1,2,-1
 284 683 l 1,3,-1
 231 683 l 1,4,-1
 89 17 l 1,5,-1
 143 17 l 1,6,-1
 131 -40 l 1,7,-1
 14 -40 l 1,0,-1
EndSplineSet
EndChar

StartChar: backslash
Encoding: 92 92 64
Width: 534
GlyphClass: 2
Flags: W
LayerCount: 2
Fore
SplineSet
184 710 m 1,0,-1
 446 0 l 1,1,-1
 370 0 l 1,2,-1
 107 710 l 1,3,-1
 184 710 l 1,0,-1
EndSplineSet
EndChar

StartChar: bracketright
Encoding: 93 93 65
Width: 250
GlyphClass: 2
Flags: W
LayerCount: 2
Fore
SplineSet
-25 -40 m 1,0,-1
 -13 17 l 1,1,-1
 40 17 l 1,2,-1
 182 683 l 1,3,-1
 129 683 l 1,4,-1
 141 740 l 1,5,-1
 257 740 l 1,6,-1
 92 -40 l 1,7,-1
 -25 -40 l 1,0,-1
EndSplineSet
EndChar

StartChar: asciicircum
Encoding: 94 94 66
Width: 541
GlyphClass: 2
Flags: W
LayerCount: 2
Fore
SplineSet
52 303 m 1,0,-1
 250 710 l 1,1,-1
 308 710 l 1,2,-1
 505 303 l 1,3,-1
 445 303 l 1,4,-1
 279 646 l 1,5,-1
 110 303 l 1,6,-1
 52 303 l 1,0,-1
EndSplineSet
EndChar

StartChar: underscore
Encoding: 95 95 67
Width: 492
GlyphClass: 2
Flags: W
LayerCount: 2
Fore
SplineSet
-14 -62 m 1,0,-1
 -1 0 l 1,1,-1
 361 0 l 1,2,-1
 348 -62 l 1,3,-1
 -14 -62 l 1,0,-1
EndSplineSet
EndChar

StartChar: grave
Encoding: 96 96 68
Width: 213
GlyphClass: 2
Flags: W
LayerCount: 2
Fore
SplineSet
67 730 m 1,0,-1
 137 730 l 1,1,-1
 175 637 l 1,2,-1
 126 620 l 1,3,-1
 67 730 l 1,0,-1
EndSplineSet
EndChar

StartChar: a
Encoding: 97 97 69
Width: 598
GlyphClass: 2
Flags: W
LayerCount: 2
Fore
SplineSet
210 -10 m 0,0,1
 166 -10 166 -10 132 7.5 c 128,-1,2
 98 25 98 25 74 55 c 128,-1,3
 50 85 50 85 37.5 124.5 c 128,-1,4
 25 164 25 164 25 208 c 0,5,6
 25 270 25 270 49 328 c 128,-1,7
 73 386 73 386 113 431 c 128,-1,8
 153 476 153 476 205 503 c 128,-1,9
 257 530 257 530 314 530 c 0,10,11
 377 530 377 530 418 495.5 c 128,-1,12
 459 461 459 461 476 412 c 1,13,-1
 500 521 l 1,14,-1
 568 521 l 1,15,-1
 476 89 l 2,16,17
 474 81 474 81 474 76 c 0,18,19
 474 60 474 60 493 60 c 1,20,-1
 480 0 l 1,21,22
 472 -1 472 -1 465 -2 c 128,-1,23
 458 -3 458 -3 453 -3 c 0,24,25
 430 -1 430 -1 418.5 9.5 c 128,-1,26
 407 20 407 20 407 37 c 0,27,28
 407 45 407 45 409.5 58 c 128,-1,29
 412 71 412 71 418 101 c 1,30,31
 378 50 378 50 321.5 20 c 128,-1,32
 265 -10 265 -10 210 -10 c 0,0,1
238 50 m 0,33,34
 263 50 263 50 292 60 c 128,-1,35
 321 70 321 70 347.5 87.5 c 128,-1,36
 374 105 374 105 395.5 128.5 c 128,-1,37
 417 152 417 152 427 179 c 1,38,-1
 460 340 l 1,39,40
 457 367 457 367 444 390.5 c 128,-1,41
 431 414 431 414 412 431.5 c 128,-1,42
 393 449 393 449 369 459.5 c 128,-1,43
 345 470 345 470 319 470 c 0,44,45
 274 470 274 470 233.5 447.5 c 128,-1,46
 193 425 193 425 162.5 389 c 128,-1,47
 132 353 132 353 114 308 c 128,-1,48
 96 263 96 263 96 218 c 0,49,50
 96 183 96 183 106 152.5 c 128,-1,51
 116 122 116 122 135 99.5 c 128,-1,52
 154 77 154 77 180 63.5 c 128,-1,53
 206 50 206 50 238 50 c 0,33,34
EndSplineSet
Substitution2: "'ss02' Style Set 2 in Latin lookup 9 subtable" a.alt2
Substitution2: "'ss01' Style Set 1 in Latin lookup 8 subtable" a.alt
Substitution2: "'salt' Stylistic Alternatives in Latin lookup 5 subtable" a.alt
Substitution2: "'smcp' Lowercase to Small Capitals in Latin lookup 2 subtable" A.sc
AlternateSubs2: "'aalt' Access All Alternates in Latin lookup 1 subtable" A.sc a.alt a.alt2
EndChar

StartChar: b
Encoding: 98 98 70
Width: 592
GlyphClass: 2
Flags: W
LayerCount: 2
Fore
SplineSet
254 -10 m 0,0,1
 191 -10 191 -10 149.5 21.5 c 128,-1,2
 108 53 108 53 91 101 c 1,3,-1
 69 0 l 1,4,-1
 9 0 l 1,5,-1
 164 730 l 1,6,-1
 232 730 l 1,7,-1
 164 412 l 1,8,9
 209 465 209 465 262 497.5 c 128,-1,10
 315 530 315 530 375 530 c 0,11,12
 419 530 419 530 452 512 c 128,-1,13
 485 494 485 494 507 464.5 c 128,-1,14
 529 435 529 435 540 396.5 c 128,-1,15
 551 358 551 358 551 317 c 0,16,17
 551 252 551 252 525.5 192.5 c 128,-1,18
 500 133 500 133 458.5 88 c 128,-1,19
 417 43 417 43 363.5 16.5 c 128,-1,20
 310 -10 310 -10 254 -10 c 0,0,1
252 50 m 0,21,22
 295 50 295 50 336 71.5 c 128,-1,23
 377 93 377 93 409 128.5 c 128,-1,24
 441 164 441 164 460 210 c 128,-1,25
 479 256 479 256 479 305 c 0,26,27
 479 337 479 337 470 367 c 128,-1,28
 461 397 461 397 444 420 c 128,-1,29
 427 443 427 443 401.5 456.5 c 128,-1,30
 376 470 376 470 343 470 c 0,31,32
 315 470 315 470 288 459.5 c 128,-1,33
 261 449 261 449 236.5 432 c 128,-1,34
 212 415 212 415 190 391.5 c 128,-1,35
 168 368 168 368 149 343 c 1,36,-1
 113 170 l 1,37,38
 114 144 114 144 126 122 c 128,-1,39
 138 100 138 100 156.5 84 c 128,-1,40
 175 68 175 68 200 59 c 128,-1,41
 225 50 225 50 252 50 c 0,21,22
EndSplineSet
Substitution2: "'smcp' Lowercase to Small Capitals in Latin lookup 2 subtable" B.sc
Substitution2: "'aalt' Access All Alternates in Latin lookup 0 subtable" B.sc
EndChar

StartChar: c
Encoding: 99 99 71
Width: 526
GlyphClass: 2
Flags: W
LayerCount: 2
Fore
SplineSet
223 -10 m 0,0,1
 177 -10 177 -10 140 7.5 c 128,-1,2
 103 25 103 25 77.5 55 c 128,-1,3
 52 85 52 85 38.5 125 c 128,-1,4
 25 165 25 165 25 210 c 0,5,6
 25 273 25 273 50 331 c 128,-1,7
 75 389 75 389 117.5 433.5 c 128,-1,8
 160 478 160 478 216.5 504 c 128,-1,9
 273 530 273 530 337 530 c 0,10,11
 408 530 408 530 453.5 496.5 c 128,-1,12
 499 463 499 463 513 406 c 1,13,-1
 443 385 l 1,14,15
 431 425 431 425 399 447.5 c 128,-1,16
 367 470 367 470 322 470 c 0,17,18
 278 470 278 470 237.5 450 c 128,-1,19
 197 430 197 430 165 396 c 128,-1,20
 133 362 133 362 114 316 c 128,-1,21
 95 270 95 270 95 219 c 0,22,23
 95 183 95 183 105 152.5 c 128,-1,24
 115 122 115 122 133 99 c 128,-1,25
 151 76 151 76 176.5 63 c 128,-1,26
 202 50 202 50 233 50 c 0,27,28
 257 50 257 50 281.5 57 c 128,-1,29
 306 64 306 64 328 76.5 c 128,-1,30
 350 89 350 89 367.5 105 c 128,-1,31
 385 121 385 121 394 139 c 1,32,-1
 457 119 l 1,33,34
 441 91 441 91 416 67.5 c 128,-1,35
 391 44 391 44 360 26.5 c 128,-1,36
 329 9 329 9 294 -0.5 c 128,-1,37
 259 -10 259 -10 223 -10 c 0,0,1
EndSplineSet
Substitution2: "'smcp' Lowercase to Small Capitals in Latin lookup 2 subtable" C.sc
Substitution2: "'aalt' Access All Alternates in Latin lookup 0 subtable" C.sc
EndChar

StartChar: d
Encoding: 100 100 72
Width: 598
GlyphClass: 2
Flags: W
LayerCount: 2
Fore
SplineSet
211 -10 m 0,0,1
 167 -10 167 -10 132.5 7.5 c 128,-1,2
 98 25 98 25 74 55 c 128,-1,3
 50 85 50 85 37.5 124.5 c 128,-1,4
 25 164 25 164 25 208 c 0,5,6
 25 270 25 270 49 328 c 128,-1,7
 73 386 73 386 113 431 c 128,-1,8
 153 476 153 476 205.5 503 c 128,-1,9
 258 530 258 530 315 530 c 0,10,11
 377 530 377 530 418 495.5 c 128,-1,12
 459 461 459 461 476 412 c 1,13,-1
 544 730 l 1,14,-1
 612 730 l 1,15,-1
 476 89 l 2,16,17
 474 79 474 79 474 77 c 0,18,19
 474 60 474 60 493 60 c 1,20,-1
 480 0 l 1,21,22
 472 -1 472 -1 466.5 -1.5 c 128,-1,23
 461 -2 461 -2 456 -2 c 0,24,25
 432 -2 432 -2 419.5 9.5 c 128,-1,26
 407 21 407 21 407 38 c 0,27,28
 407 45 407 45 409 57.5 c 128,-1,29
 411 70 411 70 418 101 c 1,30,31
 378 50 378 50 321.5 20 c 128,-1,32
 265 -10 265 -10 211 -10 c 0,0,1
239 50 m 0,33,34
 263 50 263 50 291.5 60 c 128,-1,35
 320 70 320 70 347 87.5 c 128,-1,36
 374 105 374 105 395.5 128.5 c 128,-1,37
 417 152 417 152 427 179 c 1,38,-1
 460 340 l 1,39,40
 457 367 457 367 444 390.5 c 128,-1,41
 431 414 431 414 412 432 c 128,-1,42
 393 450 393 450 369 460 c 128,-1,43
 345 470 345 470 320 470 c 0,44,45
 275 470 275 470 234 447.5 c 128,-1,46
 193 425 193 425 162.5 389.5 c 128,-1,47
 132 354 132 354 114 309 c 128,-1,48
 96 264 96 264 96 219 c 0,49,50
 96 184 96 184 106 153.5 c 128,-1,51
 116 123 116 123 135 100 c 128,-1,52
 154 77 154 77 180 63.5 c 128,-1,53
 206 50 206 50 239 50 c 0,33,34
EndSplineSet
Substitution2: "'ss01' Style Set 1 in Latin lookup 8 subtable" d.alt
Substitution2: "'salt' Stylistic Alternatives in Latin lookup 5 subtable" d.alt
Substitution2: "'smcp' Lowercase to Small Capitals in Latin lookup 2 subtable" D.sc
AlternateSubs2: "'aalt' Access All Alternates in Latin lookup 1 subtable" D.sc d.alt
EndChar

StartChar: e
Encoding: 101 101 73
Width: 534
GlyphClass: 2
Flags: W
LayerCount: 2
Fore
SplineSet
226 -10 m 0,0,1
 178 -10 178 -10 140.5 7 c 128,-1,2
 103 24 103 24 77.5 54 c 128,-1,3
 52 84 52 84 38.5 124 c 128,-1,4
 25 164 25 164 25 210 c 0,5,6
 25 272 25 272 49 329.5 c 128,-1,7
 73 387 73 387 115 431.5 c 128,-1,8
 157 476 157 476 214.5 503 c 128,-1,9
 272 530 272 530 339 530 c 0,10,11
 373 530 373 530 403.5 521 c 128,-1,12
 434 512 434 512 456.5 494.5 c 128,-1,13
 479 477 479 477 492 450.5 c 128,-1,14
 505 424 505 424 505 390 c 0,15,16
 505 313 505 313 437 274 c 128,-1,17
 369 235 369 235 227 235 c 0,18,19
 199 235 199 235 166.5 236 c 128,-1,20
 134 237 134 237 96 240 c 1,21,22
 95 232 95 232 94.5 225 c 128,-1,23
 94 218 94 218 94 211 c 0,24,25
 94 177 94 177 103 146.5 c 128,-1,26
 112 116 112 116 130 92.5 c 128,-1,27
 148 69 148 69 175 55.5 c 128,-1,28
 202 42 202 42 238 42 c 0,29,30
 262 42 262 42 287 49 c 128,-1,31
 312 56 312 56 334.5 68.5 c 128,-1,32
 357 81 357 81 376 99 c 128,-1,33
 395 117 395 117 408 139 c 1,34,-1
 464 122 l 1,35,36
 446 93 446 93 420 68.5 c 128,-1,37
 394 44 394 44 362.5 26.5 c 128,-1,38
 331 9 331 9 296.5 -0.5 c 128,-1,39
 262 -10 262 -10 226 -10 c 0,0,1
332 477 m 256,40,41
 287 477 287 477 250 461 c 128,-1,42
 213 445 213 445 184 419 c 128,-1,43
 155 393 155 393 135 359 c 128,-1,44
 115 325 115 325 105 289 c 1,45,46
 141 287 141 287 171.5 285.5 c 128,-1,47
 202 284 202 284 230 284 c 0,48,49
 289 284 289 284 330 292 c 128,-1,50
 371 300 371 300 396 314 c 128,-1,51
 421 328 421 328 432 348 c 128,-1,52
 443 368 443 368 443 391 c 0,53,54
 443 436 443 436 410 456.5 c 128,-1,55
 377 477 377 477 332 477 c 256,40,41
EndSplineSet
Substitution2: "'smcp' Lowercase to Small Capitals in Latin lookup 2 subtable" E.sc
Substitution2: "'aalt' Access All Alternates in Latin lookup 0 subtable" E.sc
EndChar

StartChar: f
Encoding: 102 102 74
Width: 322
GlyphClass: 2
Flags: W
LayerCount: 2
Fore
SplineSet
130 467 m 1,0,-1
 62 467 l 1,1,-1
 73 521 l 1,2,-1
 142 521 l 1,3,-1
 144 535 l 2,4,5
 151 583 151 583 169 621 c 128,-1,6
 187 659 187 659 212.5 685.5 c 128,-1,7
 238 712 238 712 269.5 726 c 128,-1,8
 301 740 301 740 335 740 c 0,9,10
 364 740 364 740 389.5 731 c 128,-1,11
 415 722 415 722 433 707 c 1,12,-1
 402 658 l 1,13,14
 391 669 391 669 373 675 c 128,-1,15
 355 681 355 681 336 681 c 0,16,17
 291 681 291 681 259.5 644 c 128,-1,18
 228 607 228 607 213 537 c 2,19,-1
 210 521 l 1,20,-1
 345 521 l 1,21,-1
 334 467 l 1,22,-1
 198 467 l 1,23,-1
 54 -212 l 1,24,-1
 -14 -212 l 1,25,-1
 130 467 l 1,0,-1
EndSplineSet
Substitution2: "'smcp' Lowercase to Small Capitals in Latin lookup 2 subtable" F.sc
Substitution2: "'aalt' Access All Alternates in Latin lookup 0 subtable" F.sc
EndChar

StartChar: g
Encoding: 103 103 75
Width: 592
GlyphClass: 2
Flags: W
LayerCount: 2
Fore
SplineSet
165 -223 m 0,0,1
 122 -223 122 -223 90 -214.5 c 128,-1,2
 58 -206 58 -206 34 -191 c 128,-1,3
 10 -176 10 -176 -6.5 -154 c 128,-1,4
 -23 -132 -23 -132 -33 -105 c 1,5,-1
 15 -72 l 1,6,7
 34 -122 34 -122 77 -145.5 c 128,-1,8
 120 -169 120 -169 176 -169 c 0,9,10
 212 -169 212 -169 246 -158.5 c 128,-1,11
 280 -148 280 -148 308.5 -127.5 c 128,-1,12
 337 -107 337 -107 357.5 -75.5 c 128,-1,13
 378 -44 378 -44 387 -2 c 2,14,-1
 409 101 l 1,15,16
 390 76 390 76 366 56 c 128,-1,17
 342 36 342 36 315 22 c 128,-1,18
 288 8 288 8 260 0.5 c 128,-1,19
 232 -7 232 -7 205 -7 c 0,20,21
 162 -7 162 -7 128.5 10.5 c 128,-1,22
 95 28 95 28 71.5 57.5 c 128,-1,23
 48 87 48 87 36 126 c 128,-1,24
 24 165 24 165 24 208 c 0,25,26
 24 269 24 269 48 327 c 128,-1,27
 72 385 72 385 112.5 430 c 128,-1,28
 153 475 153 475 206 502.5 c 128,-1,29
 259 530 259 530 318 530 c 0,30,31
 382 530 382 530 421 496.5 c 128,-1,32
 460 463 460 463 483 412 c 1,33,-1
 506 521 l 1,34,-1
 566 521 l 1,35,-1
 455 -2 l 2,36,37
 443 -57 443 -57 415 -98.5 c 128,-1,38
 387 -140 387 -140 348 -167.5 c 128,-1,39
 309 -195 309 -195 262 -209 c 128,-1,40
 215 -223 215 -223 165 -223 c 0,0,1
237 50 m 0,41,42
 265 50 265 50 295 61 c 128,-1,43
 325 72 325 72 351 90.5 c 128,-1,44
 377 109 377 109 397 132 c 128,-1,45
 417 155 417 155 426 179 c 2,46,-1
 460 340 l 1,47,48
 456 368 456 368 443 392 c 128,-1,49
 430 416 430 416 411.5 433 c 128,-1,50
 393 450 393 450 369 460 c 128,-1,51
 345 470 345 470 319 470 c 0,52,53
 272 470 272 470 231 447 c 128,-1,54
 190 424 190 424 159.5 387.5 c 128,-1,55
 129 351 129 351 111.5 306.5 c 128,-1,56
 94 262 94 262 94 219 c 0,57,58
 94 184 94 184 104 153.5 c 128,-1,59
 114 123 114 123 133 100 c 128,-1,60
 152 77 152 77 178.5 63.5 c 128,-1,61
 205 50 205 50 237 50 c 0,41,42
EndSplineSet
Substitution2: "'smcp' Lowercase to Small Capitals in Latin lookup 2 subtable" G.sc
Substitution2: "'aalt' Access All Alternates in Latin lookup 0 subtable" G.sc
EndChar

StartChar: h
Encoding: 104 104 76
Width: 559
GlyphClass: 2
Flags: W
LayerCount: 2
Fore
SplineSet
164 730 m 1,0,-1
 232 730 l 1,1,-1
 162 403 l 1,2,3
 204 462 204 462 263.5 496 c 128,-1,4
 323 530 323 530 384 530 c 0,5,6
 448 530 448 530 475.5 494.5 c 128,-1,7
 503 459 503 459 503 397 c 0,8,9
 503 358 503 358 492 305 c 2,10,-1
 428 0 l 1,11,-1
 360 0 l 1,12,-1
 422 291 l 2,13,14
 431 334 431 334 431 367 c 0,15,16
 431 468 431 468 346 468 c 0,17,18
 319 468 319 468 290 456.5 c 128,-1,19
 261 445 261 445 233.5 425 c 128,-1,20
 206 405 206 405 182.5 378 c 128,-1,21
 159 351 159 351 144 319 c 1,22,-1
 77 0 l 1,23,-1
 9 0 l 1,24,-1
 164 730 l 1,0,-1
EndSplineSet
Substitution2: "'smcp' Lowercase to Small Capitals in Latin lookup 2 subtable" H.sc
Substitution2: "'aalt' Access All Alternates in Latin lookup 0 subtable" H.sc
EndChar

StartChar: i
Encoding: 105 105 77
Width: 213
GlyphClass: 2
Flags: W
LayerCount: 2
Fore
SplineSet
119 521 m 1,0,-1
 187 521 l 1,1,-1
 77 0 l 1,2,-1
 9 0 l 1,3,-1
 119 521 l 1,0,-1
164 730 m 1,4,-1
 232 730 l 1,5,-1
 211 630 l 1,6,-1
 143 630 l 1,7,-1
 164 730 l 1,4,-1
EndSplineSet
Substitution2: "'smcp' Lowercase to Small Capitals in Latin lookup 2 subtable" I.sc
Substitution2: "'aalt' Access All Alternates in Latin lookup 0 subtable" I.sc
EndChar

StartChar: j
Encoding: 106 106 78
Width: 220
GlyphClass: 2
Flags: W
LayerCount: 2
Fore
SplineSet
-103 -181 m 0,0,1
 -135 -181 -135 -181 -161 -172 c 128,-1,2
 -187 -163 -187 -163 -204 -142 c 1,3,-1
 -161 -96 l 1,4,5
 -150 -110 -150 -110 -132.5 -115 c 128,-1,6
 -115 -120 -115 -120 -97 -120 c 0,7,8
 -81 -120 -81 -120 -64 -113 c 128,-1,9
 -47 -106 -47 -106 -32 -93.5 c 128,-1,10
 -17 -81 -17 -81 -6 -64 c 128,-1,11
 5 -47 5 -47 9 -27 c 2,12,-1
 126 521 l 1,13,-1
 194 521 l 1,14,-1
 78 -23 l 2,15,16
 70 -58 70 -58 51.5 -87 c 128,-1,17
 33 -116 33 -116 8.5 -137 c 128,-1,18
 -16 -158 -16 -158 -45.5 -169.5 c 128,-1,19
 -75 -181 -75 -181 -103 -181 c 0,0,1
170 730 m 1,20,-1
 238 730 l 1,21,-1
 216 630 l 1,22,-1
 148 630 l 1,23,-1
 170 730 l 1,20,-1
EndSplineSet
Substitution2: "'ss01' Style Set 1 in Latin lookup 8 subtable" j.alt
Substitution2: "'salt' Stylistic Alternatives in Latin lookup 5 subtable" j.alt
Substitution2: "'smcp' Lowercase to Small Capitals in Latin lookup 2 subtable" J.sc
AlternateSubs2: "'aalt' Access All Alternates in Latin lookup 1 subtable" J.sc j.alt
EndChar

StartChar: k
Encoding: 107 107 79
Width: 536
GlyphClass: 2
Flags: W
LayerCount: 2
Fore
SplineSet
164 730 m 1,0,-1
 232 730 l 1,1,-1
 156 372 l 1,2,3
 207 442 207 442 269 486.5 c 128,-1,4
 331 531 331 531 402 531 c 0,5,6
 458 531 458 531 485 502.5 c 128,-1,7
 512 474 512 474 512 426 c 0,8,9
 512 361 512 361 464.5 308.5 c 128,-1,10
 417 256 417 256 327 226 c 1,11,-1
 444 0 l 1,12,-1
 370 0 l 1,13,-1
 246 255 l 1,14,15
 346 276 346 276 397.5 321 c 128,-1,16
 449 366 449 366 449 417 c 0,17,18
 449 447 449 447 431.5 461 c 128,-1,19
 414 475 414 475 385 475 c 0,20,21
 352 475 352 475 317.5 459.5 c 128,-1,22
 283 444 283 444 250 416 c 128,-1,23
 217 388 217 388 186.5 349 c 128,-1,24
 156 310 156 310 132 262 c 1,25,-1
 77 0 l 1,26,-1
 9 0 l 1,27,-1
 164 730 l 1,0,-1
EndSplineSet
Substitution2: "'smcp' Lowercase to Small Capitals in Latin lookup 2 subtable" K.sc
Substitution2: "'aalt' Access All Alternates in Latin lookup 0 subtable" K.sc
EndChar

StartChar: l
Encoding: 108 108 80
Width: 264
GlyphClass: 2
Flags: W
LayerCount: 2
Fore
SplineSet
107 -6 m 0,0,1
 70 -6 70 -6 49 13 c 128,-1,2
 28 32 28 32 28 67 c 0,3,4
 28 73 28 73 29 80 c 128,-1,5
 30 87 30 87 32 95 c 2,6,-1
 166 730 l 1,7,-1
 234 730 l 1,8,-1
 104 118 l 2,9,10
 103 113 103 113 102.5 109 c 128,-1,11
 102 105 102 105 102 100 c 0,12,13
 102 56 102 56 149 56 c 0,14,15
 160 56 160 56 175 59 c 128,-1,16
 190 62 190 62 204 67 c 1,17,-1
 202 12 l 1,18,19
 182 4 182 4 154.5 -1 c 128,-1,20
 127 -6 127 -6 107 -6 c 0,0,1
EndSplineSet
Substitution2: "'ss01' Style Set 1 in Latin lookup 8 subtable" l.alt
Substitution2: "'salt' Stylistic Alternatives in Latin lookup 5 subtable" l.alt
Substitution2: "'smcp' Lowercase to Small Capitals in Latin lookup 2 subtable" L.sc
AlternateSubs2: "'aalt' Access All Alternates in Latin lookup 1 subtable" L.sc l.alt
EndChar

StartChar: m
Encoding: 109 109 81
Width: 878
GlyphClass: 2
Flags: W
LayerCount: 2
Fore
SplineSet
119 521 m 1,0,-1
 182 521 l 1,1,-1
 156 403 l 1,2,3
 198 462 198 462 254.5 496 c 128,-1,4
 311 530 311 530 370 530 c 0,5,6
 430 530 430 530 459.5 494.5 c 128,-1,7
 489 459 489 459 489 394 c 1,8,9
 533 461 533 461 590.5 495.5 c 128,-1,10
 648 530 648 530 708 530 c 0,11,12
 771 530 771 530 797.5 496 c 128,-1,13
 824 462 824 462 824 402 c 0,14,15
 824 359 824 359 812 305 c 2,16,-1
 747 0 l 1,17,-1
 679 0 l 1,18,-1
 740 291 l 2,19,20
 745 314 745 314 747.5 334.5 c 128,-1,21
 750 355 750 355 750 372 c 0,22,23
 750 468 750 468 671 468 c 0,24,25
 643 468 643 468 615.5 457 c 128,-1,26
 588 446 588 446 563 426 c 128,-1,27
 538 406 538 406 516.5 378.5 c 128,-1,28
 495 351 495 351 479 318 c 1,29,-1
 412 0 l 1,30,-1
 344 0 l 1,31,-1
 405 291 l 2,32,33
 410 316 410 316 413 336.5 c 128,-1,34
 416 357 416 357 416 374 c 0,35,36
 416 468 416 468 337 468 c 0,37,38
 281 468 281 468 229 427 c 128,-1,39
 177 386 177 386 144 319 c 1,40,-1
 77 0 l 1,41,-1
 9 0 l 1,42,-1
 119 521 l 1,0,-1
EndSplineSet
Substitution2: "'smcp' Lowercase to Small Capitals in Latin lookup 2 subtable" M.sc
Substitution2: "'aalt' Access All Alternates in Latin lookup 0 subtable" M.sc
EndChar

StartChar: n
Encoding: 110 110 82
Width: 559
GlyphClass: 2
Flags: W
LayerCount: 2
Fore
SplineSet
119 521 m 1,0,-1
 182 521 l 1,1,-1
 156 403 l 1,2,3
 177 431 177 431 204.5 454.5 c 128,-1,4
 232 478 232 478 262.5 495 c 128,-1,5
 293 512 293 512 326 521 c 128,-1,6
 359 530 359 530 392 530 c 0,7,8
 453 530 453 530 479 497 c 128,-1,9
 505 464 505 464 505 406 c 0,10,11
 505 383 505 383 501.5 358.5 c 128,-1,12
 498 334 498 334 492 305 c 2,13,-1
 428 0 l 1,14,-1
 360 0 l 1,15,-1
 422 291 l 2,16,17
 432 340 432 340 432 376 c 0,18,19
 432 468 432 468 354 468 c 0,20,21
 326 468 326 468 295.5 457 c 128,-1,22
 265 446 265 446 236.5 426 c 128,-1,23
 208 406 208 406 184 378.5 c 128,-1,24
 160 351 160 351 144 319 c 1,25,-1
 77 0 l 1,26,-1
 9 0 l 1,27,-1
 119 521 l 1,0,-1
EndSplineSet
Substitution2: "'smcp' Lowercase to Small Capitals in Latin lookup 2 subtable" N.sc
Substitution2: "'aalt' Access All Alternates in Latin lookup 0 subtable" N.sc
EndChar

StartChar: o
Encoding: 111 111 83
Width: 573
GlyphClass: 2
Flags: W
LayerCount: 2
Fore
SplineSet
220 -10 m 0,0,1
 174 -10 174 -10 137.5 7.5 c 128,-1,2
 101 25 101 25 76 54.5 c 128,-1,3
 51 84 51 84 37.5 123.5 c 128,-1,4
 24 163 24 163 24 208 c 0,5,6
 24 271 24 271 49.5 329 c 128,-1,7
 75 387 75 387 118 431.5 c 128,-1,8
 161 476 161 476 217 503 c 128,-1,9
 273 530 273 530 335 530 c 0,10,11
 381 530 381 530 417 512.5 c 128,-1,12
 453 495 453 495 478.5 465.5 c 128,-1,13
 504 436 504 436 517.5 396 c 128,-1,14
 531 356 531 356 531 311 c 0,15,16
 531 249 531 249 505.5 191 c 128,-1,17
 480 133 480 133 437.5 88.5 c 128,-1,18
 395 44 395 44 338.5 17 c 128,-1,19
 282 -10 282 -10 220 -10 c 0,0,1
233 50 m 0,20,21
 275 50 275 50 316 70.5 c 128,-1,22
 357 91 357 91 389 125.5 c 128,-1,23
 421 160 421 160 441 205.5 c 128,-1,24
 461 251 461 251 461 302 c 0,25,26
 461 337 461 337 451 368 c 128,-1,27
 441 399 441 399 422.5 421.5 c 128,-1,28
 404 444 404 444 378.5 457 c 128,-1,29
 353 470 353 470 322 470 c 0,30,31
 280 470 280 470 239.5 449.5 c 128,-1,32
 199 429 199 429 166.5 394 c 128,-1,33
 134 359 134 359 114 313 c 128,-1,34
 94 267 94 267 94 216 c 0,35,36
 94 181 94 181 104 150.5 c 128,-1,37
 114 120 114 120 132.5 97.5 c 128,-1,38
 151 75 151 75 176.5 62.5 c 128,-1,39
 202 50 202 50 233 50 c 0,20,21
EndSplineSet
Substitution2: "'smcp' Lowercase to Small Capitals in Latin lookup 2 subtable" O.sc
Substitution2: "'aalt' Access All Alternates in Latin lookup 0 subtable" O.sc
EndChar

StartChar: p
Encoding: 112 112 84
Width: 593
GlyphClass: 2
Flags: W
LayerCount: 2
Fore
SplineSet
120 521 m 1,0,-1
 180 521 l 1,1,-1
 159 420 l 1,2,3
 199 469 199 469 254 499.5 c 128,-1,4
 309 530 309 530 366 530 c 0,5,6
 409 530 409 530 443.5 512 c 128,-1,7
 478 494 478 494 502 464 c 128,-1,8
 526 434 526 434 538.5 394 c 128,-1,9
 551 354 551 354 551 311 c 0,10,11
 551 250 551 250 528 192 c 128,-1,12
 505 134 505 134 465 89 c 128,-1,13
 425 44 425 44 372.5 17 c 128,-1,14
 320 -10 320 -10 262 -10 c 0,15,16
 199 -10 199 -10 158.5 23.5 c 128,-1,17
 118 57 118 57 100 108 c 1,18,-1
 32 -213 l 1,19,-1
 -36 -213 l 1,20,-1
 120 521 l 1,0,-1
256 50 m 0,21,22
 301 50 301 50 342 72.5 c 128,-1,23
 383 95 383 95 413.5 130.5 c 128,-1,24
 444 166 444 166 462 210.5 c 128,-1,25
 480 255 480 255 480 300 c 0,26,27
 480 335 480 335 470 366 c 128,-1,28
 460 397 460 397 441 420 c 128,-1,29
 422 443 422 443 396 456.5 c 128,-1,30
 370 470 370 470 337 470 c 0,31,32
 313 470 313 470 284.5 459.5 c 128,-1,33
 256 449 256 449 229 431.5 c 128,-1,34
 202 414 202 414 180.5 390.5 c 128,-1,35
 159 367 159 367 149 341 c 1,36,-1
 115 181 l 1,37,38
 120 153 120 153 132.5 129 c 128,-1,39
 145 105 145 105 163.5 87.5 c 128,-1,40
 182 70 182 70 205.5 60 c 128,-1,41
 229 50 229 50 256 50 c 0,21,22
EndSplineSet
Substitution2: "'smcp' Lowercase to Small Capitals in Latin lookup 2 subtable" P.sc
Substitution2: "'aalt' Access All Alternates in Latin lookup 0 subtable" P.sc
EndChar

StartChar: q
Encoding: 113 113 85
Width: 592
GlyphClass: 2
Flags: W
LayerCount: 2
Fore
SplineSet
198 -10 m 0,0,1
 156 -10 156 -10 123.5 7.5 c 128,-1,2
 91 25 91 25 69 54 c 128,-1,3
 47 83 47 83 35.5 122 c 128,-1,4
 24 161 24 161 24 204 c 0,5,6
 24 268 24 268 49.5 327 c 128,-1,7
 75 386 75 386 117 431 c 128,-1,8
 159 476 159 476 213 503 c 128,-1,9
 267 530 267 530 324 530 c 0,10,11
 382 530 382 530 424 498.5 c 128,-1,12
 466 467 466 467 484 419 c 1,13,-1
 505 521 l 1,14,-1
 566 521 l 1,15,-1
 430 -122 l 2,16,17
 429 -126 429 -126 428.5 -128.5 c 128,-1,18
 428 -131 428 -131 428 -133 c 0,19,20
 428 -150 428 -150 447 -151 c 1,21,-1
 435 -210 l 1,22,23
 430 -211 430 -211 424.5 -211.5 c 128,-1,24
 419 -212 419 -212 414 -212 c 0,25,26
 387 -212 387 -212 370.5 -200.5 c 128,-1,27
 354 -189 354 -189 354 -164 c 0,28,29
 354 -161 354 -161 354.5 -158 c 128,-1,30
 355 -155 355 -155 356 -151 c 2,31,-1
 411 108 l 1,32,33
 363 50 363 50 309 20 c 128,-1,34
 255 -10 255 -10 198 -10 c 0,0,1
232 50 m 0,35,36
 260 50 260 50 287 60 c 128,-1,37
 314 70 314 70 339 86.5 c 128,-1,38
 364 103 364 103 385.5 125.5 c 128,-1,39
 407 148 407 148 425 173 c 1,40,-1
 460 337 l 1,41,42
 458 364 458 364 447.5 388 c 128,-1,43
 437 412 437 412 419 430.5 c 128,-1,44
 401 449 401 449 377 459.5 c 128,-1,45
 353 470 353 470 326 470 c 0,46,47
 281 470 281 470 239 447.5 c 128,-1,48
 197 425 197 425 165 389 c 128,-1,49
 133 353 133 353 114 307.5 c 128,-1,50
 95 262 95 262 95 215 c 0,51,52
 95 181 95 181 104.5 151 c 128,-1,53
 114 121 114 121 131.5 98.5 c 128,-1,54
 149 76 149 76 174.5 63 c 128,-1,55
 200 50 200 50 232 50 c 0,35,36
EndSplineSet
Substitution2: "'ss01' Style Set 1 in Latin lookup 8 subtable" q.alt
Substitution2: "'salt' Stylistic Alternatives in Latin lookup 5 subtable" q.alt
Substitution2: "'smcp' Lowercase to Small Capitals in Latin lookup 2 subtable" Q.sc
AlternateSubs2: "'aalt' Access All Alternates in Latin lookup 1 subtable" Q.sc q.alt
EndChar

StartChar: r
Encoding: 114 114 86
Width: 343
GlyphClass: 2
Flags: W
LayerCount: 2
Fore
SplineSet
119 521 m 1,0,-1
 183 521 l 1,1,-1
 156 396 l 1,2,3
 195 453 195 453 244.5 486.5 c 128,-1,4
 294 520 294 520 345 522 c 0,5,6
 353 522 353 522 358.5 521.5 c 128,-1,7
 364 521 364 521 369 520 c 1,8,-1
 356 461 l 1,9,10
 291 459 291 459 235 423 c 128,-1,11
 179 387 179 387 145 324 c 1,12,-1
 77 0 l 1,13,-1
 9 0 l 1,14,-1
 119 521 l 1,0,-1
EndSplineSet
Substitution2: "'smcp' Lowercase to Small Capitals in Latin lookup 2 subtable" R.sc
Substitution2: "'aalt' Access All Alternates in Latin lookup 0 subtable" R.sc
EndChar

StartChar: s
Encoding: 115 115 87
Width: 468
GlyphClass: 2
Flags: W
LayerCount: 2
Fore
SplineSet
172 -10 m 0,0,1
 114 -10 114 -10 63 10 c 128,-1,2
 12 30 12 30 -20 68 c 1,3,-1
 20 114 l 1,4,5
 87 42 87 42 182 42 c 0,6,7
 248 42 248 42 290.5 72.5 c 128,-1,8
 333 103 333 103 333 154 c 0,9,10
 333 172 333 172 325 184 c 128,-1,11
 317 196 317 196 301 205.5 c 128,-1,12
 285 215 285 215 261 223 c 128,-1,13
 237 231 237 231 206 239 c 0,14,15
 170 249 170 249 143.5 258.5 c 128,-1,16
 117 268 117 268 99.5 280 c 128,-1,17
 82 292 82 292 73 308.5 c 128,-1,18
 64 325 64 325 64 348 c 0,19,20
 64 391 64 391 82.5 425 c 128,-1,21
 101 459 101 459 131.5 482.5 c 128,-1,22
 162 506 162 506 202.5 518 c 128,-1,23
 243 530 243 530 287 530 c 0,24,25
 344 530 344 530 386 510.5 c 128,-1,26
 428 491 428 491 451 459 c 1,27,-1
 409 419 l 1,28,29
 388 449 388 449 351.5 464 c 128,-1,30
 315 479 315 479 273 479 c 0,31,32
 245 479 245 479 219 472 c 128,-1,33
 193 465 193 465 173.5 451 c 128,-1,34
 154 437 154 437 142.5 416 c 128,-1,35
 131 395 131 395 131 366 c 0,36,37
 131 334 131 334 156.5 320.5 c 128,-1,38
 182 307 182 307 236 293 c 0,39,40
 317 273 317 273 359.5 247.5 c 128,-1,41
 402 222 402 222 402 170 c 0,42,43
 402 131 402 131 385 98 c 128,-1,44
 368 65 368 65 337.5 41 c 128,-1,45
 307 17 307 17 264.5 3.5 c 128,-1,46
 222 -10 222 -10 172 -10 c 0,0,1
EndSplineSet
Substitution2: "'smcp' Lowercase to Small Capitals in Latin lookup 2 subtable" S.sc
Substitution2: "'aalt' Access All Alternates in Latin lookup 0 subtable" S.sc
EndChar

StartChar: t
Encoding: 116 116 88
Width: 321
GlyphClass: 2
Flags: W
LayerCount: 2
Fore
SplineSet
135 -6 m 0,0,1
 97 -6 97 -6 72.5 12.5 c 128,-1,2
 48 31 48 31 48 69 c 0,3,4
 48 80 48 80 51 94 c 2,5,-1
 130 467 l 1,6,-1
 61 467 l 1,7,-1
 73 521 l 1,8,-1
 141 521 l 1,9,-1
 179 697 l 1,10,-1
 247 697 l 1,11,-1
 209 521 l 1,12,-1
 323 521 l 1,13,-1
 311 467 l 1,14,-1
 198 467 l 1,15,-1
 126 128 l 2,16,17
 124 117 124 117 122.5 111 c 128,-1,18
 121 105 121 105 121 100 c 0,19,20
 121 77 121 77 135 67 c 128,-1,21
 149 57 149 57 169 57 c 0,22,23
 196 57 196 57 219 66.5 c 128,-1,24
 242 76 242 76 249 80 c 1,25,-1
 255 25 l 1,26,27
 242 16 242 16 208.5 5 c 128,-1,28
 175 -6 175 -6 135 -6 c 0,0,1
EndSplineSet
Substitution2: "'ss01' Style Set 1 in Latin lookup 8 subtable" t.alt
Substitution2: "'salt' Stylistic Alternatives in Latin lookup 5 subtable" t.alt
Substitution2: "'smcp' Lowercase to Small Capitals in Latin lookup 2 subtable" T.sc
AlternateSubs2: "'aalt' Access All Alternates in Latin lookup 1 subtable" T.sc t.alt
EndChar

StartChar: u
Encoding: 117 117 89
Width: 569
GlyphClass: 2
Flags: W
LayerCount: 2
Fore
SplineSet
159 -10 m 0,0,1
 37 -10 37 -10 37 124 c 0,2,3
 37 144 37 144 39.5 166.5 c 128,-1,4
 42 189 42 189 48 215 c 2,5,-1
 114 521 l 1,6,-1
 181 521 l 1,7,-1
 119 227 l 2,8,9
 109 183 109 183 109 149 c 0,10,11
 109 50 109 50 195 50 c 0,12,13
 223 50 223 50 252 60 c 128,-1,14
 281 70 281 70 308 89 c 128,-1,15
 335 108 335 108 359 134 c 128,-1,16
 383 160 383 160 401 193 c 1,17,-1
 471 521 l 1,18,-1
 539 521 l 1,19,-1
 448 96 l 2,20,21
 445 84 445 84 445 77 c 0,22,23
 445 60 445 60 464 60 c 1,24,-1
 451 0 l 1,25,26
 443 -1 443 -1 437.5 -1.5 c 128,-1,27
 432 -2 432 -2 427 -2 c 0,28,29
 404 -2 404 -2 392 8.5 c 128,-1,30
 380 19 380 19 380 37 c 0,31,32
 380 40 380 40 380.5 45 c 128,-1,33
 381 50 381 50 382.5 59 c 128,-1,34
 384 68 384 68 386.5 82 c 128,-1,35
 389 96 389 96 394 118 c 1,36,37
 348 57 348 57 286 23.5 c 128,-1,38
 224 -10 224 -10 159 -10 c 0,0,1
EndSplineSet
Substitution2: "'smcp' Lowercase to Small Capitals in Latin lookup 2 subtable" U.sc
Substitution2: "'aalt' Access All Alternates in Latin lookup 0 subtable" U.sc
EndChar

StartChar: v
Encoding: 118 118 90
Width: 491
GlyphClass: 2
Flags: W
LayerCount: 2
Fore
SplineSet
58 521 m 1,0,-1
 129 521 l 1,1,-1
 193 63 l 1,2,3
 280 175 280 175 341 292 c 128,-1,4
 402 409 402 409 432 521 c 1,5,-1
 498 521 l 1,6,7
 423 258 423 258 214 0 c 1,8,-1
 141 0 l 1,9,-1
 58 521 l 1,0,-1
EndSplineSet
Substitution2: "'smcp' Lowercase to Small Capitals in Latin lookup 2 subtable" V.sc
Substitution2: "'aalt' Access All Alternates in Latin lookup 0 subtable" V.sc
EndChar

StartChar: w
Encoding: 119 119 91
Width: 755
GlyphClass: 2
Flags: W
LayerCount: 2
Fore
SplineSet
53 521 m 1,0,-1
 123 521 l 1,1,-1
 207 63 l 1,2,3
 247 111 247 111 281 160.5 c 128,-1,4
 315 210 315 210 344 261 c 1,5,-1
 284 521 l 1,6,-1
 354 521 l 1,7,-1
 392 348 l 1,8,9
 414 393 414 393 430.5 436 c 128,-1,10
 447 479 447 479 459 521 c 1,11,-1
 524 521 l 1,12,13
 505 456 505 456 477 391.5 c 128,-1,14
 449 327 449 327 412 262 c 1,15,-1
 455 63 l 1,16,17
 543 175 543 175 604.5 292 c 128,-1,18
 666 409 666 409 697 521 c 1,19,-1
 763 521 l 1,20,21
 686 258 686 258 476 0 c 1,22,-1
 403 0 l 1,23,-1
 363 184 l 1,24,25
 334 137 334 137 300.5 91 c 128,-1,26
 267 45 267 45 228 0 c 1,27,-1
 155 0 l 1,28,-1
 53 521 l 1,0,-1
EndSplineSet
Substitution2: "'ss01' Style Set 1 in Latin lookup 8 subtable" w.alt
Substitution2: "'salt' Stylistic Alternatives in Latin lookup 5 subtable" w.alt
Substitution2: "'smcp' Lowercase to Small Capitals in Latin lookup 2 subtable" W.sc
AlternateSubs2: "'aalt' Access All Alternates in Latin lookup 1 subtable" W.sc w.alt
EndChar

StartChar: x
Encoding: 120 120 92
Width: 481
GlyphClass: 2
Flags: W
LayerCount: 2
Fore
SplineSet
194 259 m 1,0,-1
 61 521 l 1,1,-1
 134 521 l 1,2,-1
 236 317 l 1,3,-1
 240 302 l 1,4,-1
 251 316 l 1,5,-1
 441 521 l 1,6,-1
 514 521 l 1,7,-1
 270 259 l 1,8,-1
 403 0 l 1,9,-1
 330 0 l 1,10,-1
 228 203 l 1,11,-1
 222 217 l 1,12,-1
 212 204 l 1,13,-1
 24 0 l 1,14,-1
 -50 0 l 1,15,-1
 194 259 l 1,0,-1
EndSplineSet
Substitution2: "'smcp' Lowercase to Small Capitals in Latin lookup 2 subtable" X.sc
Substitution2: "'aalt' Access All Alternates in Latin lookup 0 subtable" X.sc
EndChar

StartChar: y
Encoding: 121 121 93
Width: 489
GlyphClass: 2
Flags: W
LayerCount: 2
Fore
SplineSet
-36 -169 m 1,0,1
 -5 -164 -5 -164 17.5 -157 c 128,-1,2
 40 -150 40 -150 57.5 -137 c 128,-1,3
 75 -124 75 -124 90.5 -105 c 128,-1,4
 106 -86 106 -86 125 -57 c 2,5,-1
 158 -8 l 1,6,-1
 51 521 l 1,7,-1
 122 521 l 1,8,-1
 206 63 l 1,9,-1
 247 130 l 2,10,11
 290 200 290 200 320 253 c 128,-1,12
 350 306 350 306 371.5 350.5 c 128,-1,13
 393 395 393 395 407.5 435.5 c 128,-1,14
 422 476 422 476 434 521 c 1,15,-1
 501 521 l 1,16,17
 487 473 487 473 472 431.5 c 128,-1,18
 457 390 457 390 434.5 343.5 c 128,-1,19
 412 297 412 297 378.5 239.5 c 128,-1,20
 345 182 345 182 295 103 c 2,21,-1
 214 -26 l 2,22,23
 179 -81 179 -81 150.5 -118 c 128,-1,24
 122 -155 122 -155 94.5 -178 c 128,-1,25
 67 -201 67 -201 38 -211.5 c 128,-1,26
 9 -222 9 -222 -27 -224 c 1,27,-1
 -36 -169 l 1,0,1
EndSplineSet
Substitution2: "'ss01' Style Set 1 in Latin lookup 8 subtable" y.alt
Substitution2: "'salt' Stylistic Alternatives in Latin lookup 5 subtable" y.alt
Substitution2: "'smcp' Lowercase to Small Capitals in Latin lookup 2 subtable" Y.sc
AlternateSubs2: "'aalt' Access All Alternates in Latin lookup 1 subtable" Y.sc y.alt
EndChar

StartChar: z
Encoding: 122 122 94
Width: 466
GlyphClass: 2
Flags: W
LayerCount: 2
Fore
SplineSet
-26 46 m 1,0,-1
 393 470 l 1,1,-1
 72 470 l 1,2,-1
 83 521 l 1,3,-1
 480 521 l 1,4,-1
 471 475 l 1,5,-1
 54 51 l 1,6,-1
 381 51 l 1,7,-1
 369 0 l 1,8,-1
 -35 0 l 1,9,-1
 -26 46 l 1,0,-1
EndSplineSet
Substitution2: "'smcp' Lowercase to Small Capitals in Latin lookup 2 subtable" Z.sc
Substitution2: "'aalt' Access All Alternates in Latin lookup 0 subtable" Z.sc
EndChar

StartChar: braceleft
Encoding: 123 123 95
Width: 251
GlyphClass: 2
Flags: W
LayerCount: 2
Fore
SplineSet
233 683 m 1,0,-1
 177 422 l 2,1,2
 175 410 175 410 165.5 392 c 128,-1,3
 156 374 156 374 138 360 c 1,4,5
 146 351 146 351 149 339 c 128,-1,6
 152 327 152 327 152 315 c 0,7,8
 152 310 152 310 152 306 c 128,-1,9
 152 302 152 302 151 298 c 2,10,-1
 93 26 l 1,11,-1
 145 26 l 1,12,-1
 133 -31 l 1,13,-1
 40 -31 l 2,14,15
 34 -31 34 -31 29 -27 c 128,-1,16
 24 -23 24 -23 24 -12 c 0,17,18
 24 -5 24 -5 25 -1 c 2,19,-1
 85 280 l 2,20,21
 86 285 86 285 86 296 c 0,22,23
 86 311 86 311 79.5 322 c 128,-1,24
 73 333 73 333 59 335 c 1,25,-1
 70 387 l 1,26,27
 80 387 80 387 88.5 393 c 128,-1,28
 97 399 97 399 103.5 407 c 128,-1,29
 110 415 110 415 114 424.5 c 128,-1,30
 118 434 118 434 119 440 c 2,31,-1
 176 710 l 2,32,33
 180 729 180 729 189.5 734.5 c 128,-1,34
 199 740 199 740 204 740 c 2,35,-1
 297 740 l 1,36,-1
 285 683 l 1,37,-1
 233 683 l 1,0,-1
EndSplineSet
EndChar

StartChar: bar
Encoding: 124 124 96
Width: 288
GlyphClass: 2
Flags: W
LayerCount: 2
Fore
SplineSet
119 -130 m 1,0,-1
 119 775 l 1,1,-1
 179 775 l 1,2,-1
 179 -130 l 1,3,-1
 119 -130 l 1,0,-1
EndSplineSet
EndChar

StartChar: braceright
Encoding: 125 125 97
Width: 250
GlyphClass: 2
Flags: W
LayerCount: 2
Fore
SplineSet
129 683 m 1,0,-1
 140 740 l 1,1,-1
 233 740 l 2,2,3
 237 740 237 740 243.5 736 c 128,-1,4
 250 732 250 732 250 719 c 0,5,6
 250 713 250 713 249 710 c 2,7,-1
 191 440 l 2,8,9
 189 432 189 432 189 427 c 0,10,11
 189 413 189 413 195 400 c 128,-1,12
 201 387 201 387 217 387 c 1,13,-1
 206 335 l 1,14,15
 187 333 187 333 174 316.5 c 128,-1,16
 161 300 161 300 157 280 c 2,17,-1
 98 -1 l 2,18,19
 94 -18 94 -18 85 -24.5 c 128,-1,20
 76 -31 76 -31 69 -31 c 2,21,-1
 -24 -31 l 1,22,-1
 -12 26 l 1,23,-1
 41 26 l 1,24,-1
 99 298 l 2,25,26
 101 309 101 309 110.5 327.5 c 128,-1,27
 120 346 120 346 137 360 c 1,28,29
 129 370 129 370 126 381.5 c 128,-1,30
 123 393 123 393 123 404 c 0,31,32
 123 412 123 412 125 422 c 2,33,-1
 181 683 l 1,34,-1
 129 683 l 1,0,-1
EndSplineSet
EndChar

StartChar: asciitilde
Encoding: 126 126 98
Width: 492
GlyphClass: 2
Flags: W
LayerCount: 2
Fore
SplineSet
51 241 m 1,0,1
 52 246 52 246 60.5 262.5 c 128,-1,2
 69 279 69 279 84 297 c 128,-1,3
 99 315 99 315 121 329.5 c 128,-1,4
 143 344 143 344 172 344 c 0,5,6
 194 344 194 344 212.5 335 c 128,-1,7
 231 326 231 326 248 315 c 128,-1,8
 265 304 265 304 282 295 c 128,-1,9
 299 286 299 286 319 286 c 0,10,11
 338 286 338 286 352 293.5 c 128,-1,12
 366 301 366 301 375.5 310 c 128,-1,13
 385 319 385 319 389.5 327.5 c 128,-1,14
 394 336 394 336 394 338 c 2,15,-1
 436 338 l 2,16,17
 436 336 436 336 428 320.5 c 128,-1,18
 420 305 420 305 404 287.5 c 128,-1,19
 388 270 388 270 364.5 255.5 c 128,-1,20
 341 241 341 241 310 241 c 0,21,22
 286 241 286 241 267 250 c 128,-1,23
 248 259 248 259 231 270 c 128,-1,24
 214 281 214 281 198 290 c 128,-1,25
 182 299 182 299 164 299 c 0,26,27
 147 299 147 299 134 290 c 128,-1,28
 121 281 121 281 112 270.5 c 128,-1,29
 103 260 103 260 98.5 251 c 128,-1,30
 94 242 94 242 94 241 c 2,31,-1
 51 241 l 1,32,-1
 51 241 l 1,0,1
EndSplineSet
EndChar

StartChar: exclamdown
Encoding: 161 161 100
Width: 247
GlyphClass: 2
Flags: W
LayerCount: 2
Fore
SplineSet
197 487 m 1,0,-1
 93 -2 l 1,1,-1
 25 -2 l 1,2,-1
 129 487 l 1,3,-1
 197 487 l 1,0,-1
245 715 m 1,4,-1
 222 603 l 1,5,-1
 152 603 l 1,6,-1
 177 715 l 1,7,-1
 245 715 l 1,4,-1
EndSplineSet
EndChar

StartChar: cent
Encoding: 162 162 101
Width: 540
GlyphClass: 2
Flags: W
LayerCount: 2
Fore
SplineSet
176 -120 m 1,0,-1
 200 -9 l 1,1,2
 159 -6 159 -6 127 14 c 128,-1,3
 95 34 95 34 73.5 64.5 c 128,-1,4
 52 95 52 95 40.5 133 c 128,-1,5
 29 171 29 171 29 211 c 0,6,7
 29 267 29 267 50.5 321.5 c 128,-1,8
 72 376 72 376 110.5 420 c 128,-1,9
 149 464 149 464 201 493.5 c 128,-1,10
 253 523 253 523 314 529 c 1,11,-1
 339 645 l 1,12,-1
 375 645 l 1,13,-1
 350 529 l 1,14,15
 420 527 420 527 461 494.5 c 128,-1,16
 502 462 502 462 518 406 c 1,17,-1
 448 385 l 1,18,19
 435 426 435 426 406 446 c 128,-1,20
 377 466 377 466 337 468 c 1,21,-1
 249 51 l 1,22,23
 267 52 267 52 289.5 59 c 128,-1,24
 312 66 312 66 333.5 77 c 128,-1,25
 355 88 355 88 372.5 104 c 128,-1,26
 390 120 390 120 399 139 c 1,27,-1
 462 119 l 1,28,29
 444 87 444 87 416 62.5 c 128,-1,30
 388 38 388 38 356.5 22 c 128,-1,31
 325 6 325 6 293 -2 c 128,-1,32
 261 -10 261 -10 236 -10 c 1,33,-1
 212 -120 l 1,34,-1
 176 -120 l 1,0,-1
99 218 m 0,35,36
 99 188 99 188 107 160.5 c 128,-1,37
 115 133 115 133 129.5 110.5 c 128,-1,38
 144 88 144 88 165 73 c 128,-1,39
 186 58 186 58 213 54 c 1,40,-1
 300 466 l 1,41,42
 257 462 257 462 220 438 c 128,-1,43
 183 414 183 414 156 378.5 c 128,-1,44
 129 343 129 343 114 300.5 c 128,-1,45
 99 258 99 258 99 218 c 0,35,36
EndSplineSet
EndChar

StartChar: sterling
Encoding: 163 163 102
Width: 478
GlyphClass: 2
Flags: W
LayerCount: 2
Fore
SplineSet
68 372 m 1,0,-1
 156 372 l 1,1,2
 146 409 146 409 135.5 443.5 c 128,-1,3
 125 478 125 478 125 514 c 0,4,5
 125 555 125 555 143 591.5 c 128,-1,6
 161 628 161 628 191 655.5 c 128,-1,7
 221 683 221 683 259.5 699 c 128,-1,8
 298 715 298 715 339 715 c 0,9,10
 391 715 391 715 430.5 687 c 128,-1,11
 470 659 470 659 490 610 c 1,12,-1
 442 568 l 1,13,14
 428 610 428 610 396 634 c 128,-1,15
 364 658 364 658 325 658 c 0,16,17
 299 658 299 658 274 647 c 128,-1,18
 249 636 249 636 230 616.5 c 128,-1,19
 211 597 211 597 199.5 571 c 128,-1,20
 188 545 188 545 188 516 c 0,21,22
 188 481 188 481 199.5 446 c 128,-1,23
 211 411 211 411 220 372 c 1,24,-1
 390 372 l 1,25,-1
 378 318 l 1,26,-1
 228 318 l 1,27,28
 229 313 229 313 229 309 c 128,-1,29
 229 305 229 305 229 301 c 0,30,31
 229 271 229 271 223.5 245.5 c 128,-1,32
 218 220 218 220 202.5 192 c 128,-1,33
 187 164 187 164 158 131 c 128,-1,34
 129 98 129 98 82 54 c 1,35,36
 118 63 118 63 153 63 c 0,37,38
 173 63 173 63 189.5 60 c 128,-1,39
 206 57 206 57 221 54 c 128,-1,40
 236 51 236 51 251.5 48 c 128,-1,41
 267 45 267 45 284 45 c 0,42,43
 303 45 303 45 323.5 49.5 c 128,-1,44
 344 54 344 54 372 63 c 1,45,-1
 378 11 l 1,46,47
 323 -15 323 -15 268 -15 c 0,48,49
 247 -15 247 -15 228.5 -11.5 c 128,-1,50
 210 -8 210 -8 192 -3.5 c 128,-1,51
 174 1 174 1 155 5 c 128,-1,52
 136 9 136 9 114 9 c 0,53,54
 91 9 91 9 62 4.5 c 128,-1,55
 33 0 33 0 7 -8 c 1,56,-1
 0 42 l 1,57,58
 51 86 51 86 83 119 c 128,-1,59
 115 152 115 152 134 180.5 c 128,-1,60
 153 209 153 209 160 236 c 128,-1,61
 167 263 167 263 167 294 c 0,62,63
 167 300 167 300 167 306 c 128,-1,64
 167 312 167 312 166 318 c 1,65,-1
 56 318 l 1,66,-1
 68 372 l 1,0,-1
EndSplineSet
EndChar

StartChar: currency
Encoding: 164 164 103
Width: 562
GlyphClass: 2
Flags: W
LayerCount: 2
Fore
SplineSet
175 480 m 1,0,1
 220 519 220 519 287 519 c 0,2,3
 320 519 320 519 348.5 508.5 c 128,-1,4
 377 498 377 498 400 480 c 1,5,-1
 470 551 l 1,6,-1
 504 518 l 1,7,-1
 432 446 l 1,8,9
 449 423 449 423 458 395 c 128,-1,10
 467 367 467 367 467 336 c 0,11,12
 467 306 467 306 457.5 277.5 c 128,-1,13
 448 249 448 249 431 226 c 1,14,-1
 504 154 l 1,15,-1
 474 125 l 1,16,-1
 400 194 l 1,17,18
 378 176 378 176 349.5 165.5 c 128,-1,19
 321 155 321 155 287 155 c 256,20,21
 253 155 253 155 224.5 165.5 c 128,-1,22
 196 176 196 176 173 194 c 1,23,-1
 101 125 l 1,24,-1
 72 154 l 1,25,-1
 143 225 l 1,26,27
 107 275 107 275 107 336 c 0,28,29
 107 400 107 400 142 447 c 1,30,-1
 72 518 l 1,31,-1
 105 551 l 1,32,-1
 175 480 l 1,0,1
164 335 m 0,33,34
 164 308 164 308 173.5 284 c 128,-1,35
 183 260 183 260 200 242 c 128,-1,36
 217 224 217 224 239 213.5 c 128,-1,37
 261 203 261 203 287 203 c 0,38,39
 312 203 312 203 334.5 213.5 c 128,-1,40
 357 224 357 224 374 242 c 128,-1,41
 391 260 391 260 400.5 284.5 c 128,-1,42
 410 309 410 309 410 337 c 256,43,44
 410 365 410 365 400.5 389.5 c 128,-1,45
 391 414 391 414 374 432 c 128,-1,46
 357 450 357 450 334.5 460 c 128,-1,47
 312 470 312 470 287 470 c 0,48,49
 261 470 261 470 239 459.5 c 128,-1,50
 217 449 217 449 200 431 c 128,-1,51
 183 413 183 413 173.5 388 c 128,-1,52
 164 363 164 363 164 335 c 0,33,34
EndSplineSet
EndChar

StartChar: yen
Encoding: 165 165 104
Width: 650
GlyphClass: 2
Flags: W
LayerCount: 2
Fore
SplineSet
426 366 m 1,0,-1
 506 366 l 1,1,-1
 496 318 l 1,2,-1
 389 318 l 1,3,-1
 346 264 l 1,4,-1
 340 237 l 1,5,-1
 479 237 l 1,6,-1
 469 189 l 1,7,-1
 330 189 l 1,8,-1
 290 0 l 1,9,-1
 220 0 l 1,10,-1
 260 189 l 1,11,-1
 123 189 l 1,12,-1
 134 237 l 1,13,-1
 271 237 l 1,14,-1
 277 266 l 1,15,-1
 258 318 l 1,16,-1
 151 318 l 1,17,-1
 161 366 l 1,18,-1
 243 366 l 1,19,-1
 113 710 l 1,20,-1
 189 710 l 1,21,-1
 325 328 l 1,22,-1
 625 710 l 1,23,-1
 702 710 l 1,24,-1
 426 366 l 1,0,-1
EndSplineSet
EndChar

StartChar: brokenbar
Encoding: 166 166 105
Width: 282
GlyphClass: 2
Flags: W
LayerCount: 2
Fore
SplineSet
176 277 m 1,0,-1
 176 -130 l 1,1,-1
 116 -130 l 1,2,-1
 116 277 l 1,3,-1
 176 277 l 1,0,-1
176 775 m 1,4,-1
 176 368 l 1,5,-1
 116 368 l 1,6,-1
 116 775 l 1,7,-1
 176 775 l 1,4,-1
EndSplineSet
EndChar

StartChar: section
Encoding: 167 167 106
Width: 489
GlyphClass: 2
Flags: W
LayerCount: 2
Fore
SplineSet
378 195 m 1,0,1
 392 185 392 185 398 166.5 c 128,-1,2
 404 148 404 148 404 124 c 0,3,4
 404 70 404 70 380.5 30 c 128,-1,5
 357 -10 357 -10 322 -36 c 128,-1,6
 287 -62 287 -62 246 -75 c 128,-1,7
 205 -88 205 -88 169 -88 c 0,8,9
 136 -88 136 -88 109 -79.5 c 128,-1,10
 82 -71 82 -71 61 -58 c 128,-1,11
 40 -45 40 -45 24.5 -29 c 128,-1,12
 9 -13 9 -13 -2 3 c 1,13,-1
 52 45 l 1,14,15
 79 10 79 10 109.5 -6.5 c 128,-1,16
 140 -23 140 -23 180 -23 c 0,17,18
 206 -23 206 -23 233 -14 c 128,-1,19
 260 -5 260 -5 282 11.5 c 128,-1,20
 304 28 304 28 318 52.5 c 128,-1,21
 332 77 332 77 332 107 c 0,22,23
 332 129 332 129 323 142.5 c 128,-1,24
 314 156 314 156 299.5 164 c 128,-1,25
 285 172 285 172 267 175 c 128,-1,26
 249 178 249 178 231 179 c 0,27,28
 160 183 160 183 117 215.5 c 128,-1,29
 74 248 74 248 74 311 c 0,30,31
 74 349 74 349 89.5 379.5 c 128,-1,32
 105 410 105 410 122 427 c 1,33,34
 109 438 109 438 101.5 461 c 128,-1,35
 94 484 94 484 94 512 c 0,36,37
 94 557 94 557 115 594.5 c 128,-1,38
 136 632 136 632 169 658.5 c 128,-1,39
 202 685 202 685 242.5 700 c 128,-1,40
 283 715 283 715 322 715 c 0,41,42
 358 715 358 715 384 707 c 128,-1,43
 410 699 410 699 428 685.5 c 128,-1,44
 446 672 446 672 458 655 c 128,-1,45
 470 638 470 638 478 620 c 1,46,-1
 420 595 l 1,47,48
 410 628 410 628 378 640.5 c 128,-1,49
 346 653 346 653 312 653 c 0,50,51
 286 653 286 653 259.5 644 c 128,-1,52
 233 635 233 635 212 618 c 128,-1,53
 191 601 191 601 177.5 576.5 c 128,-1,54
 164 552 164 552 164 522 c 0,55,56
 164 478 164 478 193.5 460.5 c 128,-1,57
 223 443 223 443 268 442 c 0,58,59
 298 441 298 441 327.5 434 c 128,-1,60
 357 427 357 427 379.5 412 c 128,-1,61
 402 397 402 397 416 373.5 c 128,-1,62
 430 350 430 350 430 315 c 0,63,64
 430 278 430 278 414 245.5 c 128,-1,65
 398 213 398 213 378 195 c 1,0,1
140 311 m 0,66,67
 140 273 140 273 160.5 257 c 128,-1,68
 181 241 181 241 210 234.5 c 128,-1,69
 239 228 239 228 269 226 c 128,-1,70
 299 224 299 224 319 215 c 1,71,72
 338 229 338 229 351 253.5 c 128,-1,73
 364 278 364 278 364 304 c 0,74,75
 364 327 364 327 354.5 342.5 c 128,-1,76
 345 358 345 358 329.5 368 c 128,-1,77
 314 378 314 378 295.5 382 c 128,-1,78
 277 386 277 386 259 386 c 0,79,80
 236 386 236 386 215.5 389.5 c 128,-1,81
 195 393 195 393 181 400 c 1,82,83
 165 386 165 386 152.5 362.5 c 128,-1,84
 140 339 140 339 140 311 c 0,66,67
EndSplineSet
EndChar

StartChar: dieresis
Encoding: 168 168 107
Width: 319
GlyphClass: 2
Flags: W
LayerCount: 2
Fore
SplineSet
63 633 m 1,0,-1
 84 727 l 1,1,-1
 142 727 l 1,2,-1
 121 633 l 1,3,-1
 63 633 l 1,0,-1
207 633 m 1,4,-1
 227 727 l 1,5,-1
 284 727 l 1,6,-1
 265 633 l 1,7,-1
 207 633 l 1,4,-1
EndSplineSet
EndChar

StartChar: copyright
Encoding: 169 169 108
Width: 845
GlyphClass: 2
Flags: W
LayerCount: 2
Fore
SplineSet
433 -7 m 256,0,1
 354 -7 354 -7 286.5 20.5 c 128,-1,2
 219 48 219 48 170 96.5 c 128,-1,3
 121 145 121 145 93.5 211 c 128,-1,4
 66 277 66 277 66 355 c 0,5,6
 66 432 66 432 93.5 498 c 128,-1,7
 121 564 121 564 170 612 c 128,-1,8
 219 660 219 660 286.5 687.5 c 128,-1,9
 354 715 354 715 433 715 c 256,10,11
 512 715 512 715 579.5 687.5 c 128,-1,12
 647 660 647 660 696.5 612 c 128,-1,13
 746 564 746 564 774 498 c 128,-1,14
 802 432 802 432 802 355 c 0,15,16
 802 277 802 277 774 211 c 128,-1,17
 746 145 746 145 696.5 96.5 c 128,-1,18
 647 48 647 48 579.5 20.5 c 128,-1,19
 512 -7 512 -7 433 -7 c 256,0,1
433 26 m 0,20,21
 503 26 503 26 564 50 c 128,-1,22
 625 74 625 74 670 117 c 128,-1,23
 715 160 715 160 741 220 c 128,-1,24
 767 280 767 280 767 353 c 0,25,26
 767 424 767 424 742 484 c 128,-1,27
 717 544 717 544 672 588 c 128,-1,28
 627 632 627 632 566 657 c 128,-1,29
 505 682 505 682 433 682 c 256,30,31
 361 682 361 682 300 657 c 128,-1,32
 239 632 239 632 194.5 588.5 c 128,-1,33
 150 545 150 545 125 484.5 c 128,-1,34
 100 424 100 424 100 354 c 256,35,36
 100 284 100 284 125 224 c 128,-1,37
 150 164 150 164 194.5 120 c 128,-1,38
 239 76 239 76 300 51 c 128,-1,39
 361 26 361 26 433 26 c 0,20,21
440 123 m 0,40,41
 395 123 395 123 352.5 139.5 c 128,-1,42
 310 156 310 156 278 186 c 128,-1,43
 246 216 246 216 226.5 259 c 128,-1,44
 207 302 207 302 207 355 c 0,45,46
 207 397 207 397 221 439 c 128,-1,47
 235 481 235 481 263 514 c 128,-1,48
 291 547 291 547 333.5 568 c 128,-1,49
 376 589 376 589 434 589 c 0,50,51
 500 589 500 589 551.5 560.5 c 128,-1,52
 603 532 603 532 626 478 c 1,53,-1
 561 457 l 1,54,55
 551 479 551 479 535.5 493 c 128,-1,56
 520 507 520 507 502 515 c 128,-1,57
 484 523 484 523 466.5 526 c 128,-1,58
 449 529 449 529 434 529 c 0,59,60
 394 529 394 529 364.5 513.5 c 128,-1,61
 335 498 335 498 315.5 473.5 c 128,-1,62
 296 449 296 449 286.5 417.5 c 128,-1,63
 277 386 277 386 277 355 c 0,64,65
 277 314 277 314 292 281.5 c 128,-1,66
 307 249 307 249 330 227 c 128,-1,67
 353 205 353 205 381.5 193.5 c 128,-1,68
 410 182 410 182 437 182 c 0,69,70
 455 182 455 182 475 187.5 c 128,-1,71
 495 193 495 193 513 202.5 c 128,-1,72
 531 212 531 212 545.5 226 c 128,-1,73
 560 240 560 240 568 258 c 1,74,-1
 633 239 l 1,75,76
 626 221 626 221 609.5 200.5 c 128,-1,77
 593 180 593 180 568 162.5 c 128,-1,78
 543 145 543 145 510.5 134 c 128,-1,79
 478 123 478 123 440 123 c 0,40,41
EndSplineSet
EndChar

StartChar: ordfeminine
Encoding: 170 170 109
Width: 414
GlyphClass: 2
Flags: W
LayerCount: 2
Fore
SplineSet
167 346 m 0,0,1
 125 346 125 346 100 372 c 128,-1,2
 75 398 75 398 75 436 c 0,3,4
 75 464 75 464 88 488 c 128,-1,5
 101 512 101 512 123.5 529 c 128,-1,6
 146 546 146 546 176.5 555.5 c 128,-1,7
 207 565 207 565 242 565 c 0,8,9
 268 565 268 565 292 560.5 c 128,-1,10
 316 556 316 556 334 547 c 1,11,-1
 340 575 l 2,12,13
 343 590 343 590 343 600 c 0,14,15
 343 632 343 632 324 650 c 128,-1,16
 305 668 305 668 270 668 c 0,17,18
 220 668 220 668 153 627 c 1,19,-1
 142 664 l 1,20,21
 218 710 218 710 283 710 c 0,22,23
 340 710 340 710 370.5 684 c 128,-1,24
 401 658 401 658 401 609 c 0,25,26
 401 588 401 588 397 569 c 2,27,-1
 366 426 l 2,28,29
 365 423 365 423 365 418 c 0,30,31
 365 405 365 405 380 404 c 1,32,-1
 369 352 l 2,33,34
 365 351 365 351 357 351 c 0,35,36
 337 351 337 351 323 357.5 c 128,-1,37
 309 364 309 364 309 381 c 0,38,39
 309 385 309 385 310 393 c 128,-1,40
 311 401 311 401 313 411 c 1,41,42
 283 379 283 379 245 362.5 c 128,-1,43
 207 346 207 346 167 346 c 0,0,1
192 391 m 0,44,45
 211 391 211 391 231.5 396.5 c 128,-1,46
 252 402 252 402 269.5 411.5 c 128,-1,47
 287 421 287 421 299.5 433.5 c 128,-1,48
 312 446 312 446 315 460 c 2,49,-1
 326 512 l 1,50,51
 309 521 309 521 287.5 524.5 c 128,-1,52
 266 528 266 528 244 528 c 0,53,54
 196 528 196 528 164 506 c 128,-1,55
 132 484 132 484 132 449 c 0,56,57
 132 424 132 424 148.5 407.5 c 128,-1,58
 165 391 165 391 192 391 c 0,44,45
EndSplineSet
EndChar

StartChar: guillemotleft
Encoding: 171 171 110
Width: 553
GlyphClass: 2
Flags: W
LayerCount: 2
Fore
SplineSet
36 276 m 1,0,-1
 310 454 l 1,1,-1
 298 395 l 1,2,-1
 88 259 l 1,3,-1
 240 125 l 1,4,-1
 227 66 l 1,5,-1
 28 239 l 1,6,-1
 36 276 l 1,0,-1
249 276 m 1,7,-1
 524 454 l 1,8,-1
 511 395 l 1,9,-1
 301 259 l 1,10,-1
 454 125 l 1,11,-1
 441 66 l 1,12,-1
 242 239 l 1,13,-1
 249 276 l 1,7,-1
EndSplineSet
EndChar

StartChar: logicalnot
Encoding: 172 172 111
Width: 562
GlyphClass: 2
Flags: W
LayerCount: 2
Fore
SplineSet
506 364 m 1,0,-1
 454 126 l 1,1,-1
 396 126 l 1,2,-1
 433 302 l 1,3,-1
 72 302 l 1,4,-1
 86 364 l 1,5,-1
 506 364 l 1,0,-1
EndSplineSet
EndChar

StartChar: uni00AD
Encoding: 173 173 112
Width: 548
GlyphClass: 2
Flags: W
LayerCount: 2
Fore
SplineSet
51 241 m 1,0,-1
 64 304 l 1,1,-1
 484 304 l 1,2,-1
 471 241 l 1,3,-1
 51 241 l 1,0,-1
EndSplineSet
EndChar

StartChar: registered
Encoding: 174 174 113
Width: 845
GlyphClass: 2
Flags: W
LayerCount: 2
Fore
SplineSet
433 -7 m 256,0,1
 354 -7 354 -7 286.5 20.5 c 128,-1,2
 219 48 219 48 170 96.5 c 128,-1,3
 121 145 121 145 93.5 211 c 128,-1,4
 66 277 66 277 66 355 c 0,5,6
 66 432 66 432 93.5 498 c 128,-1,7
 121 564 121 564 170 612 c 128,-1,8
 219 660 219 660 286.5 687.5 c 128,-1,9
 354 715 354 715 433 715 c 256,10,11
 512 715 512 715 579.5 687.5 c 128,-1,12
 647 660 647 660 696.5 612 c 128,-1,13
 746 564 746 564 774 498 c 128,-1,14
 802 432 802 432 802 355 c 0,15,16
 802 277 802 277 774 211 c 128,-1,17
 746 145 746 145 696.5 96.5 c 128,-1,18
 647 48 647 48 579.5 20.5 c 128,-1,19
 512 -7 512 -7 433 -7 c 256,0,1
433 25 m 0,20,21
 503 25 503 25 564 49 c 128,-1,22
 625 73 625 73 670 116 c 128,-1,23
 715 159 715 159 740.5 219.5 c 128,-1,24
 766 280 766 280 766 354 c 0,25,26
 766 424 766 424 741 484 c 128,-1,27
 716 544 716 544 671.5 588 c 128,-1,28
 627 632 627 632 566 657 c 128,-1,29
 505 682 505 682 433 682 c 256,30,31
 361 682 361 682 300.5 657 c 128,-1,32
 240 632 240 632 196 588 c 128,-1,33
 152 544 152 544 127 484.5 c 128,-1,34
 102 425 102 425 102 355 c 0,35,36
 102 284 102 284 126.5 224 c 128,-1,37
 151 164 151 164 195.5 119.5 c 128,-1,38
 240 75 240 75 300.5 50 c 128,-1,39
 361 25 361 25 433 25 c 0,20,21
281 580 m 1,40,-1
 472 580 l 2,41,42
 501 580 501 580 525.5 567.5 c 128,-1,43
 550 555 550 555 568 534.5 c 128,-1,44
 586 514 586 514 596 488.5 c 128,-1,45
 606 463 606 463 606 437 c 0,46,47
 606 388 606 388 578 349.5 c 128,-1,48
 550 311 550 311 504 302 c 1,49,-1
 615 127 l 1,50,-1
 557 127 l 1,51,-1
 450 295 l 1,52,-1
 333 295 l 1,53,-1
 333 127 l 1,54,-1
 281 127 l 1,55,-1
 281 580 l 1,40,-1
471 341 m 2,56,57
 513 341 513 341 534 368.5 c 128,-1,58
 555 396 555 396 555 437 c 0,59,60
 555 479 555 479 530.5 505.5 c 128,-1,61
 506 532 506 532 468 532 c 2,62,-1
 333 532 l 1,63,-1
 333 341 l 1,64,-1
 471 341 l 2,56,57
EndSplineSet
EndChar

StartChar: macron
Encoding: 175 175 114
Width: 378
GlyphClass: 2
Flags: W
LayerCount: 2
Fore
SplineSet
72 662 m 1,0,-1
 82 709 l 1,1,-1
 357 709 l 1,2,-1
 347 662 l 1,3,-1
 72 662 l 1,0,-1
EndSplineSet
EndChar

StartChar: degree
Encoding: 176 176 115
Width: 259
GlyphClass: 2
Flags: W
LayerCount: 2
Fore
SplineSet
181 558 m 0,0,1
 152 558 152 558 134.5 576 c 128,-1,2
 117 594 117 594 117 623 c 0,3,4
 117 642 117 642 125 660 c 128,-1,5
 133 678 133 678 146.5 692 c 128,-1,6
 160 706 160 706 178 715 c 128,-1,7
 196 724 196 724 217 724 c 0,8,9
 246 724 246 724 263.5 705 c 128,-1,10
 281 686 281 686 281 657 c 0,11,12
 281 637 281 637 273 619 c 128,-1,13
 265 601 265 601 251 587.5 c 128,-1,14
 237 574 237 574 219 566 c 128,-1,15
 201 558 201 558 181 558 c 0,0,1
190 597 m 0,16,17
 208 597 208 597 225 612.5 c 128,-1,18
 242 628 242 628 242 649 c 0,19,20
 242 666 242 666 233 675 c 128,-1,21
 224 684 224 684 209 684 c 0,22,23
 189 684 189 684 173 669 c 128,-1,24
 157 654 157 654 157 633 c 0,25,26
 157 616 157 616 166 606.5 c 128,-1,27
 175 597 175 597 190 597 c 0,16,17
EndSplineSet
EndChar

StartChar: plusminus
Encoding: 177 177 116
Width: 484
GlyphClass: 2
Flags: W
LayerCount: 2
Fore
SplineSet
68 61 m 1,0,-1
 68 118 l 1,1,-1
 390 118 l 1,2,-1
 390 61 l 1,3,-1
 68 61 l 1,0,-1
390 393 m 1,4,-1
 390 336 l 1,5,-1
 260 336 l 1,6,-1
 260 196 l 1,7,-1
 198 196 l 1,8,-1
 198 336 l 1,9,-1
 68 336 l 1,10,-1
 68 393 l 1,11,-1
 198 393 l 1,12,-1
 198 533 l 1,13,-1
 260 533 l 1,14,-1
 260 393 l 1,15,-1
 390 393 l 1,4,-1
EndSplineSet
EndChar

StartChar: twosuperior
Encoding: 178 178 117
Width: 374
GlyphClass: 2
Flags: W
LayerCount: 2
Fore
SplineSet
59 407 m 1,0,1
 67 446 67 446 80.5 474.5 c 128,-1,2
 94 503 94 503 113.5 524.5 c 128,-1,3
 133 546 133 546 159 562 c 128,-1,4
 185 578 185 578 218 590 c 0,5,6
 244 600 244 600 271.5 609 c 128,-1,7
 299 618 299 618 321.5 630.5 c 128,-1,8
 344 643 344 643 358 661 c 128,-1,9
 372 679 372 679 372 706 c 0,10,11
 372 732 372 732 352 749.5 c 128,-1,12
 332 767 332 767 290 767 c 0,13,14
 266 767 266 767 246 761.5 c 128,-1,15
 226 756 226 756 209 747.5 c 128,-1,16
 192 739 192 739 179.5 729.5 c 128,-1,17
 167 720 167 720 158 712 c 1,18,-1
 135 743 l 1,19,20
 140 748 140 748 154 759.5 c 128,-1,21
 168 771 168 771 190 782.5 c 128,-1,22
 212 794 212 794 241 802.5 c 128,-1,23
 270 811 270 811 305 811 c 0,24,25
 365 811 365 811 393.5 784 c 128,-1,26
 422 757 422 757 422 715 c 0,27,28
 422 683 422 683 410 660.5 c 128,-1,29
 398 638 398 638 376 621 c 128,-1,30
 354 604 354 604 324.5 591.5 c 128,-1,31
 295 579 295 579 260 567 c 0,32,33
 226 556 226 556 204 541.5 c 128,-1,34
 182 527 182 527 168 511 c 128,-1,35
 154 495 154 495 147 479.5 c 128,-1,36
 140 464 140 464 137 450 c 1,37,-1
 363 450 l 1,38,-1
 354 407 l 1,39,-1
 59 407 l 1,0,1
EndSplineSet
EndChar

StartChar: threesuperior
Encoding: 179 179 118
Width: 374
GlyphClass: 2
Flags: W
LayerCount: 2
Fore
SplineSet
204 401 m 0,0,1
 146 401 146 401 113 426 c 128,-1,2
 80 451 80 451 73 490 c 1,3,-1
 107 519 l 1,4,5
 107 492 107 492 133 469 c 128,-1,6
 159 446 159 446 213 446 c 0,7,8
 237 446 237 446 260 452 c 128,-1,9
 283 458 283 458 300 468.5 c 128,-1,10
 317 479 317 479 327.5 493.5 c 128,-1,11
 338 508 338 508 338 526 c 0,12,13
 338 557 338 557 304.5 574 c 128,-1,14
 271 591 271 591 211 591 c 2,15,-1
 189 591 l 1,16,-1
 197 632 l 1,17,-1
 219 632 l 2,18,19
 286 632 286 632 324.5 651 c 128,-1,20
 363 670 363 670 363 708 c 0,21,22
 363 737 363 737 338.5 753.5 c 128,-1,23
 314 770 314 770 276 770 c 256,24,25
 238 770 238 770 206.5 754.5 c 128,-1,26
 175 739 175 739 155 714 c 1,27,-1
 132 748 l 1,28,29
 155 777 155 777 198 794 c 128,-1,30
 241 811 241 811 285 811 c 0,31,32
 343 811 343 811 377.5 784 c 128,-1,33
 412 757 412 757 412 715 c 0,34,35
 412 677 412 677 384 650.5 c 128,-1,36
 356 624 356 624 304 613 c 1,37,38
 341 607 341 607 361.5 583.5 c 128,-1,39
 382 560 382 560 382 528 c 0,40,41
 382 498 382 498 366.5 474.5 c 128,-1,42
 351 451 351 451 325.5 434.5 c 128,-1,43
 300 418 300 418 268.5 409.5 c 128,-1,44
 237 401 237 401 204 401 c 0,0,1
EndSplineSet
EndChar

StartChar: acute
Encoding: 180 180 119
Width: 212
GlyphClass: 2
Flags: W
LayerCount: 2
Fore
SplineSet
74 620 m 1,0,-1
 32 637 l 1,1,-1
 108 730 l 1,2,-1
 179 730 l 1,3,-1
 74 620 l 1,0,-1
EndSplineSet
EndChar

StartChar: mu
Encoding: 181 181 120
Width: 598
GlyphClass: 2
Flags: W
LayerCount: 2
Fore
SplineSet
128 521 m 1,0,-1
 196 521 l 1,1,-1
 133 227 l 2,2,3
 123 184 123 184 123 149 c 0,4,5
 123 50 123 50 210 50 c 0,6,7
 238 50 238 50 267 60 c 128,-1,8
 296 70 296 70 323 89 c 128,-1,9
 350 108 350 108 374 134 c 128,-1,10
 398 160 398 160 416 193 c 1,11,-1
 486 521 l 1,12,-1
 554 521 l 1,13,-1
 462 88 l 2,14,15
 460 80 460 80 460 77 c 0,16,17
 460 60 460 60 480 60 c 1,18,-1
 466 0 l 1,19,20
 436 0 436 0 415.5 8.5 c 128,-1,21
 395 17 395 17 395 40 c 0,22,23
 395 45 395 45 398.5 68 c 128,-1,24
 402 91 402 91 409 118 c 1,25,26
 391 91 391 91 366 68 c 128,-1,27
 341 45 341 45 312.5 27.5 c 128,-1,28
 284 10 284 10 253.5 0 c 128,-1,29
 223 -10 223 -10 194 -10 c 0,30,31
 149 -10 149 -10 125.5 13.5 c 128,-1,32
 102 37 102 37 97 75 c 1,33,-1
 40 -212 l 1,34,-1
 -28 -212 l 1,35,-1
 128 521 l 1,0,-1
EndSplineSet
EndChar

StartChar: paragraph
Encoding: 182 182 121
Width: 579
GlyphClass: 2
Flags: W
LayerCount: 2
Fore
SplineSet
64 418 m 0,0,1
 64 484 64 484 87 537.5 c 128,-1,2
 110 591 110 591 152.5 629.5 c 128,-1,3
 195 668 195 668 255 689 c 128,-1,4
 315 710 315 710 390 710 c 2,5,-1
 621 710 l 1,6,-1
 609 656 l 1,7,-1
 543 656 l 1,8,-1
 386 -80 l 1,9,-1
 327 -80 l 1,10,-1
 393 231 l 1,11,-1
 324 231 l 1,12,-1
 258 -80 l 1,13,-1
 198 -80 l 1,14,-1
 265 231 l 1,15,16
 168 233 168 233 116 282.5 c 128,-1,17
 64 332 64 332 64 418 c 0,0,1
124 431 m 0,18,19
 124 395 124 395 135.5 368.5 c 128,-1,20
 147 342 147 342 167.5 324 c 128,-1,21
 188 306 188 306 216 296.5 c 128,-1,22
 244 287 244 287 276 285 c 1,23,-1
 355 656 l 1,24,25
 301 656 301 656 258 638.5 c 128,-1,26
 215 621 215 621 185 591 c 128,-1,27
 155 561 155 561 139.5 520 c 128,-1,28
 124 479 124 479 124 431 c 0,18,19
484 656 m 1,29,-1
 415 656 l 1,30,-1
 335 285 l 1,31,-1
 404 285 l 1,32,-1
 484 656 l 1,29,-1
EndSplineSet
EndChar

StartChar: periodcentered
Encoding: 183 183 122
Width: 186
GlyphClass: 2
Flags: W
LayerCount: 2
Fore
SplineSet
52 246 m 1,0,-1
 75 358 l 1,1,-1
 133 358 l 1,2,-1
 110 246 l 1,3,-1
 52 246 l 1,0,-1
EndSplineSet
EndChar

StartChar: cedilla
Encoding: 184 184 123
Width: 270
GlyphClass: 2
Flags: W
LayerCount: 2
Fore
SplineSet
11 -126 m 1,0,1
 22 -133 22 -133 43.5 -138.5 c 128,-1,2
 65 -144 65 -144 90 -144 c 0,3,4
 154 -144 154 -144 154 -101 c 0,5,6
 154 -85 154 -85 142.5 -79 c 128,-1,7
 131 -73 131 -73 113 -73 c 0,8,9
 93 -73 93 -73 70 -77.5 c 128,-1,10
 47 -82 47 -82 33 -87 c 1,11,-1
 109 18 l 1,12,-1
 139 5 l 1,13,-1
 94 -51 l 1,14,15
 103 -47 103 -47 113 -46 c 128,-1,16
 123 -45 123 -45 131 -45 c 0,17,18
 160 -45 160 -45 176 -57.5 c 128,-1,19
 192 -70 192 -70 192 -94 c 0,20,21
 192 -132 192 -132 162.5 -154 c 128,-1,22
 133 -176 133 -176 77 -176 c 0,23,24
 50 -176 50 -176 27 -170.5 c 128,-1,25
 4 -165 4 -165 -13 -157 c 1,26,-1
 11 -126 l 1,0,1
EndSplineSet
EndChar

StartChar: onesuperior
Encoding: 185 185 124
Width: 260
GlyphClass: 2
Flags: W
LayerCount: 2
Fore
SplineSet
273 451 m 1,0,-1
 263 406 l 1,1,-1
 70 406 l 1,2,-1
 80 451 l 1,3,-1
 157 451 l 1,4,-1
 222 760 l 1,5,6
 216 754 216 754 203.5 745.5 c 128,-1,7
 191 737 191 737 176.5 729.5 c 128,-1,8
 162 722 162 722 147.5 716.5 c 128,-1,9
 133 711 133 711 121 711 c 1,10,-1
 131 756 l 1,11,12
 146 756 146 756 163.5 764 c 128,-1,13
 181 772 181 772 196.5 782 c 128,-1,14
 212 792 212 792 222.5 801 c 128,-1,15
 233 810 233 810 233 811 c 2,16,-1
 278 811 l 1,17,-1
 201 451 l 1,18,-1
 273 451 l 1,0,-1
EndSplineSet
EndChar

StartChar: ordmasculine
Encoding: 186 186 125
Width: 431
GlyphClass: 2
Flags: W
LayerCount: 2
Fore
SplineSet
223 346 m 0,0,1
 190 346 190 346 164.5 358 c 128,-1,2
 139 370 139 370 121.5 390 c 128,-1,3
 104 410 104 410 95 436.5 c 128,-1,4
 86 463 86 463 86 493 c 0,5,6
 86 536 86 536 103.5 575 c 128,-1,7
 121 614 121 614 150 644 c 128,-1,8
 179 674 179 674 218 692 c 128,-1,9
 257 710 257 710 300 710 c 0,10,11
 333 710 333 710 358.5 698.5 c 128,-1,12
 384 687 384 687 401.5 667 c 128,-1,13
 419 647 419 647 428.5 620 c 128,-1,14
 438 593 438 593 438 563 c 0,15,16
 438 521 438 521 421 482 c 128,-1,17
 404 443 404 443 374.5 412.5 c 128,-1,18
 345 382 345 382 306 364 c 128,-1,19
 267 346 267 346 223 346 c 0,0,1
233 395 m 0,20,21
 261 395 261 395 287.5 408 c 128,-1,22
 314 421 314 421 335 443 c 128,-1,23
 356 465 356 465 368.5 494 c 128,-1,24
 381 523 381 523 381 555 c 0,25,26
 381 600 381 600 356 630.5 c 128,-1,27
 331 661 331 661 290 661 c 0,28,29
 263 661 263 661 236.5 648 c 128,-1,30
 210 635 210 635 189 613.5 c 128,-1,31
 168 592 168 592 155.5 562.5 c 128,-1,32
 143 533 143 533 143 500 c 0,33,34
 143 455 143 455 167.5 425 c 128,-1,35
 192 395 192 395 233 395 c 0,20,21
EndSplineSet
EndChar

StartChar: guillemotright
Encoding: 187 187 126
Width: 553
GlyphClass: 2
Flags: W
LayerCount: 2
Fore
SplineSet
498 239 m 1,0,-1
 225 66 l 1,1,-1
 237 125 l 1,2,-1
 446 259 l 1,3,-1
 295 395 l 1,4,-1
 307 454 l 1,5,-1
 506 276 l 1,6,-1
 498 239 l 1,0,-1
285 239 m 1,7,-1
 11 66 l 1,8,-1
 24 125 l 1,9,-1
 234 259 l 1,10,-1
 82 395 l 1,11,-1
 94 454 l 1,12,-1
 292 276 l 1,13,-1
 285 239 l 1,7,-1
EndSplineSet
EndChar

StartChar: onequarter
Encoding: 188 188 127
Width: 786
GlyphClass: 2
Flags: W
LayerCount: 2
Fore
SplineSet
609 103 m 1,0,-1
 392 103 l 1,1,-1
 401 145 l 1,2,-1
 685 399 l 1,3,-1
 716 399 l 1,4,-1
 662 147 l 1,5,-1
 718 147 l 1,6,-1
 708 103 l 1,7,-1
 653 103 l 1,8,-1
 631 0 l 1,9,-1
 587 0 l 1,10,-1
 609 103 l 1,0,-1
620 147 m 1,11,-1
 660 338 l 1,12,-1
 450 147 l 1,13,-1
 620 147 l 1,11,-1
67 27 m 1,14,-1
 736 714 l 1,15,-1
 764 684 l 1,16,-1
 95 -4 l 1,17,-1
 67 27 l 1,14,-1
263 371 m 1,18,-1
 253 326 l 1,19,-1
 60 326 l 1,20,-1
 70 371 l 1,21,-1
 147 371 l 1,22,-1
 212 680 l 1,23,24
 206 674 206 674 193.5 665.5 c 128,-1,25
 181 657 181 657 166.5 649.5 c 128,-1,26
 152 642 152 642 137.5 636.5 c 128,-1,27
 123 631 123 631 111 631 c 1,28,-1
 121 676 l 1,29,30
 136 676 136 676 153.5 684 c 128,-1,31
 171 692 171 692 186.5 702 c 128,-1,32
 202 712 202 712 212.5 721 c 128,-1,33
 223 730 223 730 223 731 c 2,34,-1
 268 731 l 1,35,-1
 191 371 l 1,36,-1
 263 371 l 1,18,-1
EndSplineSet
EndChar

StartChar: onehalf
Encoding: 189 189 128
Width: 820
GlyphClass: 2
Flags: W
LayerCount: 2
Fore
SplineSet
426 0 m 1,0,1
 433 39 433 39 446.5 67.5 c 128,-1,2
 460 96 460 96 479 118 c 128,-1,3
 498 140 498 140 523.5 156 c 128,-1,4
 549 172 549 172 581 184 c 0,5,6
 606 193 606 193 632.5 202 c 128,-1,7
 659 211 659 211 680.5 223.5 c 128,-1,8
 702 236 702 236 716 254 c 128,-1,9
 730 272 730 272 730 299 c 0,10,11
 730 325 730 325 710.5 343 c 128,-1,12
 691 361 691 361 651 361 c 0,13,14
 627 361 627 361 607.5 355.5 c 128,-1,15
 588 350 588 350 571.5 341.5 c 128,-1,16
 555 333 555 333 542.5 323 c 128,-1,17
 530 313 530 313 521 305 c 1,18,-1
 500 337 l 1,19,20
 504 342 504 342 518 353 c 128,-1,21
 532 364 532 364 553 375.5 c 128,-1,22
 574 387 574 387 602.5 395.5 c 128,-1,23
 631 404 631 404 665 404 c 0,24,25
 723 404 723 404 751 377 c 128,-1,26
 779 350 779 350 779 308 c 0,27,28
 779 276 779 276 768 254 c 128,-1,29
 757 232 757 232 736.5 215 c 128,-1,30
 716 198 716 198 687 185 c 128,-1,31
 658 172 658 172 622 160 c 0,32,33
 589 149 589 149 567 134.5 c 128,-1,34
 545 120 545 120 531.5 104.5 c 128,-1,35
 518 89 518 89 511.5 73 c 128,-1,36
 505 57 505 57 502 44 c 1,37,-1
 727 44 l 1,38,-1
 718 0 l 1,39,-1
 426 0 l 1,0,1
36 27 m 1,40,-1
 705 714 l 1,41,-1
 733 684 l 1,42,-1
 64 -4 l 1,43,-1
 36 27 l 1,40,-1
265 371 m 1,44,-1
 255 326 l 1,45,-1
 62 326 l 1,46,-1
 72 371 l 1,47,-1
 149 371 l 1,48,-1
 214 680 l 1,49,50
 208 674 208 674 195.5 665.5 c 128,-1,51
 183 657 183 657 168.5 649.5 c 128,-1,52
 154 642 154 642 139.5 636.5 c 128,-1,53
 125 631 125 631 113 631 c 1,54,-1
 123 676 l 1,55,56
 138 676 138 676 155.5 684 c 128,-1,57
 173 692 173 692 188.5 702 c 128,-1,58
 204 712 204 712 214.5 721 c 128,-1,59
 225 730 225 730 225 731 c 2,60,-1
 270 731 l 1,61,-1
 193 371 l 1,62,-1
 265 371 l 1,44,-1
EndSplineSet
EndChar

StartChar: threequarters
Encoding: 190 190 129
Width: 797
GlyphClass: 2
Flags: W
LayerCount: 2
Fore
SplineSet
189 321 m 0,0,1
 135 321 135 321 98.5 344 c 128,-1,2
 62 367 62 367 60 410 c 1,3,-1
 94 439 l 1,4,5
 94 426 94 426 100.5 413 c 128,-1,6
 107 400 107 400 120 389.5 c 128,-1,7
 133 379 133 379 152.5 372.5 c 128,-1,8
 172 366 172 366 198 366 c 0,9,10
 223 366 223 366 246 372 c 128,-1,11
 269 378 269 378 286.5 388.5 c 128,-1,12
 304 399 304 399 314.5 413.5 c 128,-1,13
 325 428 325 428 325 446 c 0,14,15
 325 477 325 477 291 494 c 128,-1,16
 257 511 257 511 198 511 c 2,17,-1
 176 511 l 1,18,-1
 184 552 l 1,19,-1
 206 552 l 2,20,21
 273 552 273 552 311.5 571.5 c 128,-1,22
 350 591 350 591 350 629 c 0,23,24
 350 657 350 657 325 673.5 c 128,-1,25
 300 690 300 690 264 690 c 0,26,27
 225 690 225 690 193.5 674.5 c 128,-1,28
 162 659 162 659 142 634 c 1,29,-1
 119 668 l 1,30,31
 142 697 142 697 184.5 714 c 128,-1,32
 227 731 227 731 273 731 c 0,33,34
 330 731 330 731 364.5 704.5 c 128,-1,35
 399 678 399 678 399 636 c 0,36,37
 399 596 399 596 371 570 c 128,-1,38
 343 544 343 544 291 533 c 1,39,40
 328 527 328 527 348.5 503.5 c 128,-1,41
 369 480 369 480 369 448 c 0,42,43
 369 418 369 418 353.5 394.5 c 128,-1,44
 338 371 338 371 313 354.5 c 128,-1,45
 288 338 288 338 255.5 329.5 c 128,-1,46
 223 321 223 321 189 321 c 0,0,1
617 103 m 1,47,-1
 400 103 l 1,48,-1
 409 145 l 1,49,-1
 693 399 l 1,50,-1
 724 399 l 1,51,-1
 670 147 l 1,52,-1
 726 147 l 1,53,-1
 716 103 l 1,54,-1
 661 103 l 1,55,-1
 639 0 l 1,56,-1
 595 0 l 1,57,-1
 617 103 l 1,47,-1
628 147 m 1,58,-1
 668 338 l 1,59,-1
 458 147 l 1,60,-1
 628 147 l 1,58,-1
98 27 m 1,61,-1
 767 714 l 1,62,-1
 795 684 l 1,63,-1
 126 -4 l 1,64,-1
 98 27 l 1,61,-1
EndSplineSet
EndChar

StartChar: questiondown
Encoding: 191 191 130
Width: 453
GlyphClass: 2
Flags: W
LayerCount: 2
Fore
SplineSet
311 304 m 1,0,1
 297 238 297 238 269.5 199 c 128,-1,2
 242 160 242 160 195 134 c 0,3,4
 171 120 171 120 141 106 c 128,-1,5
 111 92 111 92 85.5 71.5 c 128,-1,6
 60 51 60 51 42.5 21.5 c 128,-1,7
 25 -8 25 -8 25 -53 c 0,8,9
 25 -104 25 -104 55.5 -130 c 128,-1,10
 86 -156 86 -156 128 -156 c 0,11,12
 153 -156 153 -156 177.5 -148 c 128,-1,13
 202 -140 202 -140 224.5 -126.5 c 128,-1,14
 247 -113 247 -113 266 -94 c 128,-1,15
 285 -75 285 -75 300 -54 c 1,16,-1
 340 -84 l 1,17,18
 320 -115 320 -115 294 -139 c 128,-1,19
 268 -163 268 -163 238.5 -179.5 c 128,-1,20
 209 -196 209 -196 177.5 -204.5 c 128,-1,21
 146 -213 146 -213 115 -213 c 256,22,23
 84 -213 84 -213 56.5 -203.5 c 128,-1,24
 29 -194 29 -194 8 -175.5 c 128,-1,25
 -13 -157 -13 -157 -25 -128.5 c 128,-1,26
 -37 -100 -37 -100 -37 -62 c 0,27,28
 -37 -12 -37 -12 -23 22 c 128,-1,29
 -9 56 -9 56 15 80 c 128,-1,30
 39 104 39 104 70 121.5 c 128,-1,31
 101 139 101 139 134 156 c 0,32,33
 153 166 153 166 171 176.5 c 128,-1,34
 189 187 189 187 204.5 203.5 c 128,-1,35
 220 220 220 220 232.5 244 c 128,-1,36
 245 268 245 268 253 304 c 1,37,-1
 311 304 l 1,0,1
352 506 m 1,38,-1
 329 399 l 1,39,-1
 272 399 l 1,40,-1
 294 506 l 1,41,-1
 352 506 l 1,38,-1
EndSplineSet
EndChar

StartChar: Agrave
Encoding: 192 192 131
Width: 651
GlyphClass: 2
Flags: W
LayerCount: 2
Fore
SplineSet
386 710 m 1,0,-1
 446 710 l 1,1,-1
 574 0 l 1,2,-1
 500 0 l 1,3,-1
 461 222 l 1,4,-1
 162 222 l 1,5,-1
 30 0 l 1,6,-1
 -45 0 l 1,7,-1
 386 710 l 1,0,-1
457 277 m 1,8,-1
 399 628 l 1,9,-1
 188 277 l 1,10,-1
 457 277 l 1,8,-1
354 917 m 1,11,-1
 424 917 l 1,12,-1
 462 824 l 1,13,-1
 413 807 l 1,14,-1
 354 917 l 1,11,-1
EndSplineSet
EndChar

StartChar: Aacute
Encoding: 193 193 132
Width: 651
GlyphClass: 2
Flags: W
LayerCount: 2
Fore
SplineSet
386 710 m 1,0,-1
 446 710 l 1,1,-1
 574 0 l 1,2,-1
 500 0 l 1,3,-1
 461 222 l 1,4,-1
 162 222 l 1,5,-1
 30 0 l 1,6,-1
 -45 0 l 1,7,-1
 386 710 l 1,0,-1
457 277 m 1,8,-1
 399 628 l 1,9,-1
 188 277 l 1,10,-1
 457 277 l 1,8,-1
431 807 m 1,11,-1
 389 824 l 1,12,-1
 465 917 l 1,13,-1
 536 917 l 1,14,-1
 431 807 l 1,11,-1
EndSplineSet
EndChar

StartChar: Acircumflex
Encoding: 194 194 133
Width: 651
GlyphClass: 2
Flags: W
LayerCount: 2
Fore
SplineSet
386 710 m 1,0,-1
 446 710 l 1,1,-1
 574 0 l 1,2,-1
 500 0 l 1,3,-1
 461 222 l 1,4,-1
 162 222 l 1,5,-1
 30 0 l 1,6,-1
 -45 0 l 1,7,-1
 386 710 l 1,0,-1
457 277 m 1,8,-1
 399 628 l 1,9,-1
 188 277 l 1,10,-1
 457 277 l 1,8,-1
322 832 m 1,11,-1
 435 917 l 1,12,-1
 485 917 l 1,13,-1
 560 832 l 1,14,-1
 518 811 l 1,15,-1
 450 874 l 1,16,-1
 356 811 l 1,17,-1
 322 832 l 1,11,-1
EndSplineSet
EndChar

StartChar: Atilde
Encoding: 195 195 134
Width: 651
GlyphClass: 2
Flags: W
LayerCount: 2
Fore
SplineSet
386 710 m 1,0,-1
 446 710 l 1,1,-1
 574 0 l 1,2,-1
 500 0 l 1,3,-1
 461 222 l 1,4,-1
 162 222 l 1,5,-1
 30 0 l 1,6,-1
 -45 0 l 1,7,-1
 386 710 l 1,0,-1
457 277 m 1,8,-1
 399 628 l 1,9,-1
 188 277 l 1,10,-1
 457 277 l 1,8,-1
495 825 m 0,11,12
 474 825 474 825 459.5 831 c 128,-1,13
 445 837 445 837 433 844.5 c 128,-1,14
 421 852 421 852 409 858.5 c 128,-1,15
 397 865 397 865 382 865 c 256,16,17
 367 865 367 865 356 858 c 128,-1,18
 345 851 345 851 338.5 842.5 c 128,-1,19
 332 834 332 834 328.5 826.5 c 128,-1,20
 325 819 325 819 325 817 c 2,21,-1
 283 817 l 1,22,23
 284 822 284 822 291 837.5 c 128,-1,24
 298 853 298 853 311 869 c 128,-1,25
 324 885 324 885 344 897.5 c 128,-1,26
 364 910 364 910 391 910 c 0,27,28
 411 910 411 910 424.5 903.5 c 128,-1,29
 438 897 438 897 450 889 c 128,-1,30
 462 881 462 881 474 874.5 c 128,-1,31
 486 868 486 868 504 868 c 256,32,33
 522 868 522 868 534.5 875 c 128,-1,34
 547 882 547 882 554 891 c 128,-1,35
 561 900 561 900 564.5 907.5 c 128,-1,36
 568 915 568 915 568 917 c 2,37,-1
 610 917 l 1,38,39
 609 912 609 912 602 897 c 128,-1,40
 595 882 595 882 581 866 c 128,-1,41
 567 850 567 850 546 837.5 c 128,-1,42
 525 825 525 825 495 825 c 0,11,12
EndSplineSet
EndChar

StartChar: Adieresis
Encoding: 196 196 135
Width: 651
GlyphClass: 2
Flags: W
LayerCount: 2
Fore
SplineSet
386 710 m 1,0,-1
 446 710 l 1,1,-1
 574 0 l 1,2,-1
 500 0 l 1,3,-1
 461 222 l 1,4,-1
 162 222 l 1,5,-1
 30 0 l 1,6,-1
 -45 0 l 1,7,-1
 386 710 l 1,0,-1
457 277 m 1,8,-1
 399 628 l 1,9,-1
 188 277 l 1,10,-1
 457 277 l 1,8,-1
328 820 m 1,11,-1
 349 914 l 1,12,-1
 407 914 l 1,13,-1
 386 820 l 1,14,-1
 328 820 l 1,11,-1
472 820 m 1,15,-1
 492 914 l 1,16,-1
 549 914 l 1,17,-1
 530 820 l 1,18,-1
 472 820 l 1,15,-1
EndSplineSet
EndChar

StartChar: Aring
Encoding: 197 197 136
Width: 651
GlyphClass: 2
Flags: W
LayerCount: 2
Fore
SplineSet
386 710 m 1,0,-1
 446 710 l 1,1,-1
 574 0 l 1,2,-1
 500 0 l 1,3,-1
 461 222 l 1,4,-1
 162 222 l 1,5,-1
 30 0 l 1,6,-1
 -45 0 l 1,7,-1
 386 710 l 1,0,-1
457 277 m 1,8,-1
 399 628 l 1,9,-1
 188 277 l 1,10,-1
 457 277 l 1,8,-1
372 839 m 0,11,12
 372 874 372 874 398 895.5 c 128,-1,13
 424 917 424 917 459 917 c 0,14,15
 486 917 486 917 501.5 902.5 c 128,-1,16
 517 888 517 888 517 864 c 0,17,18
 517 830 517 830 492 808 c 128,-1,19
 467 786 467 786 430 786 c 0,20,21
 403 786 403 786 387.5 800.5 c 128,-1,22
 372 815 372 815 372 839 c 0,11,12
453 890 m 0,23,24
 435 890 435 890 420 877 c 128,-1,25
 405 864 405 864 405 844 c 0,26,27
 405 831 405 831 413.5 822 c 128,-1,28
 422 813 422 813 436 813 c 0,29,30
 453 813 453 813 469 826 c 128,-1,31
 485 839 485 839 485 859 c 0,32,33
 485 873 485 873 476 881.5 c 128,-1,34
 467 890 467 890 453 890 c 0,23,24
EndSplineSet
EndChar

StartChar: AE
Encoding: 198 198 137
Width: 923
GlyphClass: 2
Flags: W
LayerCount: 2
Fore
SplineSet
503 710 m 1,0,-1
 962 710 l 1,1,-1
 948 648 l 1,2,-1
 577 648 l 1,3,-1
 524 393 l 1,4,-1
 843 393 l 1,5,-1
 829 331 l 1,6,-1
 510 331 l 1,7,-1
 453 62 l 1,8,-1
 832 62 l 1,9,-1
 819 0 l 1,10,-1
 371 0 l 1,11,-1
 418 222 l 1,12,-1
 174 222 l 1,13,-1
 -5 0 l 1,14,-1
 -81 0 l 1,15,-1
 503 710 l 1,0,-1
427 284 m 1,16,-1
 500 626 l 1,17,-1
 219 284 l 1,18,-1
 427 284 l 1,16,-1
EndSplineSet
EndChar

StartChar: Ccedilla
Encoding: 199 199 138
Width: 652
GlyphClass: 2
Flags: W
LayerCount: 2
Fore
SplineSet
183 -126 m 1,0,1
 194 -133 194 -133 215.5 -138.5 c 128,-1,2
 237 -144 237 -144 262 -144 c 0,3,4
 326 -144 326 -144 326 -101 c 0,5,6
 326 -85 326 -85 314.5 -79 c 128,-1,7
 303 -73 303 -73 285 -73 c 0,8,9
 265 -73 265 -73 242 -77.5 c 128,-1,10
 219 -82 219 -82 205 -87 c 1,11,-1
 264 -4 l 1,12,13
 211 1 211 1 170 28 c 128,-1,14
 129 55 129 55 100.5 96 c 128,-1,15
 72 137 72 137 57.5 188.5 c 128,-1,16
 43 240 43 240 43 294 c 0,17,18
 43 367 43 367 73.5 441.5 c 128,-1,19
 104 516 104 516 158 576.5 c 128,-1,20
 212 637 212 637 286 675.5 c 128,-1,21
 360 714 360 714 448 714 c 0,22,23
 539 714 539 714 593.5 671 c 128,-1,24
 648 628 648 628 665 559 c 1,25,-1
 602 525 l 1,26,27
 593 560 593 560 575.5 584 c 128,-1,28
 558 608 558 608 535 623 c 128,-1,29
 512 638 512 638 485 644.5 c 128,-1,30
 458 651 458 651 431 651 c 0,31,32
 361 651 361 651 302.5 618.5 c 128,-1,33
 244 586 244 586 202 534.5 c 128,-1,34
 160 483 160 483 136.5 420 c 128,-1,35
 113 357 113 357 113 297 c 0,36,37
 113 248 113 248 126.5 204.5 c 128,-1,38
 140 161 140 161 165 128 c 128,-1,39
 190 95 190 95 226 76 c 128,-1,40
 262 57 262 57 307 57 c 0,41,42
 335 57 335 57 366.5 64.5 c 128,-1,43
 398 72 398 72 429 88.5 c 128,-1,44
 460 105 460 105 489 129.5 c 128,-1,45
 518 154 518 154 541 189 c 1,46,-1
 593 159 l 1,47,48
 569 121 569 121 535 91 c 128,-1,49
 501 61 501 61 462 40 c 128,-1,50
 423 19 423 19 381.5 7.5 c 128,-1,51
 340 -4 340 -4 302 -5 c 1,52,-1
 266 -51 l 1,53,54
 275 -47 275 -47 285 -46 c 128,-1,55
 295 -45 295 -45 303 -45 c 0,56,57
 332 -45 332 -45 348 -57.5 c 128,-1,58
 364 -70 364 -70 364 -94 c 0,59,60
 364 -132 364 -132 334.5 -154 c 128,-1,61
 305 -176 305 -176 249 -176 c 0,62,63
 222 -176 222 -176 199 -170.5 c 128,-1,64
 176 -165 176 -165 159 -157 c 1,65,-1
 183 -126 l 1,0,1
EndSplineSet
EndChar

StartChar: Egrave
Encoding: 200 200 139
Width: 582
GlyphClass: 2
Flags: W
LayerCount: 2
Fore
SplineSet
175 710 m 1,0,-1
 620 710 l 1,1,-1
 607 648 l 1,2,-1
 231 648 l 1,3,-1
 176 392 l 1,4,-1
 504 392 l 1,5,-1
 492 333 l 1,6,-1
 164 333 l 1,7,-1
 106 62 l 1,8,-1
 491 62 l 1,9,-1
 478 0 l 1,10,-1
 24 0 l 1,11,-1
 175 710 l 1,0,-1
356 917 m 1,12,-1
 426 917 l 1,13,-1
 464 824 l 1,14,-1
 415 807 l 1,15,-1
 356 917 l 1,12,-1
EndSplineSet
EndChar

StartChar: Eacute
Encoding: 201 201 140
Width: 582
GlyphClass: 2
Flags: W
LayerCount: 2
Fore
SplineSet
422 807 m 1,0,-1
 380 824 l 1,1,-1
 456 917 l 1,2,-1
 527 917 l 1,3,-1
 422 807 l 1,0,-1
175 710 m 1,4,-1
 620 710 l 1,5,-1
 607 648 l 1,6,-1
 231 648 l 1,7,-1
 176 392 l 1,8,-1
 504 392 l 1,9,-1
 492 333 l 1,10,-1
 164 333 l 1,11,-1
 106 62 l 1,12,-1
 491 62 l 1,13,-1
 478 0 l 1,14,-1
 24 0 l 1,15,-1
 175 710 l 1,4,-1
EndSplineSet
EndChar

StartChar: Ecircumflex
Encoding: 202 202 141
Width: 582
GlyphClass: 2
Flags: W
LayerCount: 2
Fore
SplineSet
313 832 m 1,0,-1
 426 917 l 1,1,-1
 476 917 l 1,2,-1
 551 832 l 1,3,-1
 509 811 l 1,4,-1
 441 874 l 1,5,-1
 347 811 l 1,6,-1
 313 832 l 1,0,-1
175 710 m 1,7,-1
 620 710 l 1,8,-1
 607 648 l 1,9,-1
 231 648 l 1,10,-1
 176 392 l 1,11,-1
 504 392 l 1,12,-1
 492 333 l 1,13,-1
 164 333 l 1,14,-1
 106 62 l 1,15,-1
 491 62 l 1,16,-1
 478 0 l 1,17,-1
 24 0 l 1,18,-1
 175 710 l 1,7,-1
EndSplineSet
EndChar

StartChar: Edieresis
Encoding: 203 203 142
Width: 582
GlyphClass: 2
Flags: W
LayerCount: 2
Fore
SplineSet
320 820 m 1,0,-1
 341 914 l 1,1,-1
 399 914 l 1,2,-1
 378 820 l 1,3,-1
 320 820 l 1,0,-1
464 820 m 1,4,-1
 484 914 l 1,5,-1
 541 914 l 1,6,-1
 522 820 l 1,7,-1
 464 820 l 1,4,-1
175 710 m 1,8,-1
 620 710 l 1,9,-1
 607 648 l 1,10,-1
 231 648 l 1,11,-1
 176 392 l 1,12,-1
 504 392 l 1,13,-1
 492 333 l 1,14,-1
 164 333 l 1,15,-1
 106 62 l 1,16,-1
 491 62 l 1,17,-1
 478 0 l 1,18,-1
 24 0 l 1,19,-1
 175 710 l 1,8,-1
EndSplineSet
EndChar

StartChar: Igrave
Encoding: 204 204 143
Width: 245
GlyphClass: 2
Flags: W
LayerCount: 2
Fore
SplineSet
175 709 m 1,0,-1
 244 709 l 1,1,-1
 93 0 l 1,2,-1
 24 0 l 1,3,-1
 175 709 l 1,0,-1
163 917 m 1,4,-1
 233 917 l 1,5,-1
 271 824 l 1,6,-1
 222 807 l 1,7,-1
 163 917 l 1,4,-1
EndSplineSet
EndChar

StartChar: Iacute
Encoding: 205 205 144
Width: 245
GlyphClass: 2
Flags: W
LayerCount: 2
Fore
SplineSet
175 709 m 1,0,-1
 244 709 l 1,1,-1
 93 0 l 1,2,-1
 24 0 l 1,3,-1
 175 709 l 1,0,-1
223 807 m 1,4,-1
 181 824 l 1,5,-1
 257 917 l 1,6,-1
 328 917 l 1,7,-1
 223 807 l 1,4,-1
EndSplineSet
EndChar

StartChar: Icircumflex
Encoding: 206 206 145
Width: 245
GlyphClass: 2
Flags: W
LayerCount: 2
Fore
SplineSet
175 709 m 1,0,-1
 244 709 l 1,1,-1
 93 0 l 1,2,-1
 24 0 l 1,3,-1
 175 709 l 1,0,-1
115 832 m 1,4,-1
 228 917 l 1,5,-1
 278 917 l 1,6,-1
 353 832 l 1,7,-1
 311 811 l 1,8,-1
 243 874 l 1,9,-1
 149 811 l 1,10,-1
 115 832 l 1,4,-1
EndSplineSet
EndChar

StartChar: Idieresis
Encoding: 207 207 146
Width: 245
GlyphClass: 2
Flags: W
LayerCount: 2
Fore
SplineSet
175 709 m 1,0,-1
 244 709 l 1,1,-1
 93 0 l 1,2,-1
 24 0 l 1,3,-1
 175 709 l 1,0,-1
130 820 m 1,4,-1
 151 914 l 1,5,-1
 209 914 l 1,6,-1
 188 820 l 1,7,-1
 130 820 l 1,4,-1
274 820 m 1,8,-1
 294 914 l 1,9,-1
 351 914 l 1,10,-1
 332 820 l 1,11,-1
 274 820 l 1,8,-1
EndSplineSet
EndChar

StartChar: Eth
Encoding: 208 208 147
Width: 697
GlyphClass: 2
Flags: W
LayerCount: 2
Fore
SplineSet
55 384 m 1,0,-1
 112 384 l 1,1,-1
 182 710 l 1,2,-1
 412 710 l 2,3,4
 478 710 478 710 527 689 c 128,-1,5
 576 668 576 668 608 631 c 128,-1,6
 640 594 640 594 655.5 544.5 c 128,-1,7
 671 495 671 495 671 438 c 0,8,9
 671 344 671 344 640 263.5 c 128,-1,10
 609 183 609 183 554 124.5 c 128,-1,11
 499 66 499 66 424 33 c 128,-1,12
 349 0 349 0 261 0 c 2,13,-1
 31 0 l 1,14,-1
 101 330 l 1,15,-1
 43 330 l 1,16,-1
 55 384 l 1,0,-1
274 62 m 2,17,18
 349 62 349 62 409.5 92 c 128,-1,19
 470 122 470 122 512 172.5 c 128,-1,20
 554 223 554 223 576.5 289 c 128,-1,21
 599 355 599 355 599 427 c 0,22,23
 599 475 599 475 586.5 516 c 128,-1,24
 574 557 574 557 548.5 586 c 128,-1,25
 523 615 523 615 485.5 631.5 c 128,-1,26
 448 648 448 648 398 648 c 2,27,-1
 238 648 l 1,28,-1
 181 384 l 1,29,-1
 342 384 l 1,30,-1
 331 330 l 1,31,-1
 170 330 l 1,32,-1
 113 62 l 1,33,-1
 274 62 l 2,17,18
EndSplineSet
EndChar

StartChar: Ntilde
Encoding: 209 209 148
Width: 740
GlyphClass: 2
Flags: W
LayerCount: 2
Fore
SplineSet
175 710 m 1,0,-1
 229 710 l 1,1,-1
 545 119 l 1,2,-1
 670 709 l 1,3,-1
 739 709 l 1,4,-1
 588 0 l 1,5,-1
 529 0 l 1,6,-1
 216 580 l 1,7,-1
 93 0 l 1,8,-1
 24 0 l 1,9,-1
 175 710 l 1,0,-1
542 825 m 0,10,11
 521 825 521 825 506.5 831 c 128,-1,12
 492 837 492 837 480 844.5 c 128,-1,13
 468 852 468 852 456 858.5 c 128,-1,14
 444 865 444 865 429 865 c 256,15,16
 414 865 414 865 403 858 c 128,-1,17
 392 851 392 851 385.5 842.5 c 128,-1,18
 379 834 379 834 375.5 826.5 c 128,-1,19
 372 819 372 819 372 817 c 2,20,-1
 330 817 l 1,21,22
 331 822 331 822 338 837.5 c 128,-1,23
 345 853 345 853 358 869 c 128,-1,24
 371 885 371 885 391 897.5 c 128,-1,25
 411 910 411 910 438 910 c 0,26,27
 458 910 458 910 471.5 903.5 c 128,-1,28
 485 897 485 897 497 889 c 128,-1,29
 509 881 509 881 521 874.5 c 128,-1,30
 533 868 533 868 551 868 c 256,31,32
 569 868 569 868 581.5 875 c 128,-1,33
 594 882 594 882 601 891 c 128,-1,34
 608 900 608 900 611.5 907.5 c 128,-1,35
 615 915 615 915 615 917 c 2,36,-1
 657 917 l 1,37,38
 656 912 656 912 649 897 c 128,-1,39
 642 882 642 882 628 866 c 128,-1,40
 614 850 614 850 593 837.5 c 128,-1,41
 572 825 572 825 542 825 c 0,10,11
EndSplineSet
EndChar

StartChar: Ograve
Encoding: 210 210 149
Width: 722
GlyphClass: 2
Flags: W
LayerCount: 2
Fore
SplineSet
296 -5 m 0,0,1
 236 -5 236 -5 189.5 19.5 c 128,-1,2
 143 44 143 44 111 84.5 c 128,-1,3
 79 125 79 125 62.5 178 c 128,-1,4
 46 231 46 231 46 288 c 0,5,6
 46 369 46 369 80 446 c 128,-1,7
 114 523 114 523 170.5 583 c 128,-1,8
 227 643 227 643 299.5 679 c 128,-1,9
 372 715 372 715 450 715 c 0,10,11
 510 715 510 715 556 690 c 128,-1,12
 602 665 602 665 633.5 624 c 128,-1,13
 665 583 665 583 681.5 530 c 128,-1,14
 698 477 698 477 698 420 c 0,15,16
 698 339 698 339 664.5 262.5 c 128,-1,17
 631 186 631 186 575 126.5 c 128,-1,18
 519 67 519 67 446.5 31 c 128,-1,19
 374 -5 374 -5 296 -5 c 0,0,1
310 58 m 0,20,21
 376 58 376 58 433.5 90 c 128,-1,22
 491 122 491 122 534.5 173.5 c 128,-1,23
 578 225 578 225 603 288.5 c 128,-1,24
 628 352 628 352 628 415 c 0,25,26
 628 462 628 462 615 505 c 128,-1,27
 602 548 602 548 577.5 580.5 c 128,-1,28
 553 613 553 613 517 632 c 128,-1,29
 481 651 481 651 436 651 c 0,30,31
 370 651 370 651 312 619 c 128,-1,32
 254 587 254 587 210.5 536 c 128,-1,33
 167 485 167 485 142 421.5 c 128,-1,34
 117 358 117 358 117 294 c 0,35,36
 117 247 117 247 129.5 204 c 128,-1,37
 142 161 142 161 167 128.5 c 128,-1,38
 192 96 192 96 227.5 77 c 128,-1,39
 263 58 263 58 310 58 c 0,20,21
422 917 m 1,40,-1
 492 917 l 1,41,-1
 530 824 l 1,42,-1
 481 807 l 1,43,-1
 422 917 l 1,40,-1
EndSplineSet
EndChar

StartChar: Oacute
Encoding: 211 211 150
Width: 722
GlyphClass: 2
Flags: W
LayerCount: 2
Fore
SplineSet
471 807 m 1,0,-1
 429 824 l 1,1,-1
 505 917 l 1,2,-1
 576 917 l 1,3,-1
 471 807 l 1,0,-1
296 -5 m 0,4,5
 236 -5 236 -5 189.5 19.5 c 128,-1,6
 143 44 143 44 111 84.5 c 128,-1,7
 79 125 79 125 62.5 178 c 128,-1,8
 46 231 46 231 46 288 c 0,9,10
 46 369 46 369 80 446 c 128,-1,11
 114 523 114 523 170.5 583 c 128,-1,12
 227 643 227 643 299.5 679 c 128,-1,13
 372 715 372 715 450 715 c 0,14,15
 510 715 510 715 556 690 c 128,-1,16
 602 665 602 665 633.5 624 c 128,-1,17
 665 583 665 583 681.5 530 c 128,-1,18
 698 477 698 477 698 420 c 0,19,20
 698 339 698 339 664.5 262.5 c 128,-1,21
 631 186 631 186 575 126.5 c 128,-1,22
 519 67 519 67 446.5 31 c 128,-1,23
 374 -5 374 -5 296 -5 c 0,4,5
310 58 m 0,24,25
 376 58 376 58 433.5 90 c 128,-1,26
 491 122 491 122 534.5 173.5 c 128,-1,27
 578 225 578 225 603 288.5 c 128,-1,28
 628 352 628 352 628 415 c 0,29,30
 628 462 628 462 615 505 c 128,-1,31
 602 548 602 548 577.5 580.5 c 128,-1,32
 553 613 553 613 517 632 c 128,-1,33
 481 651 481 651 436 651 c 0,34,35
 370 651 370 651 312 619 c 128,-1,36
 254 587 254 587 210.5 536 c 128,-1,37
 167 485 167 485 142 421.5 c 128,-1,38
 117 358 117 358 117 294 c 0,39,40
 117 247 117 247 129.5 204 c 128,-1,41
 142 161 142 161 167 128.5 c 128,-1,42
 192 96 192 96 227.5 77 c 128,-1,43
 263 58 263 58 310 58 c 0,24,25
EndSplineSet
EndChar

StartChar: Ocircumflex
Encoding: 212 212 151
Width: 722
GlyphClass: 2
Flags: W
LayerCount: 2
Fore
SplineSet
362 832 m 1,0,-1
 475 917 l 1,1,-1
 525 917 l 1,2,-1
 600 832 l 1,3,-1
 558 811 l 1,4,-1
 490 874 l 1,5,-1
 396 811 l 1,6,-1
 362 832 l 1,0,-1
296 -5 m 0,7,8
 236 -5 236 -5 189.5 19.5 c 128,-1,9
 143 44 143 44 111 84.5 c 128,-1,10
 79 125 79 125 62.5 178 c 128,-1,11
 46 231 46 231 46 288 c 0,12,13
 46 369 46 369 80 446 c 128,-1,14
 114 523 114 523 170.5 583 c 128,-1,15
 227 643 227 643 299.5 679 c 128,-1,16
 372 715 372 715 450 715 c 0,17,18
 510 715 510 715 556 690 c 128,-1,19
 602 665 602 665 633.5 624 c 128,-1,20
 665 583 665 583 681.5 530 c 128,-1,21
 698 477 698 477 698 420 c 0,22,23
 698 339 698 339 664.5 262.5 c 128,-1,24
 631 186 631 186 575 126.5 c 128,-1,25
 519 67 519 67 446.5 31 c 128,-1,26
 374 -5 374 -5 296 -5 c 0,7,8
310 58 m 0,27,28
 376 58 376 58 433.5 90 c 128,-1,29
 491 122 491 122 534.5 173.5 c 128,-1,30
 578 225 578 225 603 288.5 c 128,-1,31
 628 352 628 352 628 415 c 0,32,33
 628 462 628 462 615 505 c 128,-1,34
 602 548 602 548 577.5 580.5 c 128,-1,35
 553 613 553 613 517 632 c 128,-1,36
 481 651 481 651 436 651 c 0,37,38
 370 651 370 651 312 619 c 128,-1,39
 254 587 254 587 210.5 536 c 128,-1,40
 167 485 167 485 142 421.5 c 128,-1,41
 117 358 117 358 117 294 c 0,42,43
 117 247 117 247 129.5 204 c 128,-1,44
 142 161 142 161 167 128.5 c 128,-1,45
 192 96 192 96 227.5 77 c 128,-1,46
 263 58 263 58 310 58 c 0,27,28
EndSplineSet
EndChar

StartChar: Otilde
Encoding: 213 213 152
Width: 722
GlyphClass: 2
Flags: W
LayerCount: 2
Fore
SplineSet
296 -5 m 0,0,1
 236 -5 236 -5 189.5 19.5 c 128,-1,2
 143 44 143 44 111 84.5 c 128,-1,3
 79 125 79 125 62.5 178 c 128,-1,4
 46 231 46 231 46 288 c 0,5,6
 46 369 46 369 80 446 c 128,-1,7
 114 523 114 523 170.5 583 c 128,-1,8
 227 643 227 643 299.5 679 c 128,-1,9
 372 715 372 715 450 715 c 0,10,11
 510 715 510 715 556 690 c 128,-1,12
 602 665 602 665 633.5 624 c 128,-1,13
 665 583 665 583 681.5 530 c 128,-1,14
 698 477 698 477 698 420 c 0,15,16
 698 339 698 339 664.5 262.5 c 128,-1,17
 631 186 631 186 575 126.5 c 128,-1,18
 519 67 519 67 446.5 31 c 128,-1,19
 374 -5 374 -5 296 -5 c 0,0,1
310 58 m 0,20,21
 376 58 376 58 433.5 90 c 128,-1,22
 491 122 491 122 534.5 173.5 c 128,-1,23
 578 225 578 225 603 288.5 c 128,-1,24
 628 352 628 352 628 415 c 0,25,26
 628 462 628 462 615 505 c 128,-1,27
 602 548 602 548 577.5 580.5 c 128,-1,28
 553 613 553 613 517 632 c 128,-1,29
 481 651 481 651 436 651 c 0,30,31
 370 651 370 651 312 619 c 128,-1,32
 254 587 254 587 210.5 536 c 128,-1,33
 167 485 167 485 142 421.5 c 128,-1,34
 117 358 117 358 117 294 c 0,35,36
 117 247 117 247 129.5 204 c 128,-1,37
 142 161 142 161 167 128.5 c 128,-1,38
 192 96 192 96 227.5 77 c 128,-1,39
 263 58 263 58 310 58 c 0,20,21
532 825 m 0,40,41
 511 825 511 825 496.5 831 c 128,-1,42
 482 837 482 837 470 844.5 c 128,-1,43
 458 852 458 852 446 858.5 c 128,-1,44
 434 865 434 865 419 865 c 256,45,46
 404 865 404 865 393 858 c 128,-1,47
 382 851 382 851 375.5 842.5 c 128,-1,48
 369 834 369 834 365.5 826.5 c 128,-1,49
 362 819 362 819 362 817 c 2,50,-1
 320 817 l 1,51,52
 321 822 321 822 328 837.5 c 128,-1,53
 335 853 335 853 348 869 c 128,-1,54
 361 885 361 885 381 897.5 c 128,-1,55
 401 910 401 910 428 910 c 0,56,57
 448 910 448 910 461.5 903.5 c 128,-1,58
 475 897 475 897 487 889 c 128,-1,59
 499 881 499 881 511 874.5 c 128,-1,60
 523 868 523 868 541 868 c 256,61,62
 559 868 559 868 571.5 875 c 128,-1,63
 584 882 584 882 591 891 c 128,-1,64
 598 900 598 900 601.5 907.5 c 128,-1,65
 605 915 605 915 605 917 c 2,66,-1
 647 917 l 1,67,68
 646 912 646 912 639 897 c 128,-1,69
 632 882 632 882 618 866 c 128,-1,70
 604 850 604 850 583 837.5 c 128,-1,71
 562 825 562 825 532 825 c 0,40,41
EndSplineSet
EndChar

StartChar: Odieresis
Encoding: 214 214 153
Width: 722
GlyphClass: 2
Flags: W
LayerCount: 2
Fore
SplineSet
372 820 m 1,0,-1
 393 914 l 1,1,-1
 451 914 l 1,2,-1
 430 820 l 1,3,-1
 372 820 l 1,0,-1
516 820 m 1,4,-1
 536 914 l 1,5,-1
 593 914 l 1,6,-1
 574 820 l 1,7,-1
 516 820 l 1,4,-1
296 -5 m 0,8,9
 236 -5 236 -5 189.5 19.5 c 128,-1,10
 143 44 143 44 111 84.5 c 128,-1,11
 79 125 79 125 62.5 178 c 128,-1,12
 46 231 46 231 46 288 c 0,13,14
 46 369 46 369 80 446 c 128,-1,15
 114 523 114 523 170.5 583 c 128,-1,16
 227 643 227 643 299.5 679 c 128,-1,17
 372 715 372 715 450 715 c 0,18,19
 510 715 510 715 556 690 c 128,-1,20
 602 665 602 665 633.5 624 c 128,-1,21
 665 583 665 583 681.5 530 c 128,-1,22
 698 477 698 477 698 420 c 0,23,24
 698 339 698 339 664.5 262.5 c 128,-1,25
 631 186 631 186 575 126.5 c 128,-1,26
 519 67 519 67 446.5 31 c 128,-1,27
 374 -5 374 -5 296 -5 c 0,8,9
310 58 m 0,28,29
 376 58 376 58 433.5 90 c 128,-1,30
 491 122 491 122 534.5 173.5 c 128,-1,31
 578 225 578 225 603 288.5 c 128,-1,32
 628 352 628 352 628 415 c 0,33,34
 628 462 628 462 615 505 c 128,-1,35
 602 548 602 548 577.5 580.5 c 128,-1,36
 553 613 553 613 517 632 c 128,-1,37
 481 651 481 651 436 651 c 0,38,39
 370 651 370 651 312 619 c 128,-1,40
 254 587 254 587 210.5 536 c 128,-1,41
 167 485 167 485 142 421.5 c 128,-1,42
 117 358 117 358 117 294 c 0,43,44
 117 247 117 247 129.5 204 c 128,-1,45
 142 161 142 161 167 128.5 c 128,-1,46
 192 96 192 96 227.5 77 c 128,-1,47
 263 58 263 58 310 58 c 0,28,29
EndSplineSet
EndChar

StartChar: multiply
Encoding: 215 215 154
Width: 468
GlyphClass: 2
Flags: W
LayerCount: 2
Fore
SplineSet
392 151 m 1,0,-1
 348 108 l 1,1,-1
 226 229 l 1,2,-1
 105 108 l 1,3,-1
 62 152 l 1,4,-1
 182 272 l 1,5,-1
 63 393 l 1,6,-1
 107 436 l 1,7,-1
 226 316 l 1,8,-1
 347 437 l 1,9,-1
 390 393 l 1,10,-1
 270 272 l 1,11,-1
 392 151 l 1,0,-1
EndSplineSet
EndChar

StartChar: Oslash
Encoding: 216 216 155
Width: 722
GlyphClass: 2
Flags: W
LayerCount: 2
Fore
SplineSet
713 710 m 1,0,-1
 637 620 l 1,1,2
 667 578 667 578 682.5 526.5 c 128,-1,3
 698 475 698 475 698 420 c 0,4,5
 698 339 698 339 664.5 262.5 c 128,-1,6
 631 186 631 186 575 126.5 c 128,-1,7
 519 67 519 67 446.5 31 c 128,-1,8
 374 -5 374 -5 296 -5 c 0,9,10
 252 -5 252 -5 215.5 8 c 128,-1,11
 179 21 179 21 150 44 c 1,12,-1
 113 0 l 1,13,-1
 36 0 l 1,14,-1
 109 86 l 1,15,16
 78 127 78 127 62 179 c 128,-1,17
 46 231 46 231 46 288 c 0,18,19
 46 369 46 369 80 446 c 128,-1,20
 114 523 114 523 170.5 583 c 128,-1,21
 227 643 227 643 299.5 679 c 128,-1,22
 372 715 372 715 450 715 c 0,23,24
 495 715 495 715 531.5 701 c 128,-1,25
 568 687 568 687 597 663 c 1,26,-1
 637 710 l 1,27,-1
 713 710 l 1,0,-1
117 294 m 0,28,29
 117 251 117 251 127 212.5 c 128,-1,30
 137 174 137 174 157 143 c 1,31,-1
 551 608 l 1,32,33
 528 628 528 628 499.5 639.5 c 128,-1,34
 471 651 471 651 436 651 c 0,35,36
 370 651 370 651 312 619 c 128,-1,37
 254 587 254 587 210.5 536 c 128,-1,38
 167 485 167 485 142 421.5 c 128,-1,39
 117 358 117 358 117 294 c 0,28,29
310 58 m 0,40,41
 376 58 376 58 433.5 90 c 128,-1,42
 491 122 491 122 534.5 173.5 c 128,-1,43
 578 225 578 225 603 288.5 c 128,-1,44
 628 352 628 352 628 415 c 0,45,46
 628 457 628 457 618 494.5 c 128,-1,47
 608 532 608 532 589 563 c 1,48,-1
 196 98 l 1,49,50
 219 79 219 79 247 68.5 c 128,-1,51
 275 58 275 58 310 58 c 0,40,41
EndSplineSet
EndChar

StartChar: Ugrave
Encoding: 217 217 156
Width: 724
GlyphClass: 2
Flags: W
LayerCount: 2
Fore
SplineSet
298 -5 m 0,0,1
 236 -5 236 -5 193 13.5 c 128,-1,2
 150 32 150 32 124 64 c 128,-1,3
 98 96 98 96 86.5 138.5 c 128,-1,4
 75 181 75 181 75 230 c 0,5,6
 75 287 75 287 89 352 c 2,7,-1
 165 710 l 1,8,-1
 234 710 l 1,9,-1
 158 352 l 2,10,11
 152 323 152 323 148.5 295.5 c 128,-1,12
 145 268 145 268 145 242 c 0,13,14
 145 203 145 203 153.5 169.5 c 128,-1,15
 162 136 162 136 181.5 111.5 c 128,-1,16
 201 87 201 87 232.5 72.5 c 128,-1,17
 264 58 264 58 310 58 c 0,18,19
 373 58 373 58 420.5 83.5 c 128,-1,20
 468 109 468 109 501.5 150.5 c 128,-1,21
 535 192 535 192 556 245 c 128,-1,22
 577 298 577 298 588 352 c 2,23,-1
 664 710 l 1,24,-1
 733 710 l 1,25,-1
 658 352 l 2,26,27
 643 280 643 280 614 215 c 128,-1,28
 585 150 585 150 540.5 101.5 c 128,-1,29
 496 53 496 53 436 24 c 128,-1,30
 376 -5 376 -5 298 -5 c 0,0,1
409 917 m 1,31,-1
 479 917 l 1,32,-1
 517 824 l 1,33,-1
 468 807 l 1,34,-1
 409 917 l 1,31,-1
EndSplineSet
EndChar

StartChar: Uacute
Encoding: 218 218 157
Width: 724
GlyphClass: 2
Flags: W
LayerCount: 2
Fore
SplineSet
458 807 m 1,0,-1
 416 824 l 1,1,-1
 492 917 l 1,2,-1
 563 917 l 1,3,-1
 458 807 l 1,0,-1
298 -5 m 0,4,5
 236 -5 236 -5 193 13.5 c 128,-1,6
 150 32 150 32 124 64 c 128,-1,7
 98 96 98 96 86.5 138.5 c 128,-1,8
 75 181 75 181 75 230 c 0,9,10
 75 287 75 287 89 352 c 2,11,-1
 165 710 l 1,12,-1
 234 710 l 1,13,-1
 158 352 l 2,14,15
 152 323 152 323 148.5 295.5 c 128,-1,16
 145 268 145 268 145 242 c 0,17,18
 145 203 145 203 153.5 169.5 c 128,-1,19
 162 136 162 136 181.5 111.5 c 128,-1,20
 201 87 201 87 232.5 72.5 c 128,-1,21
 264 58 264 58 310 58 c 0,22,23
 373 58 373 58 420.5 83.5 c 128,-1,24
 468 109 468 109 501.5 150.5 c 128,-1,25
 535 192 535 192 556 245 c 128,-1,26
 577 298 577 298 588 352 c 2,27,-1
 664 710 l 1,28,-1
 733 710 l 1,29,-1
 658 352 l 2,30,31
 643 280 643 280 614 215 c 128,-1,32
 585 150 585 150 540.5 101.5 c 128,-1,33
 496 53 496 53 436 24 c 128,-1,34
 376 -5 376 -5 298 -5 c 0,4,5
EndSplineSet
EndChar

StartChar: Ucircumflex
Encoding: 219 219 158
Width: 724
GlyphClass: 2
Flags: W
LayerCount: 2
Fore
SplineSet
352 832 m 1,0,-1
 465 917 l 1,1,-1
 515 917 l 1,2,-1
 590 832 l 1,3,-1
 548 811 l 1,4,-1
 480 874 l 1,5,-1
 386 811 l 1,6,-1
 352 832 l 1,0,-1
298 -5 m 0,7,8
 236 -5 236 -5 193 13.5 c 128,-1,9
 150 32 150 32 124 64 c 128,-1,10
 98 96 98 96 86.5 138.5 c 128,-1,11
 75 181 75 181 75 230 c 0,12,13
 75 287 75 287 89 352 c 2,14,-1
 165 710 l 1,15,-1
 234 710 l 1,16,-1
 158 352 l 2,17,18
 152 323 152 323 148.5 295.5 c 128,-1,19
 145 268 145 268 145 242 c 0,20,21
 145 203 145 203 153.5 169.5 c 128,-1,22
 162 136 162 136 181.5 111.5 c 128,-1,23
 201 87 201 87 232.5 72.5 c 128,-1,24
 264 58 264 58 310 58 c 0,25,26
 373 58 373 58 420.5 83.5 c 128,-1,27
 468 109 468 109 501.5 150.5 c 128,-1,28
 535 192 535 192 556 245 c 128,-1,29
 577 298 577 298 588 352 c 2,30,-1
 664 710 l 1,31,-1
 733 710 l 1,32,-1
 658 352 l 2,33,34
 643 280 643 280 614 215 c 128,-1,35
 585 150 585 150 540.5 101.5 c 128,-1,36
 496 53 496 53 436 24 c 128,-1,37
 376 -5 376 -5 298 -5 c 0,7,8
EndSplineSet
EndChar

StartChar: Udieresis
Encoding: 220 220 159
Width: 724
GlyphClass: 2
Flags: W
LayerCount: 2
Fore
SplineSet
365 820 m 1,0,-1
 386 914 l 1,1,-1
 444 914 l 1,2,-1
 423 820 l 1,3,-1
 365 820 l 1,0,-1
509 820 m 1,4,-1
 529 914 l 1,5,-1
 586 914 l 1,6,-1
 567 820 l 1,7,-1
 509 820 l 1,4,-1
298 -5 m 0,8,9
 236 -5 236 -5 193 13.5 c 128,-1,10
 150 32 150 32 124 64 c 128,-1,11
 98 96 98 96 86.5 138.5 c 128,-1,12
 75 181 75 181 75 230 c 0,13,14
 75 287 75 287 89 352 c 2,15,-1
 165 710 l 1,16,-1
 234 710 l 1,17,-1
 158 352 l 2,18,19
 152 323 152 323 148.5 295.5 c 128,-1,20
 145 268 145 268 145 242 c 0,21,22
 145 203 145 203 153.5 169.5 c 128,-1,23
 162 136 162 136 181.5 111.5 c 128,-1,24
 201 87 201 87 232.5 72.5 c 128,-1,25
 264 58 264 58 310 58 c 0,26,27
 373 58 373 58 420.5 83.5 c 128,-1,28
 468 109 468 109 501.5 150.5 c 128,-1,29
 535 192 535 192 556 245 c 128,-1,30
 577 298 577 298 588 352 c 2,31,-1
 664 710 l 1,32,-1
 733 710 l 1,33,-1
 658 352 l 2,34,35
 643 280 643 280 614 215 c 128,-1,36
 585 150 585 150 540.5 101.5 c 128,-1,37
 496 53 496 53 436 24 c 128,-1,38
 376 -5 376 -5 298 -5 c 0,8,9
EndSplineSet
EndChar

StartChar: Yacute
Encoding: 221 221 160
Width: 607
GlyphClass: 2
Flags: W
LayerCount: 2
Fore
SplineSet
257 266 m 1,0,-1
 91 710 l 1,1,-1
 168 710 l 1,2,-1
 305 328 l 1,3,-1
 605 710 l 1,4,-1
 681 710 l 1,5,-1
 325 264 l 1,6,-1
 269 0 l 1,7,-1
 200 0 l 1,8,-1
 257 266 l 1,0,-1
395 807 m 1,9,-1
 353 824 l 1,10,-1
 429 917 l 1,11,-1
 500 917 l 1,12,-1
 395 807 l 1,9,-1
EndSplineSet
EndChar

StartChar: Thorn
Encoding: 222 222 161
Width: 579
GlyphClass: 2
Flags: W
LayerCount: 2
Fore
SplineSet
175 710 m 1,0,-1
 244 710 l 1,1,-1
 214 569 l 1,2,-1
 407 569 l 2,3,4
 444 569 444 569 473.5 553.5 c 128,-1,5
 503 538 503 538 523.5 512 c 128,-1,6
 544 486 544 486 554.5 453 c 128,-1,7
 565 420 565 420 565 384 c 0,8,9
 565 336 565 336 545 289 c 128,-1,10
 525 242 525 242 491.5 204.5 c 128,-1,11
 458 167 458 167 413 144 c 128,-1,12
 368 121 368 121 317 121 c 2,13,-1
 119 121 l 1,14,-1
 93 0 l 1,15,-1
 24 0 l 1,16,-1
 175 710 l 1,0,-1
328 184 m 2,17,18
 362 184 362 184 392.5 201 c 128,-1,19
 423 218 423 218 446 246 c 128,-1,20
 469 274 469 274 482 308 c 128,-1,21
 495 342 495 342 495 377 c 0,22,23
 495 404 495 404 487.5 427.5 c 128,-1,24
 480 451 480 451 466 468.5 c 128,-1,25
 452 486 452 486 433 496.5 c 128,-1,26
 414 507 414 507 390 507 c 2,27,-1
 201 507 l 1,28,-1
 132 184 l 1,29,-1
 328 184 l 2,17,18
EndSplineSet
EndChar

StartChar: germandbls
Encoding: 223 223 162
Width: 529
GlyphClass: 2
Flags: W
LayerCount: 2
Fore
SplineSet
177 57 m 1,0,1
 228 58 228 58 270 70 c 128,-1,2
 312 82 312 82 342 105 c 128,-1,3
 372 128 372 128 388.5 163 c 128,-1,4
 405 198 405 198 405 244 c 0,5,6
 405 301 405 301 371.5 334.5 c 128,-1,7
 338 368 338 368 278 368 c 2,8,-1
 260 368 l 1,9,-1
 274 430 l 1,10,-1
 291 430 l 2,11,12
 319 430 319 430 344.5 440.5 c 128,-1,13
 370 451 370 451 389.5 469 c 128,-1,14
 409 487 409 487 420 511.5 c 128,-1,15
 431 536 431 536 431 565 c 0,16,17
 431 608 431 608 404 631 c 128,-1,18
 377 654 377 654 336 654 c 0,19,20
 305 654 305 654 279.5 642.5 c 128,-1,21
 254 631 254 631 234.5 610.5 c 128,-1,22
 215 590 215 590 201.5 563 c 128,-1,23
 188 536 188 536 181 505 c 2,24,-1
 74 0 l 1,25,-1
 9 0 l 1,26,-1
 118 515 l 2,27,28
 127 559 127 559 149 595.5 c 128,-1,29
 171 632 171 632 202 658.5 c 128,-1,30
 233 685 233 685 271.5 699.5 c 128,-1,31
 310 714 310 714 352 714 c 0,32,33
 385 714 385 714 412 704.5 c 128,-1,34
 439 695 439 695 458.5 677.5 c 128,-1,35
 478 660 478 660 488.5 635.5 c 128,-1,36
 499 611 499 611 499 582 c 0,37,38
 499 551 499 551 487.5 521.5 c 128,-1,39
 476 492 476 492 456.5 468 c 128,-1,40
 437 444 437 444 412.5 426.5 c 128,-1,41
 388 409 388 409 363 403 c 1,42,43
 419 390 419 390 447 347.5 c 128,-1,44
 475 305 475 305 475 248 c 0,45,46
 475 188 475 188 451.5 142 c 128,-1,47
 428 96 428 96 386.5 63.5 c 128,-1,48
 345 31 345 31 288 13.5 c 128,-1,49
 231 -4 231 -4 163 -6 c 1,50,-1
 177 57 l 1,0,1
EndSplineSet
EndChar

StartChar: agrave
Encoding: 224 224 163
Width: 598
GlyphClass: 2
Flags: W
LayerCount: 2
Fore
SplineSet
210 -10 m 0,0,1
 166 -10 166 -10 132 7.5 c 128,-1,2
 98 25 98 25 74 55 c 128,-1,3
 50 85 50 85 37.5 124.5 c 128,-1,4
 25 164 25 164 25 208 c 0,5,6
 25 270 25 270 49 328 c 128,-1,7
 73 386 73 386 113 431 c 128,-1,8
 153 476 153 476 205 503 c 128,-1,9
 257 530 257 530 314 530 c 0,10,11
 377 530 377 530 418 495.5 c 128,-1,12
 459 461 459 461 476 412 c 1,13,-1
 500 521 l 1,14,-1
 568 521 l 1,15,-1
 476 89 l 2,16,17
 474 81 474 81 474 76 c 0,18,19
 474 60 474 60 493 60 c 1,20,-1
 480 0 l 1,21,22
 472 -1 472 -1 465 -2 c 128,-1,23
 458 -3 458 -3 453 -3 c 0,24,25
 430 -1 430 -1 418.5 9.5 c 128,-1,26
 407 20 407 20 407 37 c 0,27,28
 407 45 407 45 409.5 58 c 128,-1,29
 412 71 412 71 418 101 c 1,30,31
 378 50 378 50 321.5 20 c 128,-1,32
 265 -10 265 -10 210 -10 c 0,0,1
238 50 m 0,33,34
 263 50 263 50 292 60 c 128,-1,35
 321 70 321 70 347.5 87.5 c 128,-1,36
 374 105 374 105 395.5 128.5 c 128,-1,37
 417 152 417 152 427 179 c 1,38,-1
 460 340 l 1,39,40
 457 367 457 367 444 390.5 c 128,-1,41
 431 414 431 414 412 431.5 c 128,-1,42
 393 449 393 449 369 459.5 c 128,-1,43
 345 470 345 470 319 470 c 0,44,45
 274 470 274 470 233.5 447.5 c 128,-1,46
 193 425 193 425 162.5 389 c 128,-1,47
 132 353 132 353 114 308 c 128,-1,48
 96 263 96 263 96 218 c 0,49,50
 96 183 96 183 106 152.5 c 128,-1,51
 116 122 116 122 135 99.5 c 128,-1,52
 154 77 154 77 180 63.5 c 128,-1,53
 206 50 206 50 238 50 c 0,33,34
281 730 m 1,54,-1
 351 730 l 1,55,-1
 389 637 l 1,56,-1
 340 620 l 1,57,-1
 281 730 l 1,54,-1
EndSplineSet
EndChar

StartChar: aacute
Encoding: 225 225 164
Width: 598
GlyphClass: 2
Flags: W
LayerCount: 2
Fore
SplineSet
210 -10 m 0,0,1
 166 -10 166 -10 132 7.5 c 128,-1,2
 98 25 98 25 74 55 c 128,-1,3
 50 85 50 85 37.5 124.5 c 128,-1,4
 25 164 25 164 25 208 c 0,5,6
 25 270 25 270 49 328 c 128,-1,7
 73 386 73 386 113 431 c 128,-1,8
 153 476 153 476 205 503 c 128,-1,9
 257 530 257 530 314 530 c 0,10,11
 377 530 377 530 418 495.5 c 128,-1,12
 459 461 459 461 476 412 c 1,13,-1
 500 521 l 1,14,-1
 568 521 l 1,15,-1
 476 89 l 2,16,17
 474 81 474 81 474 76 c 0,18,19
 474 60 474 60 493 60 c 1,20,-1
 480 0 l 1,21,22
 472 -1 472 -1 465 -2 c 128,-1,23
 458 -3 458 -3 453 -3 c 0,24,25
 430 -1 430 -1 418.5 9.5 c 128,-1,26
 407 20 407 20 407 37 c 0,27,28
 407 45 407 45 409.5 58 c 128,-1,29
 412 71 412 71 418 101 c 1,30,31
 378 50 378 50 321.5 20 c 128,-1,32
 265 -10 265 -10 210 -10 c 0,0,1
238 50 m 0,33,34
 263 50 263 50 292 60 c 128,-1,35
 321 70 321 70 347.5 87.5 c 128,-1,36
 374 105 374 105 395.5 128.5 c 128,-1,37
 417 152 417 152 427 179 c 1,38,-1
 460 340 l 1,39,40
 457 367 457 367 444 390.5 c 128,-1,41
 431 414 431 414 412 431.5 c 128,-1,42
 393 449 393 449 369 459.5 c 128,-1,43
 345 470 345 470 319 470 c 0,44,45
 274 470 274 470 233.5 447.5 c 128,-1,46
 193 425 193 425 162.5 389 c 128,-1,47
 132 353 132 353 114 308 c 128,-1,48
 96 263 96 263 96 218 c 0,49,50
 96 183 96 183 106 152.5 c 128,-1,51
 116 122 116 122 135 99.5 c 128,-1,52
 154 77 154 77 180 63.5 c 128,-1,53
 206 50 206 50 238 50 c 0,33,34
350 620 m 1,54,-1
 308 637 l 1,55,-1
 384 730 l 1,56,-1
 455 730 l 1,57,-1
 350 620 l 1,54,-1
EndSplineSet
EndChar

StartChar: acircumflex
Encoding: 226 226 165
Width: 598
GlyphClass: 2
Flags: W
LayerCount: 2
Fore
SplineSet
210 -10 m 0,0,1
 166 -10 166 -10 132 7.5 c 128,-1,2
 98 25 98 25 74 55 c 128,-1,3
 50 85 50 85 37.5 124.5 c 128,-1,4
 25 164 25 164 25 208 c 0,5,6
 25 270 25 270 49 328 c 128,-1,7
 73 386 73 386 113 431 c 128,-1,8
 153 476 153 476 205 503 c 128,-1,9
 257 530 257 530 314 530 c 0,10,11
 377 530 377 530 418 495.5 c 128,-1,12
 459 461 459 461 476 412 c 1,13,-1
 500 521 l 1,14,-1
 568 521 l 1,15,-1
 476 89 l 2,16,17
 474 81 474 81 474 76 c 0,18,19
 474 60 474 60 493 60 c 1,20,-1
 480 0 l 1,21,22
 472 -1 472 -1 465 -2 c 128,-1,23
 458 -3 458 -3 453 -3 c 0,24,25
 430 -1 430 -1 418.5 9.5 c 128,-1,26
 407 20 407 20 407 37 c 0,27,28
 407 45 407 45 409.5 58 c 128,-1,29
 412 71 412 71 418 101 c 1,30,31
 378 50 378 50 321.5 20 c 128,-1,32
 265 -10 265 -10 210 -10 c 0,0,1
238 50 m 0,33,34
 263 50 263 50 292 60 c 128,-1,35
 321 70 321 70 347.5 87.5 c 128,-1,36
 374 105 374 105 395.5 128.5 c 128,-1,37
 417 152 417 152 427 179 c 1,38,-1
 460 340 l 1,39,40
 457 367 457 367 444 390.5 c 128,-1,41
 431 414 431 414 412 431.5 c 128,-1,42
 393 449 393 449 369 459.5 c 128,-1,43
 345 470 345 470 319 470 c 0,44,45
 274 470 274 470 233.5 447.5 c 128,-1,46
 193 425 193 425 162.5 389 c 128,-1,47
 132 353 132 353 114 308 c 128,-1,48
 96 263 96 263 96 218 c 0,49,50
 96 183 96 183 106 152.5 c 128,-1,51
 116 122 116 122 135 99.5 c 128,-1,52
 154 77 154 77 180 63.5 c 128,-1,53
 206 50 206 50 238 50 c 0,33,34
236 645 m 1,54,-1
 349 730 l 1,55,-1
 399 730 l 1,56,-1
 474 645 l 1,57,-1
 432 624 l 1,58,-1
 364 687 l 1,59,-1
 270 624 l 1,60,-1
 236 645 l 1,54,-1
EndSplineSet
EndChar

StartChar: atilde
Encoding: 227 227 166
Width: 598
GlyphClass: 2
Flags: W
LayerCount: 2
Fore
SplineSet
210 -10 m 0,0,1
 166 -10 166 -10 132 7.5 c 128,-1,2
 98 25 98 25 74 55 c 128,-1,3
 50 85 50 85 37.5 124.5 c 128,-1,4
 25 164 25 164 25 208 c 0,5,6
 25 270 25 270 49 328 c 128,-1,7
 73 386 73 386 113 431 c 128,-1,8
 153 476 153 476 205 503 c 128,-1,9
 257 530 257 530 314 530 c 0,10,11
 377 530 377 530 418 495.5 c 128,-1,12
 459 461 459 461 476 412 c 1,13,-1
 500 521 l 1,14,-1
 568 521 l 1,15,-1
 476 89 l 2,16,17
 474 81 474 81 474 76 c 0,18,19
 474 60 474 60 493 60 c 1,20,-1
 480 0 l 1,21,22
 472 -1 472 -1 465 -2 c 128,-1,23
 458 -3 458 -3 453 -3 c 0,24,25
 430 -1 430 -1 418.5 9.5 c 128,-1,26
 407 20 407 20 407 37 c 0,27,28
 407 45 407 45 409.5 58 c 128,-1,29
 412 71 412 71 418 101 c 1,30,31
 378 50 378 50 321.5 20 c 128,-1,32
 265 -10 265 -10 210 -10 c 0,0,1
238 50 m 0,33,34
 263 50 263 50 292 60 c 128,-1,35
 321 70 321 70 347.5 87.5 c 128,-1,36
 374 105 374 105 395.5 128.5 c 128,-1,37
 417 152 417 152 427 179 c 1,38,-1
 460 340 l 1,39,40
 457 367 457 367 444 390.5 c 128,-1,41
 431 414 431 414 412 431.5 c 128,-1,42
 393 449 393 449 369 459.5 c 128,-1,43
 345 470 345 470 319 470 c 0,44,45
 274 470 274 470 233.5 447.5 c 128,-1,46
 193 425 193 425 162.5 389 c 128,-1,47
 132 353 132 353 114 308 c 128,-1,48
 96 263 96 263 96 218 c 0,49,50
 96 183 96 183 106 152.5 c 128,-1,51
 116 122 116 122 135 99.5 c 128,-1,52
 154 77 154 77 180 63.5 c 128,-1,53
 206 50 206 50 238 50 c 0,33,34
406 638 m 0,54,55
 385 638 385 638 370.5 644 c 128,-1,56
 356 650 356 650 344 657.5 c 128,-1,57
 332 665 332 665 320 671.5 c 128,-1,58
 308 678 308 678 293 678 c 256,59,60
 278 678 278 678 267 671 c 128,-1,61
 256 664 256 664 249.5 655.5 c 128,-1,62
 243 647 243 647 239.5 639.5 c 128,-1,63
 236 632 236 632 236 630 c 2,64,-1
 194 630 l 1,65,66
 195 635 195 635 202 650.5 c 128,-1,67
 209 666 209 666 222 682 c 128,-1,68
 235 698 235 698 255 710.5 c 128,-1,69
 275 723 275 723 302 723 c 0,70,71
 322 723 322 723 335.5 716.5 c 128,-1,72
 349 710 349 710 361 702 c 128,-1,73
 373 694 373 694 385 687.5 c 128,-1,74
 397 681 397 681 415 681 c 256,75,76
 433 681 433 681 445.5 688 c 128,-1,77
 458 695 458 695 465 704 c 128,-1,78
 472 713 472 713 475.5 720.5 c 128,-1,79
 479 728 479 728 479 730 c 2,80,-1
 521 730 l 1,81,82
 520 725 520 725 513 710 c 128,-1,83
 506 695 506 695 492 679 c 128,-1,84
 478 663 478 663 457 650.5 c 128,-1,85
 436 638 436 638 406 638 c 0,54,55
EndSplineSet
EndChar

StartChar: adieresis
Encoding: 228 228 167
Width: 598
GlyphClass: 2
Flags: W
LayerCount: 2
Fore
SplineSet
210 -10 m 0,0,1
 166 -10 166 -10 132 7.5 c 128,-1,2
 98 25 98 25 74 55 c 128,-1,3
 50 85 50 85 37.5 124.5 c 128,-1,4
 25 164 25 164 25 208 c 0,5,6
 25 270 25 270 49 328 c 128,-1,7
 73 386 73 386 113 431 c 128,-1,8
 153 476 153 476 205 503 c 128,-1,9
 257 530 257 530 314 530 c 0,10,11
 377 530 377 530 418 495.5 c 128,-1,12
 459 461 459 461 476 412 c 1,13,-1
 500 521 l 1,14,-1
 568 521 l 1,15,-1
 476 89 l 2,16,17
 474 81 474 81 474 76 c 0,18,19
 474 60 474 60 493 60 c 1,20,-1
 480 0 l 1,21,22
 472 -1 472 -1 465 -2 c 128,-1,23
 458 -3 458 -3 453 -3 c 0,24,25
 430 -1 430 -1 418.5 9.5 c 128,-1,26
 407 20 407 20 407 37 c 0,27,28
 407 45 407 45 409.5 58 c 128,-1,29
 412 71 412 71 418 101 c 1,30,31
 378 50 378 50 321.5 20 c 128,-1,32
 265 -10 265 -10 210 -10 c 0,0,1
238 50 m 0,33,34
 263 50 263 50 292 60 c 128,-1,35
 321 70 321 70 347.5 87.5 c 128,-1,36
 374 105 374 105 395.5 128.5 c 128,-1,37
 417 152 417 152 427 179 c 1,38,-1
 460 340 l 1,39,40
 457 367 457 367 444 390.5 c 128,-1,41
 431 414 431 414 412 431.5 c 128,-1,42
 393 449 393 449 369 459.5 c 128,-1,43
 345 470 345 470 319 470 c 0,44,45
 274 470 274 470 233.5 447.5 c 128,-1,46
 193 425 193 425 162.5 389 c 128,-1,47
 132 353 132 353 114 308 c 128,-1,48
 96 263 96 263 96 218 c 0,49,50
 96 183 96 183 106 152.5 c 128,-1,51
 116 122 116 122 135 99.5 c 128,-1,52
 154 77 154 77 180 63.5 c 128,-1,53
 206 50 206 50 238 50 c 0,33,34
250 633 m 1,54,-1
 271 727 l 1,55,-1
 329 727 l 1,56,-1
 308 633 l 1,57,-1
 250 633 l 1,54,-1
394 633 m 1,58,-1
 414 727 l 1,59,-1
 471 727 l 1,60,-1
 452 633 l 1,61,-1
 394 633 l 1,58,-1
EndSplineSet
EndChar

StartChar: aring
Encoding: 229 229 168
Width: 598
GlyphClass: 2
Flags: W
LayerCount: 2
Fore
SplineSet
210 -10 m 0,0,1
 166 -10 166 -10 132 7.5 c 128,-1,2
 98 25 98 25 74 55 c 128,-1,3
 50 85 50 85 37.5 124.5 c 128,-1,4
 25 164 25 164 25 208 c 0,5,6
 25 270 25 270 49 328 c 128,-1,7
 73 386 73 386 113 431 c 128,-1,8
 153 476 153 476 205 503 c 128,-1,9
 257 530 257 530 314 530 c 0,10,11
 377 530 377 530 418 495.5 c 128,-1,12
 459 461 459 461 476 412 c 1,13,-1
 500 521 l 1,14,-1
 568 521 l 1,15,-1
 476 89 l 2,16,17
 474 81 474 81 474 76 c 0,18,19
 474 60 474 60 493 60 c 1,20,-1
 480 0 l 1,21,22
 472 -1 472 -1 465 -2 c 128,-1,23
 458 -3 458 -3 453 -3 c 0,24,25
 430 -1 430 -1 418.5 9.5 c 128,-1,26
 407 20 407 20 407 37 c 0,27,28
 407 45 407 45 409.5 58 c 128,-1,29
 412 71 412 71 418 101 c 1,30,31
 378 50 378 50 321.5 20 c 128,-1,32
 265 -10 265 -10 210 -10 c 0,0,1
238 50 m 0,33,34
 263 50 263 50 292 60 c 128,-1,35
 321 70 321 70 347.5 87.5 c 128,-1,36
 374 105 374 105 395.5 128.5 c 128,-1,37
 417 152 417 152 427 179 c 1,38,-1
 460 340 l 1,39,40
 457 367 457 367 444 390.5 c 128,-1,41
 431 414 431 414 412 431.5 c 128,-1,42
 393 449 393 449 369 459.5 c 128,-1,43
 345 470 345 470 319 470 c 0,44,45
 274 470 274 470 233.5 447.5 c 128,-1,46
 193 425 193 425 162.5 389 c 128,-1,47
 132 353 132 353 114 308 c 128,-1,48
 96 263 96 263 96 218 c 0,49,50
 96 183 96 183 106 152.5 c 128,-1,51
 116 122 116 122 135 99.5 c 128,-1,52
 154 77 154 77 180 63.5 c 128,-1,53
 206 50 206 50 238 50 c 0,33,34
283 652 m 0,54,55
 283 687 283 687 309 708.5 c 128,-1,56
 335 730 335 730 370 730 c 0,57,58
 397 730 397 730 412.5 715.5 c 128,-1,59
 428 701 428 701 428 677 c 0,60,61
 428 643 428 643 403 621 c 128,-1,62
 378 599 378 599 341 599 c 0,63,64
 314 599 314 599 298.5 613.5 c 128,-1,65
 283 628 283 628 283 652 c 0,54,55
364 703 m 0,66,67
 346 703 346 703 331 690 c 128,-1,68
 316 677 316 677 316 657 c 0,69,70
 316 644 316 644 324.5 635 c 128,-1,71
 333 626 333 626 347 626 c 0,72,73
 364 626 364 626 380 639 c 128,-1,74
 396 652 396 652 396 672 c 0,75,76
 396 686 396 686 387 694.5 c 128,-1,77
 378 703 378 703 364 703 c 0,66,67
EndSplineSet
EndChar

StartChar: ae
Encoding: 230 230 169
Width: 887
GlyphClass: 2
Flags: W
LayerCount: 2
Fore
SplineSet
134 -10 m 0,0,1
 101 -10 101 -10 75.5 0.5 c 128,-1,2
 50 11 50 11 32 29 c 128,-1,3
 14 47 14 47 5 71 c 128,-1,4
 -4 95 -4 95 -4 123 c 0,5,6
 -4 164 -4 164 15 198 c 128,-1,7
 34 232 34 232 67 257 c 128,-1,8
 100 282 100 282 144.5 295.5 c 128,-1,9
 189 309 189 309 240 309 c 0,10,11
 273 309 273 309 304.5 303.5 c 128,-1,12
 336 298 336 298 362 289 c 1,13,14
 370 315 370 315 380 335.5 c 128,-1,15
 390 356 390 356 394 380 c 1,16,17
 394 423 394 423 365.5 451 c 128,-1,18
 337 479 337 479 283 479 c 0,19,20
 245 479 245 479 202 463 c 128,-1,21
 159 447 159 447 111 417 c 1,22,-1
 98 462 l 1,23,24
 154 496 154 496 203.5 513 c 128,-1,25
 253 530 253 530 301 530 c 0,26,27
 361 530 361 530 399 503 c 128,-1,28
 437 476 437 476 448 426 c 1,29,30
 490 473 490 473 544.5 501.5 c 128,-1,31
 599 530 599 530 660 530 c 0,32,33
 706 530 706 530 742.5 513.5 c 128,-1,34
 779 497 779 497 804.5 468 c 128,-1,35
 830 439 830 439 844 400 c 128,-1,36
 858 361 858 361 858 316 c 0,37,38
 858 284 858 284 852.5 264.5 c 128,-1,39
 847 245 847 245 843 236 c 1,40,-1
 416 236 l 1,41,42
 415 228 415 228 414.5 219.5 c 128,-1,43
 414 211 414 211 414 202 c 0,44,45
 414 167 414 167 424.5 137.5 c 128,-1,46
 435 108 435 108 454.5 87 c 128,-1,47
 474 66 474 66 501 54 c 128,-1,48
 528 42 528 42 561 42 c 0,49,50
 585 42 585 42 610 49 c 128,-1,51
 635 56 635 56 657.5 68 c 128,-1,52
 680 80 680 80 699 97.5 c 128,-1,53
 718 115 718 115 731 136 c 1,54,-1
 787 120 l 1,55,56
 769 91 769 91 743 67.5 c 128,-1,57
 717 44 717 44 685.5 26.5 c 128,-1,58
 654 9 654 9 619 -0.5 c 128,-1,59
 584 -10 584 -10 548 -10 c 0,60,61
 482 -10 482 -10 435.5 21.5 c 128,-1,62
 389 53 389 53 367 105 c 1,63,64
 344 74 344 74 314 52 c 128,-1,65
 284 30 284 30 252 16.5 c 128,-1,66
 220 3 220 3 189 -3.5 c 128,-1,67
 158 -10 158 -10 134 -10 c 0,0,1
161 42 m 0,68,69
 188 42 188 42 218 50.5 c 128,-1,70
 248 59 248 59 275.5 74 c 128,-1,71
 303 89 303 89 323.5 108.5 c 128,-1,72
 344 128 344 128 352 150 c 1,73,74
 348 166 348 166 348 191 c 0,75,76
 348 205 348 205 349.5 219.5 c 128,-1,77
 351 234 351 234 353 246 c 1,78,79
 328 256 328 256 299 261 c 128,-1,80
 270 266 270 266 242 266 c 0,81,82
 203 266 203 266 170.5 256.5 c 128,-1,83
 138 247 138 247 114 230 c 128,-1,84
 90 213 90 213 76.5 189 c 128,-1,85
 63 165 63 165 63 136 c 0,86,87
 63 98 63 98 87 70 c 128,-1,88
 111 42 111 42 161 42 c 0,68,69
789 282 m 1,89,90
 791 292 791 292 791.5 302.5 c 128,-1,91
 792 313 792 313 792 322 c 0,92,93
 792 389 792 389 754.5 433 c 128,-1,94
 717 477 717 477 648 477 c 0,95,96
 610 477 610 477 575 462.5 c 128,-1,97
 540 448 540 448 510.5 422 c 128,-1,98
 481 396 481 396 458.5 360 c 128,-1,99
 436 324 436 324 425 282 c 1,100,-1
 789 282 l 1,89,90
EndSplineSet
EndChar

StartChar: ccedilla
Encoding: 231 231 170
Width: 526
GlyphClass: 2
Flags: W
LayerCount: 2
Fore
SplineSet
119 -126 m 1,0,1
 130 -133 130 -133 151.5 -138.5 c 128,-1,2
 173 -144 173 -144 198 -144 c 0,3,4
 262 -144 262 -144 262 -101 c 0,5,6
 262 -85 262 -85 250.5 -79 c 128,-1,7
 239 -73 239 -73 221 -73 c 0,8,9
 201 -73 201 -73 178 -77.5 c 128,-1,10
 155 -82 155 -82 141 -87 c 1,11,-1
 197 -8 l 1,12,13
 156 -4 156 -4 124.5 15 c 128,-1,14
 93 34 93 34 70.5 63 c 128,-1,15
 48 92 48 92 36.5 130 c 128,-1,16
 25 168 25 168 25 210 c 0,17,18
 25 273 25 273 50 331 c 128,-1,19
 75 389 75 389 117.5 433.5 c 128,-1,20
 160 478 160 478 216.5 504 c 128,-1,21
 273 530 273 530 337 530 c 0,22,23
 408 530 408 530 453.5 496.5 c 128,-1,24
 499 463 499 463 513 406 c 1,25,-1
 443 385 l 1,26,27
 431 425 431 425 399 447.5 c 128,-1,28
 367 470 367 470 322 470 c 0,29,30
 278 470 278 470 237.5 450 c 128,-1,31
 197 430 197 430 165 396 c 128,-1,32
 133 362 133 362 114 316 c 128,-1,33
 95 270 95 270 95 219 c 0,34,35
 95 183 95 183 105 152.5 c 128,-1,36
 115 122 115 122 133 99 c 128,-1,37
 151 76 151 76 176.5 63 c 128,-1,38
 202 50 202 50 233 50 c 0,39,40
 257 50 257 50 281.5 57 c 128,-1,41
 306 64 306 64 328 76.5 c 128,-1,42
 350 89 350 89 367.5 105 c 128,-1,43
 385 121 385 121 394 139 c 1,44,-1
 457 119 l 1,45,46
 441 92 441 92 417.5 69 c 128,-1,47
 394 46 394 46 365 29.5 c 128,-1,48
 336 13 336 13 303 2.5 c 128,-1,49
 270 -8 270 -8 235 -9 c 1,50,-1
 202 -51 l 1,51,52
 211 -47 211 -47 221 -46 c 128,-1,53
 231 -45 231 -45 239 -45 c 0,54,55
 268 -45 268 -45 284 -57.5 c 128,-1,56
 300 -70 300 -70 300 -94 c 0,57,58
 300 -132 300 -132 270.5 -154 c 128,-1,59
 241 -176 241 -176 185 -176 c 0,60,61
 158 -176 158 -176 135 -170.5 c 128,-1,62
 112 -165 112 -165 95 -157 c 1,63,-1
 119 -126 l 1,0,1
EndSplineSet
EndChar

StartChar: egrave
Encoding: 232 232 171
Width: 534
GlyphClass: 2
Flags: W
LayerCount: 2
Fore
SplineSet
226 -10 m 0,0,1
 178 -10 178 -10 140.5 7 c 128,-1,2
 103 24 103 24 77.5 54 c 128,-1,3
 52 84 52 84 38.5 124 c 128,-1,4
 25 164 25 164 25 210 c 0,5,6
 25 272 25 272 49 329.5 c 128,-1,7
 73 387 73 387 115 431.5 c 128,-1,8
 157 476 157 476 214.5 503 c 128,-1,9
 272 530 272 530 339 530 c 0,10,11
 373 530 373 530 403.5 521 c 128,-1,12
 434 512 434 512 456.5 494.5 c 128,-1,13
 479 477 479 477 492 450.5 c 128,-1,14
 505 424 505 424 505 390 c 0,15,16
 505 313 505 313 437 274 c 128,-1,17
 369 235 369 235 227 235 c 0,18,19
 199 235 199 235 166.5 236 c 128,-1,20
 134 237 134 237 96 240 c 1,21,22
 95 232 95 232 94.5 225 c 128,-1,23
 94 218 94 218 94 211 c 0,24,25
 94 177 94 177 103 146.5 c 128,-1,26
 112 116 112 116 130 92.5 c 128,-1,27
 148 69 148 69 175 55.5 c 128,-1,28
 202 42 202 42 238 42 c 0,29,30
 262 42 262 42 287 49 c 128,-1,31
 312 56 312 56 334.5 68.5 c 128,-1,32
 357 81 357 81 376 99 c 128,-1,33
 395 117 395 117 408 139 c 1,34,-1
 464 122 l 1,35,36
 446 93 446 93 420 68.5 c 128,-1,37
 394 44 394 44 362.5 26.5 c 128,-1,38
 331 9 331 9 296.5 -0.5 c 128,-1,39
 262 -10 262 -10 226 -10 c 0,0,1
332 477 m 256,40,41
 287 477 287 477 250 461 c 128,-1,42
 213 445 213 445 184 419 c 128,-1,43
 155 393 155 393 135 359 c 128,-1,44
 115 325 115 325 105 289 c 1,45,46
 141 287 141 287 171.5 285.5 c 128,-1,47
 202 284 202 284 230 284 c 0,48,49
 289 284 289 284 330 292 c 128,-1,50
 371 300 371 300 396 314 c 128,-1,51
 421 328 421 328 432 348 c 128,-1,52
 443 368 443 368 443 391 c 0,53,54
 443 436 443 436 410 456.5 c 128,-1,55
 377 477 377 477 332 477 c 256,40,41
296 730 m 1,56,-1
 366 730 l 1,57,-1
 404 637 l 1,58,-1
 355 620 l 1,59,-1
 296 730 l 1,56,-1
EndSplineSet
EndChar

StartChar: eacute
Encoding: 233 233 172
Width: 534
GlyphClass: 2
Flags: W
LayerCount: 2
Fore
SplineSet
340 620 m 1,0,-1
 298 637 l 1,1,-1
 374 730 l 1,2,-1
 445 730 l 1,3,-1
 340 620 l 1,0,-1
226 -10 m 0,4,5
 178 -10 178 -10 140.5 7 c 128,-1,6
 103 24 103 24 77.5 54 c 128,-1,7
 52 84 52 84 38.5 124 c 128,-1,8
 25 164 25 164 25 210 c 0,9,10
 25 272 25 272 49 329.5 c 128,-1,11
 73 387 73 387 115 431.5 c 128,-1,12
 157 476 157 476 214.5 503 c 128,-1,13
 272 530 272 530 339 530 c 0,14,15
 373 530 373 530 403.5 521 c 128,-1,16
 434 512 434 512 456.5 494.5 c 128,-1,17
 479 477 479 477 492 450.5 c 128,-1,18
 505 424 505 424 505 390 c 0,19,20
 505 313 505 313 437 274 c 128,-1,21
 369 235 369 235 227 235 c 0,22,23
 199 235 199 235 166.5 236 c 128,-1,24
 134 237 134 237 96 240 c 1,25,26
 95 232 95 232 94.5 225 c 128,-1,27
 94 218 94 218 94 211 c 0,28,29
 94 177 94 177 103 146.5 c 128,-1,30
 112 116 112 116 130 92.5 c 128,-1,31
 148 69 148 69 175 55.5 c 128,-1,32
 202 42 202 42 238 42 c 0,33,34
 262 42 262 42 287 49 c 128,-1,35
 312 56 312 56 334.5 68.5 c 128,-1,36
 357 81 357 81 376 99 c 128,-1,37
 395 117 395 117 408 139 c 1,38,-1
 464 122 l 1,39,40
 446 93 446 93 420 68.5 c 128,-1,41
 394 44 394 44 362.5 26.5 c 128,-1,42
 331 9 331 9 296.5 -0.5 c 128,-1,43
 262 -10 262 -10 226 -10 c 0,4,5
332 477 m 256,44,45
 287 477 287 477 250 461 c 128,-1,46
 213 445 213 445 184 419 c 128,-1,47
 155 393 155 393 135 359 c 128,-1,48
 115 325 115 325 105 289 c 1,49,50
 141 287 141 287 171.5 285.5 c 128,-1,51
 202 284 202 284 230 284 c 0,52,53
 289 284 289 284 330 292 c 128,-1,54
 371 300 371 300 396 314 c 128,-1,55
 421 328 421 328 432 348 c 128,-1,56
 443 368 443 368 443 391 c 0,57,58
 443 436 443 436 410 456.5 c 128,-1,59
 377 477 377 477 332 477 c 256,44,45
EndSplineSet
EndChar

StartChar: ecircumflex
Encoding: 234 234 173
Width: 534
GlyphClass: 2
Flags: W
LayerCount: 2
Fore
SplineSet
246 645 m 1,0,-1
 359 730 l 1,1,-1
 409 730 l 1,2,-1
 484 645 l 1,3,-1
 442 624 l 1,4,-1
 374 687 l 1,5,-1
 280 624 l 1,6,-1
 246 645 l 1,0,-1
226 -10 m 0,7,8
 178 -10 178 -10 140.5 7 c 128,-1,9
 103 24 103 24 77.5 54 c 128,-1,10
 52 84 52 84 38.5 124 c 128,-1,11
 25 164 25 164 25 210 c 0,12,13
 25 272 25 272 49 329.5 c 128,-1,14
 73 387 73 387 115 431.5 c 128,-1,15
 157 476 157 476 214.5 503 c 128,-1,16
 272 530 272 530 339 530 c 0,17,18
 373 530 373 530 403.5 521 c 128,-1,19
 434 512 434 512 456.5 494.5 c 128,-1,20
 479 477 479 477 492 450.5 c 128,-1,21
 505 424 505 424 505 390 c 0,22,23
 505 313 505 313 437 274 c 128,-1,24
 369 235 369 235 227 235 c 0,25,26
 199 235 199 235 166.5 236 c 128,-1,27
 134 237 134 237 96 240 c 1,28,29
 95 232 95 232 94.5 225 c 128,-1,30
 94 218 94 218 94 211 c 0,31,32
 94 177 94 177 103 146.5 c 128,-1,33
 112 116 112 116 130 92.5 c 128,-1,34
 148 69 148 69 175 55.5 c 128,-1,35
 202 42 202 42 238 42 c 0,36,37
 262 42 262 42 287 49 c 128,-1,38
 312 56 312 56 334.5 68.5 c 128,-1,39
 357 81 357 81 376 99 c 128,-1,40
 395 117 395 117 408 139 c 1,41,-1
 464 122 l 1,42,43
 446 93 446 93 420 68.5 c 128,-1,44
 394 44 394 44 362.5 26.5 c 128,-1,45
 331 9 331 9 296.5 -0.5 c 128,-1,46
 262 -10 262 -10 226 -10 c 0,7,8
332 477 m 256,47,48
 287 477 287 477 250 461 c 128,-1,49
 213 445 213 445 184 419 c 128,-1,50
 155 393 155 393 135 359 c 128,-1,51
 115 325 115 325 105 289 c 1,52,53
 141 287 141 287 171.5 285.5 c 128,-1,54
 202 284 202 284 230 284 c 0,55,56
 289 284 289 284 330 292 c 128,-1,57
 371 300 371 300 396 314 c 128,-1,58
 421 328 421 328 432 348 c 128,-1,59
 443 368 443 368 443 391 c 0,60,61
 443 436 443 436 410 456.5 c 128,-1,62
 377 477 377 477 332 477 c 256,47,48
EndSplineSet
EndChar

StartChar: edieresis
Encoding: 235 235 174
Width: 534
GlyphClass: 2
Flags: W
LayerCount: 2
Fore
SplineSet
253 633 m 1,0,-1
 274 727 l 1,1,-1
 332 727 l 1,2,-1
 311 633 l 1,3,-1
 253 633 l 1,0,-1
397 633 m 1,4,-1
 417 727 l 1,5,-1
 474 727 l 1,6,-1
 455 633 l 1,7,-1
 397 633 l 1,4,-1
226 -10 m 0,8,9
 178 -10 178 -10 140.5 7 c 128,-1,10
 103 24 103 24 77.5 54 c 128,-1,11
 52 84 52 84 38.5 124 c 128,-1,12
 25 164 25 164 25 210 c 0,13,14
 25 272 25 272 49 329.5 c 128,-1,15
 73 387 73 387 115 431.5 c 128,-1,16
 157 476 157 476 214.5 503 c 128,-1,17
 272 530 272 530 339 530 c 0,18,19
 373 530 373 530 403.5 521 c 128,-1,20
 434 512 434 512 456.5 494.5 c 128,-1,21
 479 477 479 477 492 450.5 c 128,-1,22
 505 424 505 424 505 390 c 0,23,24
 505 313 505 313 437 274 c 128,-1,25
 369 235 369 235 227 235 c 0,26,27
 199 235 199 235 166.5 236 c 128,-1,28
 134 237 134 237 96 240 c 1,29,30
 95 232 95 232 94.5 225 c 128,-1,31
 94 218 94 218 94 211 c 0,32,33
 94 177 94 177 103 146.5 c 128,-1,34
 112 116 112 116 130 92.5 c 128,-1,35
 148 69 148 69 175 55.5 c 128,-1,36
 202 42 202 42 238 42 c 0,37,38
 262 42 262 42 287 49 c 128,-1,39
 312 56 312 56 334.5 68.5 c 128,-1,40
 357 81 357 81 376 99 c 128,-1,41
 395 117 395 117 408 139 c 1,42,-1
 464 122 l 1,43,44
 446 93 446 93 420 68.5 c 128,-1,45
 394 44 394 44 362.5 26.5 c 128,-1,46
 331 9 331 9 296.5 -0.5 c 128,-1,47
 262 -10 262 -10 226 -10 c 0,8,9
332 477 m 256,48,49
 287 477 287 477 250 461 c 128,-1,50
 213 445 213 445 184 419 c 128,-1,51
 155 393 155 393 135 359 c 128,-1,52
 115 325 115 325 105 289 c 1,53,54
 141 287 141 287 171.5 285.5 c 128,-1,55
 202 284 202 284 230 284 c 0,56,57
 289 284 289 284 330 292 c 128,-1,58
 371 300 371 300 396 314 c 128,-1,59
 421 328 421 328 432 348 c 128,-1,60
 443 368 443 368 443 391 c 0,61,62
 443 436 443 436 410 456.5 c 128,-1,63
 377 477 377 477 332 477 c 256,48,49
EndSplineSet
EndChar

StartChar: igrave
Encoding: 236 236 175
Width: 213
GlyphClass: 2
Flags: W
LayerCount: 2
Fore
SplineSet
119 521 m 1,0,-1
 187 521 l 1,1,-1
 77 0 l 1,2,-1
 9 0 l 1,3,-1
 119 521 l 1,0,-1
96 730 m 1,4,-1
 166 730 l 1,5,-1
 204 637 l 1,6,-1
 155 620 l 1,7,-1
 96 730 l 1,4,-1
EndSplineSet
EndChar

StartChar: iacute
Encoding: 237 237 176
Width: 213
GlyphClass: 2
Flags: W
LayerCount: 2
Fore
SplineSet
175 620 m 1,0,-1
 133 637 l 1,1,-1
 209 730 l 1,2,-1
 280 730 l 1,3,-1
 175 620 l 1,0,-1
119 521 m 1,4,-1
 187 521 l 1,5,-1
 77 0 l 1,6,-1
 9 0 l 1,7,-1
 119 521 l 1,4,-1
EndSplineSet
EndChar

StartChar: icircumflex
Encoding: 238 238 177
Width: 213
GlyphClass: 2
Flags: W
LayerCount: 2
Fore
SplineSet
62 645 m 1,0,-1
 175 730 l 1,1,-1
 225 730 l 1,2,-1
 300 645 l 1,3,-1
 258 624 l 1,4,-1
 190 687 l 1,5,-1
 96 624 l 1,6,-1
 62 645 l 1,0,-1
119 521 m 1,7,-1
 187 521 l 1,8,-1
 77 0 l 1,9,-1
 9 0 l 1,10,-1
 119 521 l 1,7,-1
EndSplineSet
EndChar

StartChar: idieresis
Encoding: 239 239 178
Width: 213
GlyphClass: 2
Flags: W
LayerCount: 2
Fore
SplineSet
73 633 m 1,0,-1
 94 727 l 1,1,-1
 152 727 l 1,2,-1
 131 633 l 1,3,-1
 73 633 l 1,0,-1
217 633 m 1,4,-1
 237 727 l 1,5,-1
 294 727 l 1,6,-1
 275 633 l 1,7,-1
 217 633 l 1,4,-1
119 521 m 1,8,-1
 187 521 l 1,9,-1
 77 0 l 1,10,-1
 9 0 l 1,11,-1
 119 521 l 1,8,-1
EndSplineSet
EndChar

StartChar: eth
Encoding: 240 240 179
Width: 579
GlyphClass: 2
Flags: W
LayerCount: 2
Fore
SplineSet
554 683 m 1,0,-1
 463 631 l 1,1,2
 507 568 507 568 524.5 500 c 128,-1,3
 542 432 542 432 542 371 c 0,4,5
 542 283 542 283 513.5 212.5 c 128,-1,6
 485 142 485 142 439 92.5 c 128,-1,7
 393 43 393 43 335 16.5 c 128,-1,8
 277 -10 277 -10 217 -10 c 0,9,10
 173 -10 173 -10 137 5.5 c 128,-1,11
 101 21 101 21 75.5 48.5 c 128,-1,12
 50 76 50 76 35.5 112.5 c 128,-1,13
 21 149 21 149 21 191 c 0,14,15
 21 247 21 247 46 298.5 c 128,-1,16
 71 350 71 350 111.5 389 c 128,-1,17
 152 428 152 428 204 451 c 128,-1,18
 256 474 256 474 310 474 c 0,19,20
 373 474 373 474 417.5 441.5 c 128,-1,21
 462 409 462 409 476 357 c 1,22,23
 476 419 476 419 463 480.5 c 128,-1,24
 450 542 450 542 406 604 c 1,25,-1
 289 536 l 1,26,-1
 274 567 l 1,27,-1
 385 630 l 1,28,29
 344 678 344 678 271 730 c 1,30,-1
 365 730 l 1,31,32
 388 713 388 713 407 695 c 128,-1,33
 426 677 426 677 443 657 c 1,34,-1
 539 713 l 1,35,-1
 554 683 l 1,0,-1
91 199 m 0,36,37
 91 168 91 168 101 141 c 128,-1,38
 111 114 111 114 130 93.5 c 128,-1,39
 149 73 149 73 174.5 61.5 c 128,-1,40
 200 50 200 50 232 50 c 0,41,42
 274 50 274 50 314.5 68.5 c 128,-1,43
 355 87 355 87 386 118 c 128,-1,44
 417 149 417 149 436 189 c 128,-1,45
 455 229 455 229 455 272 c 0,46,47
 455 303 455 303 444.5 329.5 c 128,-1,48
 434 356 434 356 415.5 375.5 c 128,-1,49
 397 395 397 395 370.5 406 c 128,-1,50
 344 417 344 417 313 417 c 0,51,52
 271 417 271 417 231 399 c 128,-1,53
 191 381 191 381 160 351 c 128,-1,54
 129 321 129 321 110 281.5 c 128,-1,55
 91 242 91 242 91 199 c 0,36,37
EndSplineSet
EndChar

StartChar: ntilde
Encoding: 241 241 180
Width: 559
GlyphClass: 2
Flags: W
LayerCount: 2
Fore
SplineSet
119 521 m 1,0,-1
 182 521 l 1,1,-1
 156 403 l 1,2,3
 177 431 177 431 204.5 454.5 c 128,-1,4
 232 478 232 478 262.5 495 c 128,-1,5
 293 512 293 512 326 521 c 128,-1,6
 359 530 359 530 392 530 c 0,7,8
 453 530 453 530 479 497 c 128,-1,9
 505 464 505 464 505 406 c 0,10,11
 505 383 505 383 501.5 358.5 c 128,-1,12
 498 334 498 334 492 305 c 2,13,-1
 428 0 l 1,14,-1
 360 0 l 1,15,-1
 422 291 l 2,16,17
 432 340 432 340 432 376 c 0,18,19
 432 468 432 468 354 468 c 0,20,21
 326 468 326 468 295.5 457 c 128,-1,22
 265 446 265 446 236.5 426 c 128,-1,23
 208 406 208 406 184 378.5 c 128,-1,24
 160 351 160 351 144 319 c 1,25,-1
 77 0 l 1,26,-1
 9 0 l 1,27,-1
 119 521 l 1,0,-1
393 638 m 0,28,29
 372 638 372 638 357.5 644 c 128,-1,30
 343 650 343 650 331 657.5 c 128,-1,31
 319 665 319 665 307 671.5 c 128,-1,32
 295 678 295 678 280 678 c 256,33,34
 265 678 265 678 254 671 c 128,-1,35
 243 664 243 664 236.5 655.5 c 128,-1,36
 230 647 230 647 226.5 639.5 c 128,-1,37
 223 632 223 632 223 630 c 2,38,-1
 181 630 l 1,39,40
 182 635 182 635 189 650.5 c 128,-1,41
 196 666 196 666 209 682 c 128,-1,42
 222 698 222 698 242 710.5 c 128,-1,43
 262 723 262 723 289 723 c 0,44,45
 309 723 309 723 322.5 716.5 c 128,-1,46
 336 710 336 710 348 702 c 128,-1,47
 360 694 360 694 372 687.5 c 128,-1,48
 384 681 384 681 402 681 c 256,49,50
 420 681 420 681 432.5 688 c 128,-1,51
 445 695 445 695 452 704 c 128,-1,52
 459 713 459 713 462.5 720.5 c 128,-1,53
 466 728 466 728 466 730 c 2,54,-1
 508 730 l 1,55,56
 507 725 507 725 500 710 c 128,-1,57
 493 695 493 695 479 679 c 128,-1,58
 465 663 465 663 444 650.5 c 128,-1,59
 423 638 423 638 393 638 c 0,28,29
EndSplineSet
EndChar

StartChar: ograve
Encoding: 242 242 181
Width: 573
GlyphClass: 2
Flags: W
LayerCount: 2
Fore
SplineSet
220 -10 m 0,0,1
 174 -10 174 -10 137.5 7.5 c 128,-1,2
 101 25 101 25 76 54.5 c 128,-1,3
 51 84 51 84 37.5 123.5 c 128,-1,4
 24 163 24 163 24 208 c 0,5,6
 24 271 24 271 49.5 329 c 128,-1,7
 75 387 75 387 118 431.5 c 128,-1,8
 161 476 161 476 217 503 c 128,-1,9
 273 530 273 530 335 530 c 0,10,11
 381 530 381 530 417 512.5 c 128,-1,12
 453 495 453 495 478.5 465.5 c 128,-1,13
 504 436 504 436 517.5 396 c 128,-1,14
 531 356 531 356 531 311 c 0,15,16
 531 249 531 249 505.5 191 c 128,-1,17
 480 133 480 133 437.5 88.5 c 128,-1,18
 395 44 395 44 338.5 17 c 128,-1,19
 282 -10 282 -10 220 -10 c 0,0,1
233 50 m 0,20,21
 275 50 275 50 316 70.5 c 128,-1,22
 357 91 357 91 389 125.5 c 128,-1,23
 421 160 421 160 441 205.5 c 128,-1,24
 461 251 461 251 461 302 c 0,25,26
 461 337 461 337 451 368 c 128,-1,27
 441 399 441 399 422.5 421.5 c 128,-1,28
 404 444 404 444 378.5 457 c 128,-1,29
 353 470 353 470 322 470 c 0,30,31
 280 470 280 470 239.5 449.5 c 128,-1,32
 199 429 199 429 166.5 394 c 128,-1,33
 134 359 134 359 114 313 c 128,-1,34
 94 267 94 267 94 216 c 0,35,36
 94 181 94 181 104 150.5 c 128,-1,37
 114 120 114 120 132.5 97.5 c 128,-1,38
 151 75 151 75 176.5 62.5 c 128,-1,39
 202 50 202 50 233 50 c 0,20,21
291 730 m 1,40,-1
 361 730 l 1,41,-1
 399 637 l 1,42,-1
 350 620 l 1,43,-1
 291 730 l 1,40,-1
EndSplineSet
EndChar

StartChar: oacute
Encoding: 243 243 182
Width: 573
GlyphClass: 2
Flags: W
LayerCount: 2
Fore
SplineSet
349 620 m 1,0,-1
 307 637 l 1,1,-1
 383 730 l 1,2,-1
 454 730 l 1,3,-1
 349 620 l 1,0,-1
220 -10 m 0,4,5
 174 -10 174 -10 137.5 7.5 c 128,-1,6
 101 25 101 25 76 54.5 c 128,-1,7
 51 84 51 84 37.5 123.5 c 128,-1,8
 24 163 24 163 24 208 c 0,9,10
 24 271 24 271 49.5 329 c 128,-1,11
 75 387 75 387 118 431.5 c 128,-1,12
 161 476 161 476 217 503 c 128,-1,13
 273 530 273 530 335 530 c 0,14,15
 381 530 381 530 417 512.5 c 128,-1,16
 453 495 453 495 478.5 465.5 c 128,-1,17
 504 436 504 436 517.5 396 c 128,-1,18
 531 356 531 356 531 311 c 0,19,20
 531 249 531 249 505.5 191 c 128,-1,21
 480 133 480 133 437.5 88.5 c 128,-1,22
 395 44 395 44 338.5 17 c 128,-1,23
 282 -10 282 -10 220 -10 c 0,4,5
233 50 m 0,24,25
 275 50 275 50 316 70.5 c 128,-1,26
 357 91 357 91 389 125.5 c 128,-1,27
 421 160 421 160 441 205.5 c 128,-1,28
 461 251 461 251 461 302 c 0,29,30
 461 337 461 337 451 368 c 128,-1,31
 441 399 441 399 422.5 421.5 c 128,-1,32
 404 444 404 444 378.5 457 c 128,-1,33
 353 470 353 470 322 470 c 0,34,35
 280 470 280 470 239.5 449.5 c 128,-1,36
 199 429 199 429 166.5 394 c 128,-1,37
 134 359 134 359 114 313 c 128,-1,38
 94 267 94 267 94 216 c 0,39,40
 94 181 94 181 104 150.5 c 128,-1,41
 114 120 114 120 132.5 97.5 c 128,-1,42
 151 75 151 75 176.5 62.5 c 128,-1,43
 202 50 202 50 233 50 c 0,24,25
EndSplineSet
EndChar

StartChar: ocircumflex
Encoding: 244 244 183
Width: 573
GlyphClass: 2
Flags: W
LayerCount: 2
Fore
SplineSet
239 645 m 1,0,-1
 352 730 l 1,1,-1
 402 730 l 1,2,-1
 477 645 l 1,3,-1
 435 624 l 1,4,-1
 367 687 l 1,5,-1
 273 624 l 1,6,-1
 239 645 l 1,0,-1
220 -10 m 0,7,8
 174 -10 174 -10 137.5 7.5 c 128,-1,9
 101 25 101 25 76 54.5 c 128,-1,10
 51 84 51 84 37.5 123.5 c 128,-1,11
 24 163 24 163 24 208 c 0,12,13
 24 271 24 271 49.5 329 c 128,-1,14
 75 387 75 387 118 431.5 c 128,-1,15
 161 476 161 476 217 503 c 128,-1,16
 273 530 273 530 335 530 c 0,17,18
 381 530 381 530 417 512.5 c 128,-1,19
 453 495 453 495 478.5 465.5 c 128,-1,20
 504 436 504 436 517.5 396 c 128,-1,21
 531 356 531 356 531 311 c 0,22,23
 531 249 531 249 505.5 191 c 128,-1,24
 480 133 480 133 437.5 88.5 c 128,-1,25
 395 44 395 44 338.5 17 c 128,-1,26
 282 -10 282 -10 220 -10 c 0,7,8
233 50 m 0,27,28
 275 50 275 50 316 70.5 c 128,-1,29
 357 91 357 91 389 125.5 c 128,-1,30
 421 160 421 160 441 205.5 c 128,-1,31
 461 251 461 251 461 302 c 0,32,33
 461 337 461 337 451 368 c 128,-1,34
 441 399 441 399 422.5 421.5 c 128,-1,35
 404 444 404 444 378.5 457 c 128,-1,36
 353 470 353 470 322 470 c 0,37,38
 280 470 280 470 239.5 449.5 c 128,-1,39
 199 429 199 429 166.5 394 c 128,-1,40
 134 359 134 359 114 313 c 128,-1,41
 94 267 94 267 94 216 c 0,42,43
 94 181 94 181 104 150.5 c 128,-1,44
 114 120 114 120 132.5 97.5 c 128,-1,45
 151 75 151 75 176.5 62.5 c 128,-1,46
 202 50 202 50 233 50 c 0,27,28
EndSplineSet
EndChar

StartChar: otilde
Encoding: 245 245 184
Width: 573
GlyphClass: 2
Flags: W
LayerCount: 2
Fore
SplineSet
220 -10 m 0,0,1
 174 -10 174 -10 137.5 7.5 c 128,-1,2
 101 25 101 25 76 54.5 c 128,-1,3
 51 84 51 84 37.5 123.5 c 128,-1,4
 24 163 24 163 24 208 c 0,5,6
 24 271 24 271 49.5 329 c 128,-1,7
 75 387 75 387 118 431.5 c 128,-1,8
 161 476 161 476 217 503 c 128,-1,9
 273 530 273 530 335 530 c 0,10,11
 381 530 381 530 417 512.5 c 128,-1,12
 453 495 453 495 478.5 465.5 c 128,-1,13
 504 436 504 436 517.5 396 c 128,-1,14
 531 356 531 356 531 311 c 0,15,16
 531 249 531 249 505.5 191 c 128,-1,17
 480 133 480 133 437.5 88.5 c 128,-1,18
 395 44 395 44 338.5 17 c 128,-1,19
 282 -10 282 -10 220 -10 c 0,0,1
233 50 m 0,20,21
 275 50 275 50 316 70.5 c 128,-1,22
 357 91 357 91 389 125.5 c 128,-1,23
 421 160 421 160 441 205.5 c 128,-1,24
 461 251 461 251 461 302 c 0,25,26
 461 337 461 337 451 368 c 128,-1,27
 441 399 441 399 422.5 421.5 c 128,-1,28
 404 444 404 444 378.5 457 c 128,-1,29
 353 470 353 470 322 470 c 0,30,31
 280 470 280 470 239.5 449.5 c 128,-1,32
 199 429 199 429 166.5 394 c 128,-1,33
 134 359 134 359 114 313 c 128,-1,34
 94 267 94 267 94 216 c 0,35,36
 94 181 94 181 104 150.5 c 128,-1,37
 114 120 114 120 132.5 97.5 c 128,-1,38
 151 75 151 75 176.5 62.5 c 128,-1,39
 202 50 202 50 233 50 c 0,20,21
410 638 m 0,40,41
 389 638 389 638 374.5 644 c 128,-1,42
 360 650 360 650 348 657.5 c 128,-1,43
 336 665 336 665 324 671.5 c 128,-1,44
 312 678 312 678 297 678 c 256,45,46
 282 678 282 678 271 671 c 128,-1,47
 260 664 260 664 253.5 655.5 c 128,-1,48
 247 647 247 647 243.5 639.5 c 128,-1,49
 240 632 240 632 240 630 c 2,50,-1
 198 630 l 1,51,52
 199 635 199 635 206 650.5 c 128,-1,53
 213 666 213 666 226 682 c 128,-1,54
 239 698 239 698 259 710.5 c 128,-1,55
 279 723 279 723 306 723 c 0,56,57
 326 723 326 723 339.5 716.5 c 128,-1,58
 353 710 353 710 365 702 c 128,-1,59
 377 694 377 694 389 687.5 c 128,-1,60
 401 681 401 681 419 681 c 256,61,62
 437 681 437 681 449.5 688 c 128,-1,63
 462 695 462 695 469 704 c 128,-1,64
 476 713 476 713 479.5 720.5 c 128,-1,65
 483 728 483 728 483 730 c 2,66,-1
 525 730 l 1,67,68
 524 725 524 725 517 710 c 128,-1,69
 510 695 510 695 496 679 c 128,-1,70
 482 663 482 663 461 650.5 c 128,-1,71
 440 638 440 638 410 638 c 0,40,41
EndSplineSet
EndChar

StartChar: odieresis
Encoding: 246 246 185
Width: 573
GlyphClass: 2
Flags: W
LayerCount: 2
Fore
SplineSet
254 633 m 1,0,-1
 275 727 l 1,1,-1
 333 727 l 1,2,-1
 312 633 l 1,3,-1
 254 633 l 1,0,-1
398 633 m 1,4,-1
 418 727 l 1,5,-1
 475 727 l 1,6,-1
 456 633 l 1,7,-1
 398 633 l 1,4,-1
220 -10 m 0,8,9
 174 -10 174 -10 137.5 7.5 c 128,-1,10
 101 25 101 25 76 54.5 c 128,-1,11
 51 84 51 84 37.5 123.5 c 128,-1,12
 24 163 24 163 24 208 c 0,13,14
 24 271 24 271 49.5 329 c 128,-1,15
 75 387 75 387 118 431.5 c 128,-1,16
 161 476 161 476 217 503 c 128,-1,17
 273 530 273 530 335 530 c 0,18,19
 381 530 381 530 417 512.5 c 128,-1,20
 453 495 453 495 478.5 465.5 c 128,-1,21
 504 436 504 436 517.5 396 c 128,-1,22
 531 356 531 356 531 311 c 0,23,24
 531 249 531 249 505.5 191 c 128,-1,25
 480 133 480 133 437.5 88.5 c 128,-1,26
 395 44 395 44 338.5 17 c 128,-1,27
 282 -10 282 -10 220 -10 c 0,8,9
233 50 m 0,28,29
 275 50 275 50 316 70.5 c 128,-1,30
 357 91 357 91 389 125.5 c 128,-1,31
 421 160 421 160 441 205.5 c 128,-1,32
 461 251 461 251 461 302 c 0,33,34
 461 337 461 337 451 368 c 128,-1,35
 441 399 441 399 422.5 421.5 c 128,-1,36
 404 444 404 444 378.5 457 c 128,-1,37
 353 470 353 470 322 470 c 0,38,39
 280 470 280 470 239.5 449.5 c 128,-1,40
 199 429 199 429 166.5 394 c 128,-1,41
 134 359 134 359 114 313 c 128,-1,42
 94 267 94 267 94 216 c 0,43,44
 94 181 94 181 104 150.5 c 128,-1,45
 114 120 114 120 132.5 97.5 c 128,-1,46
 151 75 151 75 176.5 62.5 c 128,-1,47
 202 50 202 50 233 50 c 0,28,29
EndSplineSet
EndChar

StartChar: divide
Encoding: 247 247 186
Width: 537
GlyphClass: 2
Flags: W
LayerCount: 2
Fore
SplineSet
234 399 m 1,0,-1
 234 490 l 1,1,-1
 293 490 l 1,2,-1
 293 399 l 1,3,-1
 234 399 l 1,0,-1
234 74 m 1,4,-1
 234 164 l 1,5,-1
 293 164 l 1,6,-1
 293 74 l 1,7,-1
 234 74 l 1,4,-1
62 254 m 1,8,-1
 62 311 l 1,9,-1
 465 311 l 1,10,-1
 465 254 l 1,11,-1
 62 254 l 1,8,-1
EndSplineSet
EndChar

StartChar: oslash
Encoding: 248 248 187
Width: 573
GlyphClass: 2
Flags: W
LayerCount: 2
Fore
SplineSet
77 53 m 1,0,1
 24 115 24 115 24 208 c 0,2,3
 24 271 24 271 49.5 329 c 128,-1,4
 75 387 75 387 118 431.5 c 128,-1,5
 161 476 161 476 217.5 503 c 128,-1,6
 274 530 274 530 335 530 c 0,7,8
 370 530 370 530 400 519.5 c 128,-1,9
 430 509 430 509 453 490 c 1,10,-1
 484 523 l 1,11,-1
 530 523 l 1,12,-1
 477 467 l 1,13,14
 531 405 531 405 531 311 c 0,15,16
 531 249 531 249 506 191 c 128,-1,17
 481 133 481 133 438 88.5 c 128,-1,18
 395 44 395 44 339 17 c 128,-1,19
 283 -10 283 -10 221 -10 c 0,20,21
 185 -10 185 -10 154.5 0.5 c 128,-1,22
 124 11 124 11 101 30 c 1,23,-1
 71 -1 l 1,24,-1
 25 -1 l 1,25,-1
 77 53 l 1,0,1
233 50 m 0,26,27
 275 50 275 50 316 70.5 c 128,-1,28
 357 91 357 91 389 125.5 c 128,-1,29
 421 160 421 160 441 205.5 c 128,-1,30
 461 251 461 251 461 302 c 0,31,32
 461 334 461 334 452 363 c 128,-1,33
 443 392 443 392 427 414 c 1,34,-1
 147 82 l 1,35,36
 182 50 182 50 233 50 c 0,26,27
94 216 m 0,37,38
 94 183 94 183 102.5 154.5 c 128,-1,39
 111 126 111 126 127 104 c 1,40,-1
 407 438 l 1,41,42
 390 453 390 453 368.5 461.5 c 128,-1,43
 347 470 347 470 322 470 c 0,44,45
 280 470 280 470 239.5 449.5 c 128,-1,46
 199 429 199 429 166.5 394 c 128,-1,47
 134 359 134 359 114 313 c 128,-1,48
 94 267 94 267 94 216 c 0,37,38
EndSplineSet
EndChar

StartChar: ugrave
Encoding: 249 249 188
Width: 569
GlyphClass: 2
Flags: W
LayerCount: 2
Fore
SplineSet
159 -10 m 0,0,1
 37 -10 37 -10 37 124 c 0,2,3
 37 144 37 144 39.5 166.5 c 128,-1,4
 42 189 42 189 48 215 c 2,5,-1
 114 521 l 1,6,-1
 181 521 l 1,7,-1
 119 227 l 2,8,9
 109 183 109 183 109 149 c 0,10,11
 109 50 109 50 195 50 c 0,12,13
 223 50 223 50 252 60 c 128,-1,14
 281 70 281 70 308 89 c 128,-1,15
 335 108 335 108 359 134 c 128,-1,16
 383 160 383 160 401 193 c 1,17,-1
 471 521 l 1,18,-1
 539 521 l 1,19,-1
 448 96 l 2,20,21
 445 84 445 84 445 77 c 0,22,23
 445 60 445 60 464 60 c 1,24,-1
 451 0 l 1,25,26
 443 -1 443 -1 437.5 -1.5 c 128,-1,27
 432 -2 432 -2 427 -2 c 0,28,29
 404 -2 404 -2 392 8.5 c 128,-1,30
 380 19 380 19 380 37 c 0,31,32
 380 40 380 40 380.5 45 c 128,-1,33
 381 50 381 50 382.5 59 c 128,-1,34
 384 68 384 68 386.5 82 c 128,-1,35
 389 96 389 96 394 118 c 1,36,37
 348 57 348 57 286 23.5 c 128,-1,38
 224 -10 224 -10 159 -10 c 0,0,1
270 730 m 1,39,-1
 340 730 l 1,40,-1
 378 637 l 1,41,-1
 329 620 l 1,42,-1
 270 730 l 1,39,-1
EndSplineSet
EndChar

StartChar: uacute
Encoding: 250 250 189
Width: 569
GlyphClass: 2
Flags: W
LayerCount: 2
Fore
SplineSet
326 620 m 1,0,-1
 284 637 l 1,1,-1
 360 730 l 1,2,-1
 431 730 l 1,3,-1
 326 620 l 1,0,-1
159 -10 m 0,4,5
 37 -10 37 -10 37 124 c 0,6,7
 37 144 37 144 39.5 166.5 c 128,-1,8
 42 189 42 189 48 215 c 2,9,-1
 114 521 l 1,10,-1
 181 521 l 1,11,-1
 119 227 l 2,12,13
 109 183 109 183 109 149 c 0,14,15
 109 50 109 50 195 50 c 0,16,17
 223 50 223 50 252 60 c 128,-1,18
 281 70 281 70 308 89 c 128,-1,19
 335 108 335 108 359 134 c 128,-1,20
 383 160 383 160 401 193 c 1,21,-1
 471 521 l 1,22,-1
 539 521 l 1,23,-1
 448 96 l 2,24,25
 445 84 445 84 445 77 c 0,26,27
 445 60 445 60 464 60 c 1,28,-1
 451 0 l 1,29,30
 443 -1 443 -1 437.5 -1.5 c 128,-1,31
 432 -2 432 -2 427 -2 c 0,32,33
 404 -2 404 -2 392 8.5 c 128,-1,34
 380 19 380 19 380 37 c 0,35,36
 380 40 380 40 380.5 45 c 128,-1,37
 381 50 381 50 382.5 59 c 128,-1,38
 384 68 384 68 386.5 82 c 128,-1,39
 389 96 389 96 394 118 c 1,40,41
 348 57 348 57 286 23.5 c 128,-1,42
 224 -10 224 -10 159 -10 c 0,4,5
EndSplineSet
EndChar

StartChar: ucircumflex
Encoding: 251 251 190
Width: 569
GlyphClass: 2
Flags: W
LayerCount: 2
Fore
SplineSet
234 645 m 1,0,-1
 347 730 l 1,1,-1
 397 730 l 1,2,-1
 472 645 l 1,3,-1
 430 624 l 1,4,-1
 362 687 l 1,5,-1
 268 624 l 1,6,-1
 234 645 l 1,0,-1
159 -10 m 0,7,8
 37 -10 37 -10 37 124 c 0,9,10
 37 144 37 144 39.5 166.5 c 128,-1,11
 42 189 42 189 48 215 c 2,12,-1
 114 521 l 1,13,-1
 181 521 l 1,14,-1
 119 227 l 2,15,16
 109 183 109 183 109 149 c 0,17,18
 109 50 109 50 195 50 c 0,19,20
 223 50 223 50 252 60 c 128,-1,21
 281 70 281 70 308 89 c 128,-1,22
 335 108 335 108 359 134 c 128,-1,23
 383 160 383 160 401 193 c 1,24,-1
 471 521 l 1,25,-1
 539 521 l 1,26,-1
 448 96 l 2,27,28
 445 84 445 84 445 77 c 0,29,30
 445 60 445 60 464 60 c 1,31,-1
 451 0 l 1,32,33
 443 -1 443 -1 437.5 -1.5 c 128,-1,34
 432 -2 432 -2 427 -2 c 0,35,36
 404 -2 404 -2 392 8.5 c 128,-1,37
 380 19 380 19 380 37 c 0,38,39
 380 40 380 40 380.5 45 c 128,-1,40
 381 50 381 50 382.5 59 c 128,-1,41
 384 68 384 68 386.5 82 c 128,-1,42
 389 96 389 96 394 118 c 1,43,44
 348 57 348 57 286 23.5 c 128,-1,45
 224 -10 224 -10 159 -10 c 0,7,8
EndSplineSet
EndChar

StartChar: udieresis
Encoding: 252 252 191
Width: 569
GlyphClass: 2
Flags: W
LayerCount: 2
Fore
SplineSet
243 633 m 1,0,-1
 264 727 l 1,1,-1
 322 727 l 1,2,-1
 301 633 l 1,3,-1
 243 633 l 1,0,-1
387 633 m 1,4,-1
 407 727 l 1,5,-1
 464 727 l 1,6,-1
 445 633 l 1,7,-1
 387 633 l 1,4,-1
159 -10 m 0,8,9
 37 -10 37 -10 37 124 c 0,10,11
 37 144 37 144 39.5 166.5 c 128,-1,12
 42 189 42 189 48 215 c 2,13,-1
 114 521 l 1,14,-1
 181 521 l 1,15,-1
 119 227 l 2,16,17
 109 183 109 183 109 149 c 0,18,19
 109 50 109 50 195 50 c 0,20,21
 223 50 223 50 252 60 c 128,-1,22
 281 70 281 70 308 89 c 128,-1,23
 335 108 335 108 359 134 c 128,-1,24
 383 160 383 160 401 193 c 1,25,-1
 471 521 l 1,26,-1
 539 521 l 1,27,-1
 448 96 l 2,28,29
 445 84 445 84 445 77 c 0,30,31
 445 60 445 60 464 60 c 1,32,-1
 451 0 l 1,33,34
 443 -1 443 -1 437.5 -1.5 c 128,-1,35
 432 -2 432 -2 427 -2 c 0,36,37
 404 -2 404 -2 392 8.5 c 128,-1,38
 380 19 380 19 380 37 c 0,39,40
 380 40 380 40 380.5 45 c 128,-1,41
 381 50 381 50 382.5 59 c 128,-1,42
 384 68 384 68 386.5 82 c 128,-1,43
 389 96 389 96 394 118 c 1,44,45
 348 57 348 57 286 23.5 c 128,-1,46
 224 -10 224 -10 159 -10 c 0,8,9
EndSplineSet
EndChar

StartChar: yacute
Encoding: 253 253 192
Width: 489
GlyphClass: 2
Flags: W
LayerCount: 2
Fore
SplineSet
-36 -169 m 1,0,1
 -5 -164 -5 -164 17.5 -157 c 128,-1,2
 40 -150 40 -150 57.5 -137 c 128,-1,3
 75 -124 75 -124 90.5 -105 c 128,-1,4
 106 -86 106 -86 125 -57 c 2,5,-1
 158 -8 l 1,6,-1
 51 521 l 1,7,-1
 122 521 l 1,8,-1
 206 63 l 1,9,-1
 247 130 l 2,10,11
 290 200 290 200 320 253 c 128,-1,12
 350 306 350 306 371.5 350.5 c 128,-1,13
 393 395 393 395 407.5 435.5 c 128,-1,14
 422 476 422 476 434 521 c 1,15,-1
 501 521 l 1,16,17
 487 473 487 473 472 431.5 c 128,-1,18
 457 390 457 390 434.5 343.5 c 128,-1,19
 412 297 412 297 378.5 239.5 c 128,-1,20
 345 182 345 182 295 103 c 2,21,-1
 214 -26 l 2,22,23
 179 -81 179 -81 150.5 -118 c 128,-1,24
 122 -155 122 -155 94.5 -178 c 128,-1,25
 67 -201 67 -201 38 -211.5 c 128,-1,26
 9 -222 9 -222 -27 -224 c 1,27,-1
 -36 -169 l 1,0,1
290 620 m 1,28,-1
 248 637 l 1,29,-1
 324 730 l 1,30,-1
 395 730 l 1,31,-1
 290 620 l 1,28,-1
EndSplineSet
EndChar

StartChar: thorn
Encoding: 254 254 193
Width: 577
GlyphClass: 2
Flags: W
LayerCount: 2
Fore
SplineSet
160 710 m 1,0,-1
 229 710 l 1,1,-1
 171 434 l 1,2,3
 206 476 206 476 251 504 c 128,-1,4
 296 532 296 532 355 532 c 0,5,6
 400 532 400 532 434.5 514 c 128,-1,7
 469 496 469 496 491.5 466.5 c 128,-1,8
 514 437 514 437 525.5 399 c 128,-1,9
 537 361 537 361 537 321 c 0,10,11
 537 264 537 264 515 204 c 128,-1,12
 493 144 493 144 453 95.5 c 128,-1,13
 413 47 413 47 358 15.5 c 128,-1,14
 303 -16 303 -16 237 -16 c 0,15,16
 175 -16 175 -16 141.5 11 c 128,-1,17
 108 38 108 38 94 74 c 1,18,-1
 33 -213 l 1,19,-1
 -36 -213 l 1,20,-1
 160 710 l 1,0,-1
251 47 m 0,21,22
 294 47 294 47 333.5 68.5 c 128,-1,23
 373 90 373 90 402.5 126 c 128,-1,24
 432 162 432 162 449.5 208.5 c 128,-1,25
 467 255 467 255 467 305 c 0,26,27
 467 339 467 339 458.5 369 c 128,-1,28
 450 399 450 399 433.5 421.5 c 128,-1,29
 417 444 417 444 392.5 457 c 128,-1,30
 368 470 368 470 336 470 c 0,31,32
 309 470 309 470 283 460 c 128,-1,33
 257 450 257 450 234 433.5 c 128,-1,34
 211 417 211 417 190 395 c 128,-1,35
 169 373 169 373 152 348 c 1,36,-1
 115 172 l 2,37,38
 113 167 113 167 113 164 c 128,-1,39
 113 161 113 161 113 157 c 0,40,41
 113 135 113 135 124 115 c 128,-1,42
 135 95 135 95 154 80 c 128,-1,43
 173 65 173 65 198 56 c 128,-1,44
 223 47 223 47 251 47 c 0,21,22
EndSplineSet
EndChar

StartChar: ydieresis
Encoding: 255 255 194
Width: 489
GlyphClass: 2
Flags: W
LayerCount: 2
Fore
SplineSet
-36 -169 m 1,0,1
 -5 -164 -5 -164 17.5 -157 c 128,-1,2
 40 -150 40 -150 57.5 -137 c 128,-1,3
 75 -124 75 -124 90.5 -105 c 128,-1,4
 106 -86 106 -86 125 -57 c 2,5,-1
 158 -8 l 1,6,-1
 51 521 l 1,7,-1
 122 521 l 1,8,-1
 206 63 l 1,9,-1
 247 130 l 2,10,11
 290 200 290 200 320 253 c 128,-1,12
 350 306 350 306 371.5 350.5 c 128,-1,13
 393 395 393 395 407.5 435.5 c 128,-1,14
 422 476 422 476 434 521 c 1,15,-1
 501 521 l 1,16,17
 487 473 487 473 472 431.5 c 128,-1,18
 457 390 457 390 434.5 343.5 c 128,-1,19
 412 297 412 297 378.5 239.5 c 128,-1,20
 345 182 345 182 295 103 c 2,21,-1
 214 -26 l 2,22,23
 179 -81 179 -81 150.5 -118 c 128,-1,24
 122 -155 122 -155 94.5 -178 c 128,-1,25
 67 -201 67 -201 38 -211.5 c 128,-1,26
 9 -222 9 -222 -27 -224 c 1,27,-1
 -36 -169 l 1,0,1
192 633 m 1,28,-1
 213 727 l 1,29,-1
 271 727 l 1,30,-1
 250 633 l 1,31,-1
 192 633 l 1,28,-1
336 633 m 1,32,-1
 356 727 l 1,33,-1
 413 727 l 1,34,-1
 394 633 l 1,35,-1
 336 633 l 1,32,-1
EndSplineSet
EndChar

StartChar: Amacron
Encoding: 256 256 195
Width: 651
GlyphClass: 2
Flags: W
LayerCount: 2
Fore
SplineSet
386 710 m 1,0,-1
 446 710 l 1,1,-1
 574 0 l 1,2,-1
 500 0 l 1,3,-1
 461 222 l 1,4,-1
 162 222 l 1,5,-1
 30 0 l 1,6,-1
 -45 0 l 1,7,-1
 386 710 l 1,0,-1
457 277 m 1,8,-1
 399 628 l 1,9,-1
 188 277 l 1,10,-1
 457 277 l 1,8,-1
304 849 m 1,11,-1
 314 896 l 1,12,-1
 589 896 l 1,13,-1
 579 849 l 1,14,-1
 304 849 l 1,11,-1
EndSplineSet
EndChar

StartChar: amacron
Encoding: 257 257 196
Width: 598
GlyphClass: 2
Flags: W
LayerCount: 2
Fore
SplineSet
210 -10 m 0,0,1
 166 -10 166 -10 132 7.5 c 128,-1,2
 98 25 98 25 74 55 c 128,-1,3
 50 85 50 85 37.5 124.5 c 128,-1,4
 25 164 25 164 25 208 c 0,5,6
 25 270 25 270 49 328 c 128,-1,7
 73 386 73 386 113 431 c 128,-1,8
 153 476 153 476 205 503 c 128,-1,9
 257 530 257 530 314 530 c 0,10,11
 377 530 377 530 418 495.5 c 128,-1,12
 459 461 459 461 476 412 c 1,13,-1
 500 521 l 1,14,-1
 568 521 l 1,15,-1
 476 89 l 2,16,17
 474 81 474 81 474 76 c 0,18,19
 474 60 474 60 493 60 c 1,20,-1
 480 0 l 1,21,22
 472 -1 472 -1 465 -2 c 128,-1,23
 458 -3 458 -3 453 -3 c 0,24,25
 430 -1 430 -1 418.5 9.5 c 128,-1,26
 407 20 407 20 407 37 c 0,27,28
 407 45 407 45 409.5 58 c 128,-1,29
 412 71 412 71 418 101 c 1,30,31
 378 50 378 50 321.5 20 c 128,-1,32
 265 -10 265 -10 210 -10 c 0,0,1
238 50 m 0,33,34
 263 50 263 50 292 60 c 128,-1,35
 321 70 321 70 347.5 87.5 c 128,-1,36
 374 105 374 105 395.5 128.5 c 128,-1,37
 417 152 417 152 427 179 c 1,38,-1
 460 340 l 1,39,40
 457 367 457 367 444 390.5 c 128,-1,41
 431 414 431 414 412 431.5 c 128,-1,42
 393 449 393 449 369 459.5 c 128,-1,43
 345 470 345 470 319 470 c 0,44,45
 274 470 274 470 233.5 447.5 c 128,-1,46
 193 425 193 425 162.5 389 c 128,-1,47
 132 353 132 353 114 308 c 128,-1,48
 96 263 96 263 96 218 c 0,49,50
 96 183 96 183 106 152.5 c 128,-1,51
 116 122 116 122 135 99.5 c 128,-1,52
 154 77 154 77 180 63.5 c 128,-1,53
 206 50 206 50 238 50 c 0,33,34
229 662 m 1,54,-1
 239 709 l 1,55,-1
 514 709 l 1,56,-1
 504 662 l 1,57,-1
 229 662 l 1,54,-1
EndSplineSet
EndChar

StartChar: Abreve
Encoding: 258 258 197
Width: 651
GlyphClass: 2
Flags: W
LayerCount: 2
Fore
SplineSet
386 710 m 1,0,-1
 446 710 l 1,1,-1
 574 0 l 1,2,-1
 500 0 l 1,3,-1
 461 222 l 1,4,-1
 162 222 l 1,5,-1
 30 0 l 1,6,-1
 -45 0 l 1,7,-1
 386 710 l 1,0,-1
457 277 m 1,8,-1
 399 628 l 1,9,-1
 188 277 l 1,10,-1
 457 277 l 1,8,-1
438 851 m 0,11,12
 458 851 458 851 478 870 c 128,-1,13
 498 889 498 889 507 917 c 1,14,-1
 547 917 l 1,15,16
 542 896 542 896 531 877.5 c 128,-1,17
 520 859 520 859 504.5 845.5 c 128,-1,18
 489 832 489 832 470 824 c 128,-1,19
 451 816 451 816 431 816 c 0,20,21
 396 816 396 816 375 838 c 128,-1,22
 354 860 354 860 354 894 c 0,23,24
 354 905 354 905 357 917 c 1,25,-1
 399 917 l 1,26,27
 397 907 397 907 397 902 c 0,28,29
 397 881 397 881 408.5 866 c 128,-1,30
 420 851 420 851 438 851 c 0,11,12
EndSplineSet
EndChar

StartChar: abreve
Encoding: 259 259 198
Width: 598
GlyphClass: 2
Flags: W
LayerCount: 2
Fore
SplineSet
210 -10 m 0,0,1
 166 -10 166 -10 132 7.5 c 128,-1,2
 98 25 98 25 74 55 c 128,-1,3
 50 85 50 85 37.5 124.5 c 128,-1,4
 25 164 25 164 25 208 c 0,5,6
 25 270 25 270 49 328 c 128,-1,7
 73 386 73 386 113 431 c 128,-1,8
 153 476 153 476 205 503 c 128,-1,9
 257 530 257 530 314 530 c 0,10,11
 377 530 377 530 418 495.5 c 128,-1,12
 459 461 459 461 476 412 c 1,13,-1
 500 521 l 1,14,-1
 568 521 l 1,15,-1
 476 89 l 2,16,17
 474 81 474 81 474 76 c 0,18,19
 474 60 474 60 493 60 c 1,20,-1
 480 0 l 1,21,22
 472 -1 472 -1 465 -2 c 128,-1,23
 458 -3 458 -3 453 -3 c 0,24,25
 430 -1 430 -1 418.5 9.5 c 128,-1,26
 407 20 407 20 407 37 c 0,27,28
 407 45 407 45 409.5 58 c 128,-1,29
 412 71 412 71 418 101 c 1,30,31
 378 50 378 50 321.5 20 c 128,-1,32
 265 -10 265 -10 210 -10 c 0,0,1
238 50 m 0,33,34
 263 50 263 50 292 60 c 128,-1,35
 321 70 321 70 347.5 87.5 c 128,-1,36
 374 105 374 105 395.5 128.5 c 128,-1,37
 417 152 417 152 427 179 c 1,38,-1
 460 340 l 1,39,40
 457 367 457 367 444 390.5 c 128,-1,41
 431 414 431 414 412 431.5 c 128,-1,42
 393 449 393 449 369 459.5 c 128,-1,43
 345 470 345 470 319 470 c 0,44,45
 274 470 274 470 233.5 447.5 c 128,-1,46
 193 425 193 425 162.5 389 c 128,-1,47
 132 353 132 353 114 308 c 128,-1,48
 96 263 96 263 96 218 c 0,49,50
 96 183 96 183 106 152.5 c 128,-1,51
 116 122 116 122 135 99.5 c 128,-1,52
 154 77 154 77 180 63.5 c 128,-1,53
 206 50 206 50 238 50 c 0,33,34
352 664 m 0,54,55
 372 664 372 664 392 683 c 128,-1,56
 412 702 412 702 421 730 c 1,57,-1
 461 730 l 1,58,59
 456 709 456 709 445 690.5 c 128,-1,60
 434 672 434 672 418.5 658.5 c 128,-1,61
 403 645 403 645 384 637 c 128,-1,62
 365 629 365 629 345 629 c 0,63,64
 310 629 310 629 289 651 c 128,-1,65
 268 673 268 673 268 707 c 0,66,67
 268 718 268 718 271 730 c 1,68,-1
 313 730 l 1,69,70
 311 720 311 720 311 715 c 0,71,72
 311 694 311 694 322.5 679 c 128,-1,73
 334 664 334 664 352 664 c 0,54,55
EndSplineSet
EndChar

StartChar: Aogonek
Encoding: 260 260 199
Width: 651
GlyphClass: 2
Flags: W
LayerCount: 2
Fore
SplineSet
491 -175 m 1,0,1
 461 -168 461 -168 446 -152 c 128,-1,2
 431 -136 431 -136 431 -114 c 0,3,4
 431 -86 431 -86 453.5 -59 c 128,-1,5
 476 -32 476 -32 526 0 c 1,6,-1
 500 0 l 1,7,-1
 461 222 l 1,8,-1
 162 222 l 1,9,-1
 30 0 l 1,10,-1
 -45 0 l 1,11,-1
 386 710 l 1,12,-1
 446 710 l 1,13,-1
 574 0 l 1,14,15
 519 -32 519 -32 497 -55 c 128,-1,16
 475 -78 475 -78 475 -101 c 0,17,18
 475 -131 475 -131 517 -137 c 1,19,-1
 491 -175 l 1,0,1
457 277 m 1,20,-1
 399 628 l 1,21,-1
 188 277 l 1,22,-1
 457 277 l 1,20,-1
EndSplineSet
EndChar

StartChar: aogonek
Encoding: 261 261 200
Width: 598
GlyphClass: 2
Flags: W
LayerCount: 2
Fore
SplineSet
397 -175 m 1,0,1
 367 -168 367 -168 352 -152 c 128,-1,2
 337 -136 337 -136 337 -114 c 0,3,4
 337 -85 337 -85 360 -58 c 128,-1,5
 383 -31 383 -31 434 1 c 1,6,7
 407 10 407 10 407 37 c 0,8,9
 407 45 407 45 409.5 58 c 128,-1,10
 412 71 412 71 418 101 c 1,11,12
 378 50 378 50 321.5 20 c 128,-1,13
 265 -10 265 -10 210 -10 c 0,14,15
 166 -10 166 -10 132 7.5 c 128,-1,16
 98 25 98 25 74 55 c 128,-1,17
 50 85 50 85 37.5 124.5 c 128,-1,18
 25 164 25 164 25 208 c 0,19,20
 25 270 25 270 49 328 c 128,-1,21
 73 386 73 386 113 431 c 128,-1,22
 153 476 153 476 205 503 c 128,-1,23
 257 530 257 530 314 530 c 0,24,25
 377 530 377 530 418 495.5 c 128,-1,26
 459 461 459 461 476 412 c 1,27,-1
 500 521 l 1,28,-1
 568 521 l 1,29,-1
 476 89 l 2,30,31
 474 81 474 81 474 76 c 0,32,33
 474 60 474 60 493 60 c 1,34,-1
 480 0 l 1,35,36
 425 -32 425 -32 403 -55 c 128,-1,37
 381 -78 381 -78 381 -101 c 0,38,39
 381 -131 381 -131 423 -137 c 1,40,-1
 397 -175 l 1,0,1
238 50 m 0,41,42
 263 50 263 50 292 60 c 128,-1,43
 321 70 321 70 347.5 87.5 c 128,-1,44
 374 105 374 105 395.5 128.5 c 128,-1,45
 417 152 417 152 427 179 c 1,46,-1
 460 340 l 1,47,48
 457 367 457 367 444 390.5 c 128,-1,49
 431 414 431 414 412 431.5 c 128,-1,50
 393 449 393 449 369 459.5 c 128,-1,51
 345 470 345 470 319 470 c 0,52,53
 274 470 274 470 233.5 447.5 c 128,-1,54
 193 425 193 425 162.5 389 c 128,-1,55
 132 353 132 353 114 308 c 128,-1,56
 96 263 96 263 96 218 c 0,57,58
 96 183 96 183 106 152.5 c 128,-1,59
 116 122 116 122 135 99.5 c 128,-1,60
 154 77 154 77 180 63.5 c 128,-1,61
 206 50 206 50 238 50 c 0,41,42
EndSplineSet
EndChar

StartChar: Cacute
Encoding: 262 262 201
Width: 656
GlyphClass: 2
Flags: W
LayerCount: 2
Fore
SplineSet
472 807 m 1,0,-1
 430 824 l 1,1,-1
 506 917 l 1,2,-1
 577 917 l 1,3,-1
 472 807 l 1,0,-1
294 -6 m 0,4,5
 235 -6 235 -6 189 19.5 c 128,-1,6
 143 45 143 45 111.5 87 c 128,-1,7
 80 129 80 129 63.5 183 c 128,-1,8
 47 237 47 237 47 294 c 0,9,10
 47 367 47 367 77.5 441.5 c 128,-1,11
 108 516 108 516 162 576.5 c 128,-1,12
 216 637 216 637 290 675.5 c 128,-1,13
 364 714 364 714 452 714 c 0,14,15
 543 714 543 714 597.5 671 c 128,-1,16
 652 628 652 628 669 559 c 1,17,-1
 606 525 l 1,18,19
 597 560 597 560 579.5 584 c 128,-1,20
 562 608 562 608 539 623 c 128,-1,21
 516 638 516 638 489 644.5 c 128,-1,22
 462 651 462 651 435 651 c 0,23,24
 365 651 365 651 306.5 618.5 c 128,-1,25
 248 586 248 586 206 534.5 c 128,-1,26
 164 483 164 483 140.5 420 c 128,-1,27
 117 357 117 357 117 297 c 0,28,29
 117 248 117 248 130.5 204.5 c 128,-1,30
 144 161 144 161 169 128 c 128,-1,31
 194 95 194 95 230 76 c 128,-1,32
 266 57 266 57 311 57 c 0,33,34
 339 57 339 57 370.5 64.5 c 128,-1,35
 402 72 402 72 433 88.5 c 128,-1,36
 464 105 464 105 493 129.5 c 128,-1,37
 522 154 522 154 545 189 c 1,38,-1
 597 159 l 1,39,40
 572 119 572 119 536.5 88.5 c 128,-1,41
 501 58 501 58 460 37 c 128,-1,42
 419 16 419 16 376 5 c 128,-1,43
 333 -6 333 -6 294 -6 c 0,4,5
EndSplineSet
EndChar

